SplineFontDB: 1.0
FontName: DejaVuSansCondensed-BoldOblique
FullName: DejaVu Sans Condensed Bold Oblique
FamilyName: DejaVu Sans Condensed
Weight: Bold
Copyright: Copyright (c) 2003 by Bitstream, Inc. All Rights Reserved.\nDejaVu changes are in public domain\n
Version: 1.11
ItalicAngle: -11
UnderlinePosition: -227
UnderlineWidth: 258
Ascent: 1556
Descent: 492
Order2: 1
NeedsXUIDChange: 1
FSType: 4
PfmFamily: 17
TTFWeight: 700
TTFWidth: 5
Panose: 2 11 8 6 3 3 4 11 2 4
LineGap: 410
VLineGap: 0
OS2TypoAscent: 1556
OS2TypoDescent: -492
OS2TypoLinegap: 0
OS2WinAscent: 1901
OS2WinAOffset: 0
OS2WinDescent: 483
OS2WinDOffset: 0
HheadAscent: 1901
HheadAOffset: 0
HheadDescent: -483
HheadDOffset: 0
ScriptLang: 2
 1 latn 1 dflt 
 1 DFLT 1 dflt 
TtfTable: prep 1387
\,q1Gs5*_Wh%9bE('E=F3X+:;"55d<fjk3;]*$[a"4eLqeJSJ=rWCXK"4I/NdJa6prWCKl%L(2X
"3qAYbK>5:bPhUdI07U4N!7?&"3J=]aN%EeaG^5BJ-<p4-3_Fm"33Y0`[1f,rWC+8"2k*?_YOAN
$j4=r"Mk!=^\S&HI07/H"2+U8]"'?q])DfB/-EE]"1P^/"h/m^[RUG-q?+,("1.t/ZMjs2]*#;:
"0WaJY5SO*X9o-5rWB5/"0=`jX/ZL1X"jdW$3R:("/o?<"fVD&VtpLmq?*Qs('UQ6"/PnuU](@i
q?*Fa(^6UD"/$J5T4f8LT4A%q5l[B$"ePPmSL"B.=V_12q?*4U'EssA".GVh"e$,-R1KIfQO<ta
+9Rr<".#2u"d\ueQ!"k+PpHNsP8"1b-3KHp&d=I5"-O9!O]`G'OW=Oc'EaDV]*48p"-/@H"cg1s
Ndq7lN$SXe>m$'O"H4W/MuEg9A-7Zj&-[pi",Ip!LP@hnL\_+-F;kC<3Wk(h)?kgM",):="b[cr
K7XU;K+S3;JID^6%g.@k"+XMi"b?RSJ,TP!'a&js"+:(MHi=+nrW@E^"*b[cG8::(F;kC,q?(k^
)[1B\"*@Z]"`t[cF'07^F+".2rW@-e"*"5ADuKiVrW@!E"$lm&rW?qN%L$YI")8;JC-Vo9BH@=k
q?(D6('S@m"(taP"_[Z6Am>`JAfLnarW?\@]*2aE"(PeG"_5.H@t4\k=!\#Z>m"P$"C_93?sbMi
@/^78/d#E_('S"c"'o.?"^N5Q>RU^==V_0F9*8@#('Rn@"'J_;"^)TC=:bR9,m.3I"',=&<;ltu
rW?'t"&]%":erA@:mM2Z,m-mR"&8as9`>,erW>dh"%i=k8-oAh5QjPFV?KHg"%B'h6phms7/@!Q
)ZrGm"@?W$69kZ>I02b6"$\t#"[4I>4o,7CrW>7]"$6D`3A_-J3AL[rrW>)7"#`"D"ZAXGrW>"b
"#W=H1c#IB1^jIB$3N'_"#0oj"YkE-0J=@K0Ot8=";(ej)Zq_l""j?O/1VSA/5$'q";(ef)$;>k
&HsXW"">W."Xt8j-mo?*-k6>,$3MUd"!o3&"XPo+,Rso$+qOo&'E]Nj"!J1$"X3^E+9;fQ+>O$@
(]tjF"<JQj"We0V*=;lg#m2/4"<.t7"WNa0)@n+t)IrpfrW=!J!uLq=()6od'Fk9]&H`^W!tu;.

StartChar: .notdef
Encoding: 0 -1 0
Width: 1167
Flags: HW
Fore
153.2 -362 m 1,0,-1
 153.2 1444 l 1,1,-1
 1074.8 1444 l 1,2,-1
 1074.8 -362 l 1,3,-1
 153.2 -362 l 1,0,-1
256.7 -248 m 1,4,-1
 972.2 -248 l 1,5,-1
 972.2 1329 l 1,6,-1
 256.7 1329 l 1,7,-1
 256.7 -248 l 1,4,-1
EndSplineSet
EndChar
StartChar: exclam
Encoding: 33 33 4
Width: 887
Flags: HW
Fore
435.5 1493 m 1,0,-1
 760.4 1493 l 1,1,-1
 658.7 920 l 1,2,-1
 540.8 502 l 1,3,-1
 308.6 502 l 1,4,-1
 333.8 920 l 1,5,-1
 435.5 1493 l 1,0,-1
236.6 356 m 1,6,-1
 560.6 356 l 1,7,-1
 498.5 0 l 1,8,-1
 173.6 0 l 1,9,-1
 236.6 356 l 1,6,-1
EndSplineSet
EndChar
StartChar: quotedbl
Encoding: 34 34 5
Width: 1013
Flags: HW
Fore
838.15 1493 m 1,0,-1
 838.15 938 l 1,1,-1
 624.85 938 l 1,2,-1
 624.85 1493 l 1,3,-1
 838.15 1493 l 1,0,-1
442.15 1493 m 1,4,-1
 442.15 938 l 1,5,-1
 228.85 938 l 1,6,-1
 228.85 1493 l 1,7,-1
 442.15 1493 l 1,4,-1
EndSplineSet
EndChar
StartChar: numbersign
Encoding: 35 35 6
Width: 1369
Flags: HW
Fore
1008.1 872 m 1,0,-1
 770.5 872 l 1,1,-1
 707.5 598 l 1,2,-1
 945.1 598 l 1,3,-1
 1008.1 872 l 1,0,-1
906.4 1470 m 1,4,-1
 820 1085 l 1,5,-1
 1057.6 1085 l 1,6,-1
 1144.9 1470 l 1,7,-1
 1343.8 1470 l 1,8,-1
 1256.5 1085 l 1,9,-1
 1523.8 1085 l 1,10,-1
 1476.1 872 l 1,11,-1
 1208.8 872 l 1,12,-1
 1146.7 598 l 1,13,-1
 1414 598 l 1,14,-1
 1365.4 383 l 1,15,-1
 1099.9 383 l 1,16,-1
 1013.5 0 l 1,17,-1
 814.6 0 l 1,18,-1
 901 383 l 1,19,-1
 663.4 383 l 1,20,-1
 577 0 l 1,21,-1
 376.3 0 l 1,22,-1
 462.7 383 l 1,23,-1
 206.2 383 l 1,24,-1
 253.9 598 l 1,25,-1
 506.8 598 l 1,26,-1
 569.8 872 l 1,27,-1
 315.1 872 l 1,28,-1
 362.8 1085 l 1,29,-1
 619.3 1085 l 1,30,-1
 705.7 1470 l 1,31,-1
 906.4 1470 l 1,4,-1
EndSplineSet
EndChar
StartChar: dollar
Encoding: 36 36 7
Width: 1349
Flags: HW
Fore
603.65 -301 m 1,0,-1
 457.85 -301 l 1,1,-1
 510.95 0 l 1,2,3
 396.65 5 396.65 5 298.55 26.5 c 128,-1,4
 200.45 48 200.45 48 116.75 86 c 1,5,-1
 160.85 348 l 1,6,7
 247.25 293 247.25 293 344.9 262.5 c 128,-1,8
 442.55 232 442.55 232 550.55 228 c 1,9,-1
 605.45 539 l 1,10,11
 416.45 570 416.45 570 330.5 650.5 c 128,-1,12
 244.55 731 244.55 731 244.55 874 c 0,13,14
 244.55 1073 244.55 1073 379.1 1195.5 c 128,-1,15
 513.65 1318 513.65 1318 743.15 1327 c 1,16,-1
 782.75 1556 l 1,17,-1
 927.65 1556 l 1,18,-1
 888.95 1329 l 1,19,20
 979.85 1323 979.85 1323 1064.45 1306 c 128,-1,21
 1149.05 1289 1149.05 1289 1228.25 1262 c 1,22,-1
 1184.15 1008 l 1,23,24
 1127.45 1045 1127.45 1045 1041.5 1068.5 c 128,-1,25
 955.55 1092 955.55 1092 848.45 1099 c 1,26,-1
 797.15 811 l 1,27,28
 988.85 775 988.85 775 1081.1 694 c 128,-1,29
 1173.35 613 1173.35 613 1173.35 479 c 0,30,31
 1173.35 259 1173.35 259 1037.9 134 c 128,-1,32
 902.45 9 902.45 9 655.85 0 c 1,33,-1
 603.65 -301 l 1,0,-1
656.75 836 m 1,34,-1
 702.65 1098 l 1,35,36
 627.05 1090 627.05 1090 582.05 1049.5 c 128,-1,37
 537.05 1009 537.05 1009 537.05 948 c 0,38,39
 537.05 900 537.05 900 566.3 872.5 c 128,-1,40
 595.55 845 595.55 845 656.75 836 c 1,34,-1
745.85 512 m 1,41,-1
 696.35 227 l 1,42,43
 785.45 232 785.45 232 833.6 275 c 128,-1,44
 881.75 318 881.75 318 881.75 393 c 0,45,46
 881.75 444 881.75 444 848.9 472.5 c 128,-1,47
 816.05 501 816.05 501 745.85 512 c 1,41,-1
EndSplineSet
EndChar
StartChar: percent
Encoding: 37 37 8
Width: 1949
Flags: HW
Fore
1511.1 616 m 0,0,1
 1433.7 616 1433.7 616 1383.75 532 c 128,-1,2
 1333.8 448 1333.8 448 1333.8 315 c 0,3,4
 1333.8 228 1333.8 228 1361.25 184.5 c 128,-1,5
 1388.7 141 1388.7 141 1444.5 141 c 0,6,7
 1522.8 141 1522.8 141 1572.3 225 c 128,-1,8
 1621.8 309 1621.8 309 1621.8 444 c 0,9,10
 1621.8 529 1621.8 529 1593.45 572.5 c 128,-1,11
 1565.1 616 1565.1 616 1511.1 616 c 0,0,1
1536.3 784 m 0,12,13
 1677.6 784 1677.6 784 1762.65 698.5 c 128,-1,14
 1847.7 613 1847.7 613 1847.7 473 c 0,15,16
 1847.7 249 1847.7 249 1728.45 110 c 128,-1,17
 1609.2 -29 1609.2 -29 1416.6 -29 c 0,18,19
 1275.3 -29 1275.3 -29 1190.25 57.5 c 128,-1,20
 1105.2 144 1105.2 144 1105.2 285 c 0,21,22
 1105.2 507 1105.2 507 1224.45 645.5 c 128,-1,23
 1343.7 784 1343.7 784 1536.3 784 c 0,12,13
581.4 -29 m 1,24,-1
 360.9 -29 l 1,25,-1
 1472.4 1520 l 1,26,-1
 1692.9 1520 l 1,27,-1
 581.4 -29 l 1,24,-1
637.2 1520 m 0,28,29
 777.6 1520 777.6 1520 863.1 1434 c 128,-1,30
 948.6 1348 948.6 1348 948.6 1208 c 0,31,32
 948.6 985 948.6 985 828.45 846 c 128,-1,33
 708.3 707 708.3 707 515.7 707 c 0,34,35
 374.4 707 374.4 707 289.35 792 c 128,-1,36
 204.3 877 204.3 877 204.3 1018 c 0,37,38
 204.3 1240 204.3 1240 324.45 1380 c 128,-1,39
 444.6 1520 444.6 1520 637.2 1520 c 0,28,29
609.3 1352 m 0,40,41
 531.9 1352 531.9 1352 482.4 1267.5 c 128,-1,42
 432.9 1183 432.9 1183 432.9 1051 c 0,43,44
 432.9 963 432.9 963 460.35 918.5 c 128,-1,45
 487.8 874 487.8 874 542.7 874 c 0,46,47
 621 874 621 874 670.5 959 c 128,-1,48
 720 1044 720 1044 720 1180 c 0,49,50
 720 1264 720 1264 691.65 1308 c 128,-1,51
 663.3 1352 663.3 1352 609.3 1352 c 0,40,41
EndSplineSet
EndChar
StartChar: ampersand
Encoding: 38 38 9
Width: 1693
Flags: HW
Fore
875.4 915 m 2,0,-1
 1142.7 541 l 1,1,2
 1198.5 604 1198.5 604 1239 692 c 128,-1,3
 1279.5 780 1279.5 780 1304.7 895 c 1,4,-1
 1584.6 895 l 1,5,6
 1545.9 720 1545.9 720 1474.35 577 c 128,-1,7
 1402.8 434 1402.8 434 1294.8 322 c 1,8,-1
 1525.2 0 l 1,9,-1
 1131 0 l 1,10,-1
 1055.4 106 l 1,11,12
 949.2 38 949.2 38 843 4.5 c 128,-1,13
 736.8 -29 736.8 -29 626.1 -29 c 0,14,15
 405.6 -29 405.6 -29 271.5 94 c 128,-1,16
 137.4 217 137.4 217 137.4 416 c 0,17,18
 137.4 567 137.4 567 223.35 693.5 c 128,-1,19
 309.3 820 309.3 820 490.2 934 c 1,20,21
 466.8 978 466.8 978 455.1 1023 c 128,-1,22
 443.4 1068 443.4 1068 443.4 1116 c 0,23,24
 443.4 1292 443.4 1292 579.3 1406 c 128,-1,25
 715.2 1520 715.2 1520 930.3 1520 c 0,26,27
 1012.2 1520 1012.2 1520 1098.15 1505.5 c 128,-1,28
 1184.1 1491 1184.1 1491 1275 1462 c 1,29,-1
 1227.3 1184 l 1,30,31
 1149 1232 1149 1232 1077.9 1255 c 128,-1,32
 1006.8 1278 1006.8 1278 935.7 1278 c 0,33,34
 858.3 1278 858.3 1278 813.3 1242 c 128,-1,35
 768.3 1206 768.3 1206 768.3 1145 c 0,36,37
 768.3 1107 768.3 1107 795.3 1048.5 c 128,-1,38
 822.3 990 822.3 990 875.4 915 c 2,0,-1
603.6 743 m 1,39,40
 531.6 692 531.6 692 494.25 625.5 c 128,-1,41
 456.9 559 456.9 559 456.9 483 c 0,42,43
 456.9 376 456.9 376 525.3 302.5 c 128,-1,44
 593.7 229 593.7 229 696.3 229 c 0,45,46
 750.3 229 750.3 229 803.4 250 c 128,-1,47
 856.5 271 856.5 271 909.6 313 c 1,48,-1
 603.6 743 l 1,39,40
EndSplineSet
EndChar
StartChar: quotesingle
Encoding: 39 39 10
Width: 595
Flags: HW
Fore
420.15 1493 m 1,0,-1
 420.15 938 l 1,1,-1
 206.85 938 l 1,2,-1
 206.85 1493 l 1,3,-1
 420.15 1493 l 1,0,-1
EndSplineSet
EndChar
StartChar: parenleft
Encoding: 40 40 11
Width: 898
Flags: HW
Fore
599.4 -270 m 1,0,-1
 337.5 -270 l 1,1,2
 267.3 -104 267.3 -104 232.65 55.5 c 128,-1,3
 198 215 198 215 198 373 c 0,4,5
 198 668 198 668 312.3 962.5 c 128,-1,6
 426.6 1257 426.6 1257 657 1554 c 1,7,-1
 918 1554 l 1,8,9
 708.3 1244 708.3 1244 605.25 940.5 c 128,-1,10
 502.2 637 502.2 637 502.2 332 c 0,11,12
 502.2 182 502.2 182 526.5 32.5 c 128,-1,13
 550.8 -117 550.8 -117 599.4 -270 c 1,0,-1
EndSplineSet
EndChar
StartChar: parenright
Encoding: 41 41 12
Width: 876
Flags: HW
Fore
303.6 1554 m 1,0,-1
 567.3 1554 l 1,1,2
 636.6 1390 636.6 1390 670.8 1230.5 c 128,-1,3
 705 1071 705 1071 705 911 c 0,4,5
 705 613 705 613 591.15 318.5 c 128,-1,6
 477.3 24 477.3 24 248.7 -270 c 1,7,-1
 -15 -270 l 1,8,9
 194.7 40 194.7 40 298.2 344 c 128,-1,10
 401.7 648 401.7 648 401.7 954 c 0,11,12
 401.7 1104 401.7 1104 377.4 1252.5 c 128,-1,13
 353.1 1401 353.1 1401 303.6 1554 c 1,0,-1
EndSplineSet
EndChar
StartChar: asterisk
Encoding: 42 42 13
Width: 1017
Flags: HW
Fore
980.55 1217 m 1,0,-1
 683.55 1044 l 1,1,-1
 980.55 870 l 1,2,-1
 912.15 729 l 1,3,-1
 612.45 913 l 1,4,-1
 612.45 569 l 1,5,-1
 459.45 569 l 1,6,-1
 459.45 913 l 1,7,-1
 158.85 729 l 1,8,-1
 90.4502 870 l 1,9,-1
 391.05 1044 l 1,10,-1
 90.4502 1217 l 1,11,-1
 158.85 1358 l 1,12,-1
 459.45 1176 l 1,13,-1
 459.45 1520 l 1,14,-1
 612.45 1520 l 1,15,-1
 612.45 1176 l 1,16,-1
 912.15 1358 l 1,17,-1
 980.55 1217 l 1,0,-1
EndSplineSet
EndChar
StartChar: plus
Encoding: 43 43 14
Width: 1630
Flags: HW
Fore
965.1 1284 m 1,0,-1
 965.1 760 l 1,1,-1
 1434.9 760 l 1,2,-1
 1434.9 524 l 1,3,-1
 965.1 524 l 1,4,-1
 965.1 0 l 1,5,-1
 750.9 0 l 1,6,-1
 750.9 524 l 1,7,-1
 281.1 524 l 1,8,-1
 281.1 760 l 1,9,-1
 750.9 760 l 1,10,-1
 750.9 1284 l 1,11,-1
 965.1 1284 l 1,0,-1
EndSplineSet
EndChar
StartChar: comma
Encoding: 44 44 15
Width: 722
Flags: HW
Fore
170.3 387 m 1,0,-1
 494.3 387 l 1,1,-1
 441.2 82 l 1,2,-1
 151.4 -291 l 1,3,-1
 -40.2998 -291 l 1,4,-1
 116.3 82 l 1,5,-1
 170.3 387 l 1,0,-1
EndSplineSet
EndChar
StartChar: hyphen
Encoding: 45 45 16
Width: 804
Flags: HW
Fore
137.5 735 m 1,0,-1
 702.7 735 l 1,1,-1
 651.4 444 l 1,2,-1
 85.2998 444 l 1,3,-1
 137.5 735 l 1,0,-1
EndSplineSet
KernsSLIF: 356 -301 0 0 221 -339 0 0 376 -339 0 0 89 -339 0 0 88 -206 0 0 87 -92 0 0 86 -149 0 0 84 -301 0 0
EndChar
StartChar: period
Encoding: 46 46 17
Width: 731
Flags: HW
Fore
184.2 387 m 1,0,-1
 508.2 387 l 1,1,-1
 440.7 0 l 1,2,-1
 115.8 0 l 1,3,-1
 184.2 387 l 1,0,-1
EndSplineSet
EndChar
StartChar: slash
Encoding: 47 47 18
Width: 707
Flags: HW
Fore
625.9 1493 m 1,0,-1
 834.7 1493 l 1,1,-1
 66.0996 -190 l 1,2,-1
 -142.7 -190 l 1,3,-1
 625.9 1493 l 1,0,-1
EndSplineSet
EndChar
StartChar: zero
Encoding: 48 48 19
Width: 1353
Flags: HW
Fore
622.1 233 m 0,0,1
 691.4 233 691.4 233 744.95 279 c 128,-1,2
 798.5 325 798.5 325 834.5 414 c 0,3,4
 859.7 477 859.7 477 880.4 557.5 c 128,-1,5
 901.1 638 901.1 638 919.1 748 c 0,6,7
 934.4 837 934.4 837 942.5 912 c 128,-1,8
 950.6 987 950.6 987 950.6 1040 c 0,9,10
 950.6 1152 950.6 1152 914.6 1204.5 c 128,-1,11
 878.6 1257 878.6 1257 803 1257 c 0,12,13
 732.8 1257 732.8 1257 679.7 1212.5 c 128,-1,14
 626.6 1168 626.6 1168 591.5 1077 c 1,15,16
 564.5 1012 564.5 1012 542.45 929 c 128,-1,17
 520.4 846 520.4 846 504.2 748 c 0,18,19
 488.9 658 488.9 658 480.8 581 c 128,-1,20
 472.7 504 472.7 504 472.7 451 c 0,21,22
 472.7 340 472.7 340 509.6 286.5 c 128,-1,23
 546.5 233 546.5 233 622.1 233 c 0,0,1
1288.1 983 m 0,24,25
 1288.1 784 1288.1 784 1238.6 596 c 128,-1,26
 1189.1 408 1189.1 408 1100 266 c 0,27,28
 1009.1 120 1009.1 120 880.4 45.5 c 128,-1,29
 751.7 -29 751.7 -29 593.3 -29 c 0,30,31
 372.8 -29 372.8 -29 255.35 110 c 128,-1,32
 137.9 249 137.9 249 137.9 510 c 0,33,34
 137.9 706 137.9 706 186.95 894.5 c 128,-1,35
 236 1083 236 1083 324.2 1223 c 0,36,37
 416.9 1370 416.9 1370 544.7 1445 c 128,-1,38
 672.5 1520 672.5 1520 832.7 1520 c 0,39,40
 1051.4 1520 1051.4 1520 1169.75 1380.5 c 128,-1,41
 1288.1 1241 1288.1 1241 1288.1 983 c 0,24,25
EndSplineSet
EndChar
StartChar: one
Encoding: 49 49 20
Width: 1346
Flags: HW
Fore
190.5 266 m 1,0,-1
 496.5 266 l 1,1,-1
 664.8 1231 l 1,2,-1
 338.1 1159 l 1,3,-1
 384 1421 l 1,4,-1
 708.9 1493 l 1,5,-1
 1038.3 1493 l 1,6,-1
 825 266 l 1,7,-1
 1129.2 266 l 1,8,-1
 1083.3 0 l 1,9,-1
 142.8 0 l 1,10,-1
 190.5 266 l 1,0,-1
EndSplineSet
EndChar
StartChar: two
Encoding: 50 50 21
Width: 1348
Flags: HW
Fore
521.75 283 m 1,0,-1
 1105.85 283 l 1,1,-1
 1056.35 0 l 1,2,-1
 80.75 0 l 1,3,-1
 131.15 285 l 1,4,-1
 702.65 764 l 1,5,6
 796.25 844 796.25 844 845.3 926 c 128,-1,7
 894.35 1008 894.35 1008 894.35 1085 c 0,8,9
 894.35 1167 894.35 1167 843.95 1212 c 128,-1,10
 793.55 1257 793.55 1257 702.65 1257 c 0,11,12
 617.15 1257 617.15 1257 511.85 1219.5 c 128,-1,13
 406.55 1182 406.55 1182 274.25 1104 c 1,14,-1
 331.85 1421 l 1,15,16
 454.25 1471 454.25 1471 572.15 1495.5 c 128,-1,17
 690.05 1520 690.05 1520 805.25 1520 c 0,18,19
 1010.45 1520 1010.45 1520 1128.35 1421.5 c 128,-1,20
 1246.25 1323 1246.25 1323 1246.25 1153 c 0,21,22
 1246.25 1007 1246.25 1007 1174.25 887 c 128,-1,23
 1102.25 767 1102.25 767 857.45 563 c 2,24,-1
 521.75 283 l 1,0,-1
EndSplineSet
EndChar
StartChar: three
Encoding: 51 51 22
Width: 1347
Flags: HW
Fore
935.55 805 m 1,0,1
 1037.25 779 1037.25 779 1093.95 700 c 128,-1,2
 1150.65 621 1150.65 621 1150.65 506 c 0,3,4
 1150.65 258 1150.65 258 973.8 114.5 c 128,-1,5
 796.95 -29 796.95 -29 487.35 -29 c 0,6,7
 370.35 -29 370.35 -29 264.6 -10.5 c 128,-1,8
 158.85 8 158.85 8 65.25 45 c 1,9,-1
 116.55 342 l 1,10,11
 196.65 290 196.65 290 291.15 261.5 c 128,-1,12
 385.65 233 385.65 233 480.15 233 c 0,13,14
 632.25 233 632.25 233 720.9 296.5 c 128,-1,15
 809.55 360 809.55 360 809.55 467 c 0,16,17
 809.55 556 809.55 556 742.05 600.5 c 128,-1,18
 674.55 645 674.55 645 538.65 645 c 2,19,-1
 400.95 645 l 1,20,-1
 445.05 893 l 1,21,-1
 590.85 893 l 2,22,23
 732.15 893 732.15 893 814.5 950 c 128,-1,24
 896.85 1007 896.85 1007 896.85 1104 c 0,25,26
 896.85 1180 896.85 1180 839.7 1220 c 128,-1,27
 782.55 1260 782.55 1260 673.65 1260 c 0,28,29
 597.15 1260 597.15 1260 507.15 1238 c 128,-1,30
 417.15 1216 417.15 1216 319.95 1174 c 1,31,-1
 369.45 1456 l 1,32,33
 475.65 1488 475.65 1488 578.7 1504 c 128,-1,34
 681.75 1520 681.75 1520 782.55 1520 c 0,35,36
 1010.25 1520 1010.25 1520 1125 1436 c 128,-1,37
 1239.75 1352 1239.75 1352 1239.75 1186 c 0,38,39
 1239.75 1037 1239.75 1037 1160.1 937.5 c 128,-1,40
 1080.45 838 1080.45 838 935.55 805 c 1,0,1
EndSplineSet
EndChar
StartChar: four
Encoding: 52 52 23
Width: 1347
Flags: HW
Fore
824.5 1165 m 1,0,-1
 346.6 551 l 1,1,-1
 715.6 551 l 1,2,-1
 824.5 1165 l 1,0,-1
815.5 1493 m 1,3,-1
 1209.7 1493 l 1,4,-1
 1043.2 551 l 1,5,-1
 1234.9 551 l 1,6,-1
 1187.2 272 l 1,7,-1
 995.5 272 l 1,8,-1
 947.8 0 l 1,9,-1
 619.3 0 l 1,10,-1
 667.9 272 l 1,11,-1
 63.0996 272 l 1,12,-1
 121.6 602 l 1,13,-1
 815.5 1493 l 1,3,-1
EndSplineSet
EndChar
StartChar: five
Encoding: 53 53 24
Width: 1349
Flags: HW
Fore
393.1 1493 m 1,0,-1
 1254.4 1493 l 1,1,-1
 1204.9 1210 l 1,2,-1
 619.9 1210 l 1,3,-1
 579.4 979 l 1,4,5
 619 991 619 991 661.75 997.5 c 128,-1,6
 704.5 1004 704.5 1004 747.7 1004 c 0,7,8
 953.8 1004 953.8 1004 1069.9 899.5 c 128,-1,9
 1186 795 1186 795 1186 610 c 0,10,11
 1186 316 1186 316 1006.9 143.5 c 128,-1,12
 827.8 -29 827.8 -29 520.9 -29 c 0,13,14
 408.4 -29 408.4 -29 302.2 -4.5 c 128,-1,15
 196 20 196 20 91.5996 70 c 1,16,-1
 144.7 373 l 1,17,18
 244.6 301 244.6 301 338.65 267 c 128,-1,19
 432.7 233 432.7 233 529.9 233 c 0,20,21
 672.1 233 672.1 233 757.6 315.5 c 128,-1,22
 843.1 398 843.1 398 843.1 532 c 0,23,24
 843.1 628 843.1 628 778.3 684.5 c 128,-1,25
 713.5 741 713.5 741 601.9 741 c 0,26,27
 526.3 741 526.3 741 438.55 719.5 c 128,-1,28
 350.8 698 350.8 698 246.4 653 c 1,29,-1
 393.1 1493 l 1,0,-1
EndSplineSet
EndChar
StartChar: six
Encoding: 54 54 25
Width: 1355
Flags: HW
Fore
739.6 737 m 0,0,1
 637 737 637 737 571.3 643 c 128,-1,2
 505.6 549 505.6 549 505.6 401 c 0,3,4
 505.6 312 505.6 312 546.1 262.5 c 128,-1,5
 586.6 213 586.6 213 658.6 213 c 0,6,7
 760.3 213 760.3 213 826.45 305.5 c 128,-1,8
 892.6 398 892.6 398 892.6 539 c 0,9,10
 892.6 635 892.6 635 853 686 c 128,-1,11
 813.4 737 813.4 737 739.6 737 c 0,0,1
1289.5 1454 m 1,12,-1
 1240.9 1178 l 1,13,14
 1163.5 1222 1163.5 1222 1090.6 1244 c 128,-1,15
 1017.7 1266 1017.7 1266 944.8 1266 c 0,16,17
 777.4 1266 777.4 1266 673.9 1166 c 128,-1,18
 570.4 1066 570.4 1066 547.9 885 c 1,19,20
 618.1 936 618.1 936 692.35 960.5 c 128,-1,21
 766.6 985 766.6 985 850.3 985 c 0,22,23
 1015.9 985 1015.9 985 1121.2 876 c 128,-1,24
 1226.5 767 1226.5 767 1226.5 598 c 0,25,26
 1226.5 322 1226.5 322 1064.05 145.5 c 128,-1,27
 901.6 -31 901.6 -31 646 -31 c 0,28,29
 416.5 -31 416.5 -31 290.5 113.5 c 128,-1,30
 164.5 258 164.5 258 164.5 522 c 0,31,32
 164.5 726 164.5 726 220.3 911.5 c 128,-1,33
 276.1 1097 276.1 1097 376.9 1231 c 0,34,35
 484.9 1374 484.9 1374 632.05 1446 c 128,-1,36
 779.2 1518 779.2 1518 962.8 1518 c 0,37,38
 1047.4 1518 1047.4 1518 1127.5 1502 c 128,-1,39
 1207.6 1486 1207.6 1486 1289.5 1454 c 1,12,-1
EndSplineSet
EndChar
StartChar: seven
Encoding: 55 55 26
Width: 1361
Flags: HW
Fore
344.55 1493 m 1,0,-1
 1357.95 1493 l 1,1,-1
 1317.45 1274 l 1,2,-1
 569.55 0 l 1,3,-1
 223.05 0 l 1,4,-1
 934.05 1210 l 1,5,-1
 296.85 1210 l 1,6,-1
 344.55 1493 l 1,0,-1
EndSplineSet
EndChar
StartChar: eight
Encoding: 56 56 27
Width: 1352
Flags: HW
Fore
688.95 668 m 0,0,1
 583.65 668 583.65 668 513 588.5 c 128,-1,2
 442.35 509 442.35 509 442.35 393 c 0,3,4
 442.35 310 442.35 310 488.25 261.5 c 128,-1,5
 534.15 213 534.15 213 613.35 213 c 0,6,7
 720.45 213 720.45 213 790.65 291.5 c 128,-1,8
 860.85 370 860.85 370 860.85 487 c 0,9,10
 860.85 570 860.85 570 814.5 619 c 128,-1,11
 768.15 668 768.15 668 688.95 668 c 0,0,1
467.55 795 m 1,12,13
 370.35 840 370.35 840 322.2 912 c 128,-1,14
 274.05 984 274.05 984 274.05 1085 c 0,15,16
 274.05 1288 274.05 1288 423.9 1404 c 128,-1,17
 573.75 1520 573.75 1520 838.35 1520 c 0,18,19
 1050.75 1520 1050.75 1520 1167.75 1432 c 128,-1,20
 1284.75 1344 1284.75 1344 1284.75 1184 c 0,21,22
 1284.75 1042 1284.75 1042 1203.3 941 c 128,-1,23
 1121.85 840 1121.85 840 970.65 795 c 1,24,25
 1080.45 748 1080.45 748 1132.65 669 c 128,-1,26
 1184.85 590 1184.85 590 1184.85 469 c 0,27,28
 1184.85 239 1184.85 239 1023.3 105 c 128,-1,29
 861.75 -29 861.75 -29 580.05 -29 c 0,30,31
 357.75 -29 357.75 -29 234 69.5 c 128,-1,32
 110.25 168 110.25 168 110.25 344 c 0,33,34
 110.25 503 110.25 503 205.2 622.5 c 128,-1,35
 300.15 742 300.15 742 467.55 795 c 1,12,13
806.85 1278 m 0,36,37
 715.05 1278 715.05 1278 659.7 1218.5 c 128,-1,38
 604.35 1159 604.35 1159 604.35 1061 c 0,39,40
 604.35 993 604.35 993 644.4 951 c 128,-1,41
 684.45 909 684.45 909 750.15 909 c 0,42,43
 841.95 909 841.95 909 897.3 968.5 c 128,-1,44
 952.65 1028 952.65 1028 952.65 1126 c 0,45,46
 952.65 1195 952.65 1195 912.6 1236.5 c 128,-1,47
 872.55 1278 872.55 1278 806.85 1278 c 0,36,37
EndSplineSet
EndChar
StartChar: nine
Encoding: 57 57 28
Width: 1353
Flags: HW
Fore
146.55 33 m 1,0,-1
 194.25 309 l 1,1,2
 272.55 264 272.55 264 345.45 242.5 c 128,-1,3
 418.35 221 418.35 221 491.25 221 c 0,4,5
 658.65 221 658.65 221 762.15 321 c 128,-1,6
 865.65 421 865.65 421 887.25 602 c 1,7,8
 817.95 551 817.95 551 744.15 526.5 c 128,-1,9
 670.35 502 670.35 502 586.65 502 c 0,10,11
 421.95 502 421.95 502 316.65 611 c 128,-1,12
 211.35 720 211.35 720 211.35 889 c 0,13,14
 211.35 1165 211.35 1165 373.8 1341.5 c 128,-1,15
 536.25 1518 536.25 1518 791.85 1518 c 0,16,17
 1021.35 1518 1021.35 1518 1146.9 1373.5 c 128,-1,18
 1272.45 1229 1272.45 1229 1272.45 965 c 0,19,20
 1272.45 762 1272.45 762 1216.65 576.5 c 128,-1,21
 1160.85 391 1160.85 391 1059.15 256 c 0,22,23
 951.15 113 951.15 113 804.9 41 c 128,-1,24
 658.65 -31 658.65 -31 475.05 -31 c 0,25,26
 389.55 -31 389.55 -31 308.55 -15 c 128,-1,27
 227.55 1 227.55 1 146.55 33 c 1,0,-1
695.55 750 m 0,28,29
 798.15 750 798.15 750 863.85 844 c 128,-1,30
 929.55 938 929.55 938 929.55 1085 c 0,31,32
 929.55 1176 929.55 1176 890.4 1225 c 128,-1,33
 851.25 1274 851.25 1274 778.35 1274 c 0,34,35
 676.65 1274 676.65 1274 609.6 1181 c 128,-1,36
 542.55 1088 542.55 1088 542.55 948 c 0,37,38
 542.55 852 542.55 852 582.15 801 c 128,-1,39
 621.75 750 621.75 750 695.55 750 c 0,28,29
EndSplineSet
EndChar
StartChar: colon
Encoding: 58 58 29
Width: 774
Flags: HW
Fore
308.2 1120 m 1,0,-1
 633.1 1120 l 1,1,-1
 566.5 733 l 1,2,-1
 241.6 733 l 1,3,-1
 308.2 1120 l 1,0,-1
181.3 387 m 1,4,-1
 505.3 387 l 1,5,-1
 436.9 0 l 1,6,-1
 112.9 0 l 1,7,-1
 181.3 387 l 1,4,-1
EndSplineSet
EndChar
StartChar: semicolon
Encoding: 59 59 30
Width: 766
Flags: HW
Fore
173.5 387 m 1,0,-1
 497.5 387 l 1,1,-1
 444.4 82 l 1,2,-1
 156.4 -291 l 1,3,-1
 -35.2998 -291 l 1,4,-1
 119.5 82 l 1,5,-1
 173.5 387 l 1,0,-1
300.4 1120 m 1,6,-1
 625.3 1120 l 1,7,-1
 558.7 733 l 1,8,-1
 233.8 733 l 1,9,-1
 300.4 1120 l 1,6,-1
EndSplineSet
EndChar
StartChar: less
Encoding: 60 60 31
Width: 1630
Flags: HW
Fore
1434.9 973 m 1,0,-1
 567.3 641 l 1,1,-1
 1434.9 311 l 1,2,-1
 1434.9 61 l 1,3,-1
 281.1 524 l 1,4,-1
 281.1 760 l 1,5,-1
 1434.9 1223 l 1,6,-1
 1434.9 973 l 1,0,-1
EndSplineSet
EndChar
StartChar: equal
Encoding: 61 61 32
Width: 1630
Flags: HW
Fore
281.1 987 m 1,0,-1
 1434.9 987 l 1,1,-1
 1434.9 752 l 1,2,-1
 281.1 752 l 1,3,-1
 281.1 987 l 1,0,-1
281.1 532 m 1,4,-1
 1434.9 532 l 1,5,-1
 1434.9 295 l 1,6,-1
 281.1 295 l 1,7,-1
 281.1 532 l 1,4,-1
EndSplineSet
EndChar
StartChar: greater
Encoding: 62 62 33
Width: 1630
Flags: HW
Fore
281.1 973 m 1,0,-1
 281.1 1223 l 1,1,-1
 1434.9 760 l 1,2,-1
 1434.9 524 l 1,3,-1
 281.1 61 l 1,4,-1
 281.1 311 l 1,5,-1
 1149.6 641 l 1,6,-1
 281.1 973 l 1,0,-1
EndSplineSet
EndChar
StartChar: question
Encoding: 63 63 34
Width: 1136
Flags: HW
Fore
322.1 356 m 1,0,-1
 646.1 356 l 1,1,-1
 583.1 0 l 1,2,-1
 259.1 0 l 1,3,-1
 322.1 356 l 1,0,-1
672.2 504 m 1,4,-1
 347.3 504 l 1,5,-1
 354.5 553 l 1,6,7
 368.9 633 368.9 633 408.05 695.5 c 128,-1,8
 447.2 758 447.2 758 565.1 860 c 2,9,-1
 631.7 918 l 2,10,11
 702.8 979 702.8 979 735.2 1032 c 128,-1,12
 767.6 1085 767.6 1085 767.6 1139 c 0,13,14
 767.6 1196 767.6 1196 731.15 1226.5 c 128,-1,15
 694.7 1257 694.7 1257 626.3 1257 c 0,16,17
 554.3 1257 554.3 1257 463.85 1223.5 c 128,-1,18
 373.4 1190 373.4 1190 269.9 1124 c 1,19,-1
 325.7 1438 l 1,20,21
 440 1480 440 1480 534.5 1500 c 128,-1,22
 629 1520 629 1520 716.3 1520 c 0,23,24
 890.9 1520 890.9 1520 989.9 1434.5 c 128,-1,25
 1088.9 1349 1088.9 1349 1088.9 1200 c 0,26,27
 1088.9 1081 1088.9 1081 1041.2 987 c 128,-1,28
 993.5 893 993.5 893 878.3 791 c 2,29,-1
 809.9 731 l 2,30,31
 737.9 669 737.9 669 712.25 630.5 c 128,-1,32
 686.6 592 686.6 592 679.4 549 c 1,33,-1
 672.2 504 l 1,4,-1
EndSplineSet
EndChar
StartChar: at
Encoding: 64 64 35
Width: 1942
Flags: HW
Fore
1030.1 801 m 0,0,1
 934.7 801 934.7 801 866.3 696 c 128,-1,2
 797.9 591 797.9 591 797.9 446 c 0,3,4
 797.9 362 797.9 362 834.35 318 c 128,-1,5
 870.8 274 870.8 274 940.1 274 c 0,6,7
 1035.5 274 1035.5 274 1102.1 374.5 c 128,-1,8
 1168.7 475 1168.7 475 1168.7 621 c 0,9,10
 1168.7 707 1168.7 707 1132.7 754 c 128,-1,11
 1096.7 801 1096.7 801 1030.1 801 c 0,0,1
1131.8 246 m 1,12,13
 1091.3 171 1091.3 171 1023.8 129.5 c 128,-1,14
 956.3 88 956.3 88 875.3 88 c 0,15,16
 746.6 88 746.6 88 672.8 182.5 c 128,-1,17
 599 277 599 277 599 444 c 0,18,19
 599 665 599 665 726.8 826 c 128,-1,20
 854.6 987 854.6 987 1031.9 987 c 0,21,22
 1106.6 987 1106.6 987 1162.85 945 c 128,-1,23
 1219.1 903 1219.1 903 1237.1 834 c 1,24,-1
 1258.7 967 l 1,25,-1
 1441.4 967 l 1,26,-1
 1321.7 274 l 1,27,28
 1457.6 296 1457.6 296 1548.95 437.5 c 128,-1,29
 1640.3 579 1640.3 579 1640.3 770 c 0,30,31
 1640.3 983 1640.3 983 1492.25 1118 c 128,-1,32
 1344.2 1253 1344.2 1253 1107.5 1253 c 0,33,34
 931.1 1253 931.1 1253 779.45 1177 c 128,-1,35
 627.8 1101 627.8 1101 521.6 958 c 0,36,37
 438.8 848 438.8 848 395.6 716 c 128,-1,38
 352.4 584 352.4 584 352.4 442 c 0,39,40
 352.4 173 352.4 173 501.35 2.5 c 128,-1,41
 650.3 -168 650.3 -168 884.3 -168 c 0,42,43
 990.5 -168 990.5 -168 1094.45 -124.5 c 128,-1,44
 1198.4 -81 1198.4 -81 1292 2 c 1,45,-1
 1390.1 -156 l 1,46,47
 1258.7 -254 1258.7 -254 1130 -303 c 128,-1,48
 1001.3 -352 1001.3 -352 873.5 -352 c 0,49,50
 752 -352 752 -352 639.5 -311 c 128,-1,51
 527 -270 527 -270 438.8 -193 c 0,52,53
 312.8 -85 312.8 -85 247.55 74 c 128,-1,54
 182.3 233 182.3 233 182.3 434 c 0,55,56
 182.3 610 182.3 610 236.3 774 c 128,-1,57
 290.3 938 290.3 938 392.9 1075 c 0,58,59
 524.3 1251 524.3 1251 709.25 1345.5 c 128,-1,60
 894.2 1440 894.2 1440 1107.5 1440 c 0,61,62
 1256.9 1440 1256.9 1440 1383.8 1393.5 c 128,-1,63
 1510.7 1347 1510.7 1347 1610.6 1255 c 1,64,65
 1705.1 1166 1705.1 1166 1756.4 1046.5 c 128,-1,66
 1807.7 927 1807.7 927 1807.7 797 c 0,67,68
 1807.7 482 1807.7 482 1623.65 285 c 128,-1,69
 1439.6 88 1439.6 88 1140.8 88 c 0,70,71
 1136.3 88 1136.3 88 1128.2 87 c 128,-1,72
 1120.1 86 1120.1 86 1116.5 86 c 0,73,74
 1112 86 1112 86 1108.85 86.5 c 128,-1,75
 1105.7 87 1105.7 87 1103.9 88 c 1,76,-1
 1131.8 246 l 1,12,13
EndSplineSet
EndChar
StartChar: A
Encoding: 65 65 36
Width: 1490
Flags: HW
Fore
969.5 272 m 1,0,-1
 433.1 272 l 1,1,-1
 299.9 0 l 1,2,-1
 -55.5996 0 l 1,3,-1
 704 1493 l 1,4,-1
 1100 1493 l 1,5,-1
 1337.6 0 l 1,6,-1
 1008.2 0 l 1,7,-1
 969.5 272 l 1,0,-1
563.6 543 m 1,8,-1
 924.5 543 l 1,9,-1
 843.5 1118 l 1,10,-1
 563.6 543 l 1,8,-1
EndSplineSet
KernsSLIF: 7923 -149 0 0 563 -149 0 0 375 -149 0 0 7813 -92 0 0 7811 -92 0 0 7809 -92 0 0 373 -92 0 0 539 -112 0 0 355 -112 0 0 267 -63 0 0 265 -63 0 0 562 -235 0 0 7922 -235 0 0 374 -235 0 0 7812 -112 0 0 7810 -112 0 0 7808 -112 0 0 372 -112 0 0 370 -92 0 0 368 -92 0 0 364 -92 0 0 362 -92 0 0 360 -92 0 0 538 -196 0 0 354 -196 0 0 558 -63 0 0 492 -63 0 0 490 -63 0 0 336 -63 0 0 334 -63 0 0 332 -63 0 0 266 -63 0 0 264 -63 0 0 366 -92 0 0 357 -112 0 0 356 -196 0 0 271 -63 0 0 273 -63 0 0 269 -63 0 0 268 -63 0 0 263 -63 0 0 262 -63 0 0 253 -149 0 0 221 -235 0 0 217 -92 0 0 219 -92 0 0 218 -92 0 0 210 -63 0 0 212 -63 0 0 211 -63 0 0 8222 104 0 0 8218 104 0 0 376 -235 0 0 255 -149 0 0 8217 -253 0 0 8221 -253 0 0 338 -63 0 0 213 -63 0 0 216 -63 0 0 231 -63 0 0 220 -92 0 0 214 -63 0 0 199 -63 0 0 121 -149 0 0 119 -92 0 0 118 -112 0 0 116 -112 0 0 100 -63 0 0 99 -63 0 0 89 -235 0 0 87 -112 0 0 86 -139 0 0 85 -92 0 0 84 -196 0 0 79 -63 0 0 67 -63 0 0 59 38 0 0 58 38 0 0 46 38 0 0 44 38 0 0
EndChar
StartChar: B
Encoding: 66 66 37
Width: 1478
Flags: HW
Fore
810.85 915 m 2,0,1
 903.55 915 903.55 915 955.75 967 c 128,-1,2
 1007.95 1019 1007.95 1019 1007.95 1110 c 0,3,4
 1007.95 1169 1007.95 1169 971.5 1200 c 128,-1,5
 935.05 1231 935.05 1231 866.65 1231 c 2,6,-1
 673.15 1231 l 1,7,-1
 617.35 915 l 1,8,-1
 810.85 915 l 2,0,1
708.25 262 m 2,9,10
 827.05 262 827.05 262 890.95 325 c 128,-1,11
 954.85 388 954.85 388 954.85 506 c 0,12,13
 954.85 581 954.85 581 910.75 617 c 128,-1,14
 866.65 653 866.65 653 775.75 653 c 2,15,-1
 571.45 653 l 1,16,-1
 503.05 262 l 1,17,-1
 708.25 262 l 2,9,10
1118.65 799 m 1,18,19
 1206.85 771 1206.85 771 1255 696.5 c 128,-1,20
 1303.15 622 1303.15 622 1303.15 512 c 0,21,22
 1303.15 271 1303.15 271 1141.6 135.5 c 128,-1,23
 980.05 0 980.05 0 687.55 0 c 2,24,-1
 112.45 0 l 1,25,-1
 374.35 1493 l 1,26,-1
 893.65 1493 l 2,27,28
 1133.05 1493 1133.05 1493 1247.8 1415 c 128,-1,29
 1362.55 1337 1362.55 1337 1362.55 1174 c 0,30,31
 1362.55 1037 1362.55 1037 1295.05 933.5 c 128,-1,32
 1227.55 830 1227.55 830 1118.65 799 c 1,18,19
EndSplineSet
KernsSLIF: 7922 -112 0 0 562 -112 0 0 374 -112 0 0 7812 -112 0 0 7810 -112 0 0 7808 -112 0 0 372 -112 0 0 221 -112 0 0 376 -112 0 0 89 -112 0 0 87 -112 0 0 86 -83 0 0
EndChar
StartChar: C
Encoding: 67 67 38
Width: 1430
Flags: HW
Fore
1194.75 70 m 1,0,1
 1070.55 21 1070.55 21 956.25 -4 c 128,-1,2
 841.95 -29 841.95 -29 739.35 -29 c 0,3,4
 468.45 -29 468.45 -29 306.45 136 c 128,-1,5
 144.45 301 144.45 301 144.45 573 c 0,6,7
 144.45 752 144.45 752 195.75 910.5 c 128,-1,8
 247.05 1069 247.05 1069 346.95 1200 c 0,9,10
 464.85 1354 464.85 1354 630.9 1437 c 128,-1,11
 796.95 1520 796.95 1520 988.65 1520 c 0,12,13
 1093.05 1520 1093.05 1520 1198.35 1492.5 c 128,-1,14
 1303.65 1465 1303.65 1465 1412.55 1409 c 1,15,-1
 1356.75 1100 l 1,16,17
 1270.35 1173 1270.35 1173 1183.05 1207 c 128,-1,18
 1095.75 1241 1095.75 1241 995.85 1241 c 0,19,20
 787.95 1241 787.95 1241 647.55 1063 c 128,-1,21
 507.15 885 507.15 885 507.15 618 c 0,22,23
 507.15 446 507.15 446 593.55 348 c 128,-1,24
 679.95 250 679.95 250 832.05 250 c 0,25,26
 922.95 250 922.95 250 1025.1 286.5 c 128,-1,27
 1127.25 323 1127.25 323 1254.15 401 c 1,28,-1
 1194.75 70 l 1,0,1
EndSplineSet
KernsSLIF: 536 -73 0 0 348 -73 0 0 346 -73 0 0 350 -73 0 0 352 -73 0 0 83 -73 0 0
EndChar
StartChar: D
Encoding: 68 68 39
Width: 1612
Flags: HW
Fore
680.25 1202 m 1,0,-1
 519.15 291 l 1,1,-1
 643.35 291 l 2,2,3
 885.45 291 885.45 291 1026.75 442 c 128,-1,4
 1168.05 593 1168.05 593 1168.05 850 c 0,5,6
 1168.05 1024 1168.05 1024 1075.8 1113 c 128,-1,7
 983.55 1202 983.55 1202 801.75 1202 c 2,8,-1
 680.25 1202 l 1,0,-1
383.25 1493 m 1,9,-1
 747.75 1493 l 2,10,11
 1008.75 1493 1008.75 1493 1139.25 1458.5 c 128,-1,12
 1269.75 1424 1269.75 1424 1356.15 1343 c 0,13,14
 1443.45 1262 1443.45 1262 1487.55 1146.5 c 128,-1,15
 1531.65 1031 1531.65 1031 1531.65 885 c 0,16,17
 1531.65 682 1531.65 682 1456.5 502.5 c 128,-1,18
 1381.35 323 1381.35 323 1245.45 201 c 1,19,20
 1126.65 92 1126.65 92 969.6 46 c 128,-1,21
 812.55 0 812.55 0 486.75 0 c 2,22,-1
 121.35 0 l 1,23,-1
 383.25 1493 l 1,9,-1
EndSplineSet
KernsSLIF: 7922 -159 0 0 562 -159 0 0 374 -159 0 0 221 -159 0 0 8222 -36 0 0 8218 -36 0 0 376 -159 0 0 89 -159 0 0 45 38 0 0
EndChar
StartChar: E
Encoding: 69 69 40
Width: 1329
Flags: HW
Fore
371.35 1493 m 1,0,-1
 1305.55 1493 l 1,1,-1
 1254.25 1202 l 1,2,-1
 666.55 1202 l 1,3,-1
 617.95 924 l 1,4,-1
 1171.45 924 l 1,5,-1
 1119.25 633 l 1,6,-1
 566.65 633 l 1,7,-1
 507.25 291 l 1,8,-1
 1113.85 291 l 1,9,-1
 1064.35 0 l 1,10,-1
 109.45 0 l 1,11,-1
 371.35 1493 l 1,0,-1
EndSplineSet
EndChar
StartChar: F
Encoding: 70 70 41
Width: 1329
Flags: HW
Fore
371.35 1493 m 1,0,-1
 1305.55 1493 l 1,1,-1
 1254.25 1202 l 1,2,-1
 666.55 1202 l 1,3,-1
 617.95 924 l 1,4,-1
 1171.45 924 l 1,5,-1
 1119.25 633 l 1,6,-1
 566.65 633 l 1,7,-1
 455.95 0 l 1,8,-1
 109.45 0 l 1,9,-1
 371.35 1493 l 1,0,-1
EndSplineSet
KernsSLIF: 252 -196 0 0 229 -235 0 0 230 -235 0 0 59 -112 0 0 242 -159 0 0 45 -102 0 0 8222 -452 0 0 367 -196 0 0 245 -159 0 0 235 -159 0 0 249 -196 0 0 44 -444 0 0 224 -235 0 0 195 -264 0 0 234 -159 0 0 341 -225 0 0 232 -159 0 0 196 -264 0 0 193 -264 0 0 8217 -36 0 0 251 -196 0 0 253 -188 0 0 8218 -452 0 0 227 -235 0 0 194 -264 0 0 248 -159 0 0 244 -159 0 0 65 -264 0 0 97 -235 0 0 228 -235 0 0 246 -159 0 0 250 -196 0 0 225 -235 0 0 345 -225 0 0 46 -452 0 0 226 -235 0 0 233 -159 0 0 283 -159 0 0 101 -159 0 0 339 -159 0 0 255 -188 0 0 111 -159 0 0 114 -225 0 0 117 -196 0 0 192 -264 0 0 121 -188 0 0 58 -112 0 0 243 -159 0 0
EndChar
StartChar: G
Encoding: 71 71 42
Width: 1596
Flags: HW
Fore
1338.85 111 m 1,0,1
 1207.45 40 1207.45 40 1066.15 5.5 c 128,-1,2
 924.85 -29 924.85 -29 763.75 -29 c 0,3,4
 477.55 -29 477.55 -29 313.75 132.5 c 128,-1,5
 149.95 294 149.95 294 149.95 573 c 0,6,7
 149.95 754 149.95 754 201.25 912.5 c 128,-1,8
 252.55 1071 252.55 1071 354.25 1202 c 0,9,10
 478.45 1362 478.45 1362 647.2 1441 c 128,-1,11
 815.95 1520 815.95 1520 1032.85 1520 c 0,12,13
 1153.45 1520 1153.45 1520 1275.85 1492 c 128,-1,14
 1398.25 1464 1398.25 1464 1517.05 1409 c 1,15,-1
 1463.95 1100 l 1,16,17
 1354.15 1171 1354.15 1171 1249.3 1206 c 128,-1,18
 1144.45 1241 1144.45 1241 1038.25 1241 c 0,19,20
 806.05 1241 806.05 1241 660.25 1069 c 128,-1,21
 514.45 897 514.45 897 514.45 627 c 0,22,23
 514.45 448 514.45 448 599.5 349 c 128,-1,24
 684.55 250 684.55 250 839.35 250 c 0,25,26
 889.75 250 889.75 250 940.15 257.5 c 128,-1,27
 990.55 265 990.55 265 1041.85 281 c 1,28,-1
 1093.15 571 l 1,29,-1
 881.65 571 l 1,30,-1
 925.75 829 l 1,31,-1
 1463.95 829 l 1,32,-1
 1338.85 111 l 1,0,1
EndSplineSet
KernsSLIF: 356 -36 0 0 221 -83 0 0 376 -83 0 0 89 -83 0 0 84 -36 0 0
EndChar
StartChar: H
Encoding: 72 72 43
Width: 1628
Flags: HW
Fore
386.3 1493 m 1,0,-1
 732.8 1493 l 1,1,-1
 632.9 924 l 1,2,-1
 1144.1 924 l 1,3,-1
 1243.1 1493 l 1,4,-1
 1589.6 1493 l 1,5,-1
 1327.7 0 l 1,6,-1
 981.2 0 l 1,7,-1
 1091.9 633 l 1,8,-1
 581.6 633 l 1,9,-1
 470.9 0 l 1,10,-1
 124.4 0 l 1,11,-1
 386.3 1493 l 1,0,-1
EndSplineSet
EndChar
StartChar: I
Encoding: 73 73 44
Width: 723
Flags: HW
Fore
338.7 1493 m 1,0,-1
 685.2 1493 l 1,1,-1
 423.3 0 l 1,2,-1
 76.7998 0 l 1,3,-1
 338.7 1493 l 1,0,-1
EndSplineSet
EndChar
StartChar: J
Encoding: 74 74 45
Width: 704
Flags: HW
Fore
319.55 1493 m 1,0,-1
 666.05 1493 l 1,1,-1
 430.25 145 l 1,2,3
 378.05 -147 378.05 -147 225.5 -278.5 c 128,-1,4
 72.9502 -410 72.9502 -410 -216.85 -410 c 2,5,-1
 -287.05 -410 l 1,6,-1
 -235.75 -119 l 1,7,-1
 -181.75 -119 l 2,8,9
 -74.6504 -119 -74.6504 -119 -6.7002 -51.5 c 128,-1,10
 61.25 16 61.25 16 83.75 145 c 2,11,-1
 319.55 1493 l 1,0,-1
EndSplineSet
EndChar
StartChar: K
Encoding: 75 75 46
Width: 1516
Flags: HW
Fore
388.45 1493 m 1,0,-1
 734.95 1493 l 1,1,-1
 640.45 956 l 1,2,-1
 1211.95 1493 l 1,3,-1
 1630.45 1493 l 1,4,-1
 860.05 768 l 1,5,-1
 1440.55 0 l 1,6,-1
 1033.75 0 l 1,7,-1
 581.95 623 l 1,8,-1
 473.05 0 l 1,9,-1
 126.55 0 l 1,10,-1
 388.45 1493 l 1,0,-1
EndSplineSet
KernsSLIF: 367 -112 0 0 366 -73 0 0 283 -112 0 0 268 -131 0 0 262 -131 0 0 253 -206 0 0 217 -73 0 0 219 -73 0 0 218 -73 0 0 210 -131 0 0 212 -131 0 0 211 -131 0 0 8222 38 0 0 8218 38 0 0 255 -206 0 0 339 -112 0 0 338 -178 0 0 213 -131 0 0 248 -112 0 0 216 -55 0 0 252 -112 0 0 251 -112 0 0 249 -112 0 0 250 -112 0 0 245 -112 0 0 246 -112 0 0 244 -112 0 0 242 -112 0 0 243 -112 0 0 235 -112 0 0 234 -112 0 0 232 -112 0 0 233 -112 0 0 220 -73 0 0 214 -131 0 0 199 -131 0 0 121 -206 0 0 117 -112 0 0 111 -112 0 0 101 -112 0 0 87 -55 0 0 85 -73 0 0 79 -131 0 0 67 -131 0 0 45 -253 0 0
EndChar
StartChar: L
Encoding: 76 76 47
Width: 1234
Flags: HW
Fore
360.7 1493 m 1,0,-1
 707.2 1493 l 1,1,-1
 496.6 291 l 1,2,-1
 1103.2 291 l 1,3,-1
 1053.7 0 l 1,4,-1
 98.7998 0 l 1,5,-1
 360.7 1493 l 1,0,-1
EndSplineSet
KernsSLIF: 366 -112 0 0 356 -339 0 0 253 -253 0 0 221 -319 0 0 217 -112 0 0 219 -112 0 0 218 -112 0 0 210 -73 0 0 212 -73 0 0 211 -73 0 0 376 -319 0 0 255 -253 0 0 8217 -509 0 0 8221 -528 0 0 338 -73 0 0 213 -73 0 0 216 -73 0 0 220 -112 0 0 214 -73 0 0 121 -253 0 0 89 -319 0 0 87 -178 0 0 86 -282 0 0 85 -112 0 0 84 -339 0 0 79 -73 0 0
EndChar
StartChar: M
Encoding: 77 77 48
Width: 1936
Flags: HW
Fore
402.5 1493 m 1,0,-1
 828.2 1493 l 1,1,-1
 1001 700 l 1,2,-1
 1454.6 1493 l 1,3,-1
 1897.4 1493 l 1,4,-1
 1635.5 0 l 1,5,-1
 1307 0 l 1,6,-1
 1498.7 1102 l 1,7,-1
 1032.5 287 l 1,8,-1
 846.2 287 l 1,9,-1
 660.8 1102 l 1,10,-1
 469.1 0 l 1,11,-1
 140.6 0 l 1,12,-1
 402.5 1493 l 1,0,-1
EndSplineSet
EndChar
StartChar: N
Encoding: 78 78 49
Width: 1628
Flags: HW
Fore
386.3 1493 m 1,0,-1
 773.3 1493 l 1,1,-1
 1081.1 459 l 1,2,-1
 1262 1493 l 1,3,-1
 1589.6 1493 l 1,4,-1
 1327.7 0 l 1,5,-1
 940.7 0 l 1,6,-1
 632.9 1034 l 1,7,-1
 452.9 0 l 1,8,-1
 124.4 0 l 1,9,-1
 386.3 1493 l 1,0,-1
EndSplineSet
EndChar
StartChar: O
Encoding: 79 79 50
Width: 1653
Flags: HW
Fore
1221.05 881 m 0,0,1
 1221.05 1057 1221.05 1057 1149.5 1149 c 128,-1,2
 1077.95 1241 1077.95 1241 942.05 1241 c 0,3,4
 762.05 1241 762.05 1241 640.1 1061.5 c 128,-1,5
 518.15 882 518.15 882 518.15 612 c 0,6,7
 518.15 440 518.15 440 589.25 345 c 128,-1,8
 660.35 250 660.35 250 787.25 250 c 0,9,10
 890.75 250 890.75 250 971.3 298.5 c 128,-1,11
 1051.85 347 1051.85 347 1108.55 442 c 0,12,13
 1162.55 533 1162.55 533 1191.8 647 c 128,-1,14
 1221.05 761 1221.05 761 1221.05 881 c 0,0,1
992.45 1520 m 0,15,16
 1260.65 1520 1260.65 1520 1424 1354.5 c 128,-1,17
 1587.35 1189 1587.35 1189 1587.35 922 c 0,18,19
 1587.35 740 1587.35 740 1537.4 578 c 128,-1,20
 1487.45 416 1487.45 416 1392.05 287 c 0,21,22
 1275.05 128 1275.05 128 1115.3 49.5 c 128,-1,23
 955.55 -29 955.55 -29 746.75 -29 c 0,24,25
 479.45 -29 479.45 -29 316.55 136 c 128,-1,26
 153.65 301 153.65 301 153.65 569 c 0,27,28
 153.65 752 153.65 752 203.15 914 c 128,-1,29
 252.65 1076 252.65 1076 348.95 1206 c 0,30,31
 464.15 1364 464.15 1364 623.9 1442 c 128,-1,32
 783.65 1520 783.65 1520 992.45 1520 c 0,15,16
EndSplineSet
KernsSLIF: 221 -149 0 0 376 -149 0 0 89 -149 0 0 88 -73 0 0 86 -73 0 0 46 -45 0 0 45 38 0 0 44 -45 0 0
EndChar
StartChar: P
Encoding: 80 80 51
Width: 1426
Flags: HW
Fore
376.4 1493 m 1,0,-1
 951.5 1493 l 2,1,2
 1163 1493 1163 1493 1282.25 1385.5 c 128,-1,3
 1401.5 1278 1401.5 1278 1401.5 1087 c 0,4,5
 1401.5 970 1401.5 970 1361.9 864.5 c 128,-1,6
 1322.3 759 1322.3 759 1248.5 680 c 0,7,8
 1168.4 595 1168.4 595 1057.7 556.5 c 128,-1,9
 947 518 947 518 779.6 518 c 2,10,-1
 551 518 l 1,11,-1
 461 0 l 1,12,-1
 114.5 0 l 1,13,-1
 376.4 1493 l 1,0,-1
675.2 1214 m 1,14,-1
 601.4 797 l 1,15,-1
 793.1 797 l 2,16,17
 915.5 797 915.5 797 980.3 861 c 128,-1,18
 1045.1 925 1045.1 925 1045.1 1047 c 0,19,20
 1045.1 1128 1045.1 1128 998.75 1171 c 128,-1,21
 952.4 1214 952.4 1214 865.1 1214 c 2,22,-1
 675.2 1214 l 1,14,-1
EndSplineSet
KernsSLIF: 252 -73 0 0 229 -131 0 0 230 -131 0 0 45 -36 0 0 8222 -415 0 0 367 -73 0 0 235 -55 0 0 249 -73 0 0 44 -528 0 0 224 -131 0 0 195 -188 0 0 234 -55 0 0 341 -63 0 0 8221 38 0 0 232 -55 0 0 196 -188 0 0 193 -188 0 0 8217 57 0 0 251 -73 0 0 8218 -415 0 0 227 -131 0 0 194 -188 0 0 117 -73 0 0 353 -73 0 0 65 -188 0 0 97 -131 0 0 228 -131 0 0 250 -73 0 0 351 -73 0 0 225 -131 0 0 345 -63 0 0 226 -131 0 0 233 -55 0 0 283 -55 0 0 101 -55 0 0 115 -73 0 0 114 -63 0 0 46 -528 0 0 192 -188 0 0
EndChar
StartChar: Q
Encoding: 81 81 52
Width: 1653
Flags: HW
Fore
771.05 -27 m 1,0,1
 761.15 -28 761.15 -28 751.25 -28.5 c 128,-1,2
 741.35 -29 741.35 -29 718.85 -29 c 0,3,4
 617.15 -29 617.15 -29 527.15 2 c 128,-1,5
 437.15 33 437.15 33 363.35 94 c 0,6,7
 264.35 175 264.35 175 209 300.5 c 128,-1,8
 153.65 426 153.65 426 153.65 569 c 0,9,10
 153.65 752 153.65 752 203.6 914.5 c 128,-1,11
 253.55 1077 253.55 1077 348.95 1206 c 0,12,13
 465.05 1365 465.05 1365 623.9 1442.5 c 128,-1,14
 782.75 1520 782.75 1520 992.45 1520 c 0,15,16
 1260.65 1520 1260.65 1520 1424 1354.5 c 128,-1,17
 1587.35 1189 1587.35 1189 1587.35 922 c 0,18,19
 1587.35 608 1587.35 608 1450.1 371.5 c 128,-1,20
 1312.85 135 1312.85 135 1068.05 27 c 1,21,-1
 1274.15 -299 l 1,22,-1
 943.85 -299 l 1,23,-1
 771.05 -27 l 1,0,1
1221.05 881 m 0,24,25
 1221.05 1057 1221.05 1057 1149.5 1149 c 128,-1,26
 1077.95 1241 1077.95 1241 942.05 1241 c 0,27,28
 762.05 1241 762.05 1241 640.1 1061.5 c 128,-1,29
 518.15 882 518.15 882 518.15 612 c 0,30,31
 518.15 440 518.15 440 589.25 345 c 128,-1,32
 660.35 250 660.35 250 787.25 250 c 0,33,34
 890.75 250 890.75 250 971.3 298.5 c 128,-1,35
 1051.85 347 1051.85 347 1108.55 442 c 0,36,37
 1162.55 533 1162.55 533 1191.8 647 c 128,-1,38
 1221.05 761 1221.05 761 1221.05 881 c 0,24,25
EndSplineSet
KernsSLIF: 45 38 0 0
EndChar
StartChar: R
Encoding: 82 82 53
Width: 1491
Flags: HW
Fore
749.1 831 m 2,0,1
 867 831 867 831 927.75 892 c 128,-1,2
 988.5 953 988.5 953 988.5 1071 c 0,3,4
 988.5 1145 988.5 1145 946.65 1179.5 c 128,-1,5
 904.8 1214 904.8 1214 814.8 1214 c 2,6,-1
 671.7 1214 l 1,7,-1
 603.3 831 l 1,8,-1
 749.1 831 l 2,0,1
557.4 565 m 1,9,-1
 457.5 0 l 1,10,-1
 111 0 l 1,11,-1
 372.9 1493 l 1,12,-1
 885 1493 l 2,13,14
 1106.4 1493 1106.4 1493 1220.7 1401 c 128,-1,15
 1335 1309 1335 1309 1335 1130 c 0,16,17
 1335 949 1335 949 1245 832 c 128,-1,18
 1155 715 1155 715 1001.1 698 c 1,19,20
 1071.3 682 1071.3 682 1118.1 618.5 c 128,-1,21
 1164.9 555 1164.9 555 1200 424 c 2,22,-1
 1314.3 0 l 1,23,-1
 969.6 0 l 1,24,-1
 868.8 371 l 1,25,26
 838.2 482 838.2 482 794.55 523.5 c 128,-1,27
 750.9 565 750.9 565 668.1 565 c 2,28,-1
 557.4 565 l 1,9,-1
EndSplineSet
KernsSLIF: 367 -112 0 0 356 -92 0 0 283 -102 0 0 253 -131 0 0 221 -188 0 0 376 -188 0 0 255 -131 0 0 339 -102 0 0 248 -102 0 0 252 -112 0 0 251 -112 0 0 249 -112 0 0 250 -112 0 0 245 -102 0 0 246 -102 0 0 244 -102 0 0 242 -102 0 0 243 -102 0 0 235 -102 0 0 234 -102 0 0 232 -102 0 0 233 -102 0 0 121 -131 0 0 117 -112 0 0 111 -102 0 0 101 -102 0 0 89 -188 0 0 84 -92 0 0 46 38 0 0 44 38 0 0
EndChar
StartChar: S
Encoding: 83 83 54
Width: 1397
Flags: HW
Fore
1295.45 1446 m 1,0,-1
 1239.65 1130 l 1,1,2
 1137.95 1186 1137.95 1186 1038.95 1213.5 c 128,-1,3
 939.95 1241 939.95 1241 845.45 1241 c 0,4,5
 715.85 1241 715.85 1241 643.4 1196 c 128,-1,6
 570.95 1151 570.95 1151 570.95 1071 c 0,7,8
 570.95 1020 570.95 1020 602.9 991.5 c 128,-1,9
 634.85 963 634.85 963 734.75 936 c 2,10,-1
 876.95 897 l 2,11,12
 1055.15 847 1055.15 847 1138.4 752.5 c 128,-1,13
 1221.65 658 1221.65 658 1221.65 508 c 0,14,15
 1221.65 265 1221.65 265 1055.6 118 c 128,-1,16
 889.55 -29 889.55 -29 609.65 -29 c 0,17,18
 479.15 -29 479.15 -29 350 -2 c 128,-1,19
 220.85 25 220.85 25 97.5498 78 c 1,20,-1
 152.45 403 l 1,21,22
 272.15 326 272.15 326 385.1 288 c 128,-1,23
 498.05 250 498.05 250 607.85 250 c 0,24,25
 726.65 250 726.65 250 800.9 304 c 128,-1,26
 875.15 358 875.15 358 875.15 442 c 0,27,28
 875.15 497 875.15 497 841.85 527.5 c 128,-1,29
 808.55 558 808.55 558 696.05 590 c 2,30,-1
 554.75 629 l 2,31,32
 398.15 672 398.15 672 321.65 765 c 128,-1,33
 245.15 858 245.15 858 245.15 1006 c 0,34,35
 245.15 1239 245.15 1239 405.8 1379.5 c 128,-1,36
 566.45 1520 566.45 1520 838.25 1520 c 0,37,38
 947.15 1520 947.15 1520 1061.9 1501.5 c 128,-1,39
 1176.65 1483 1176.65 1483 1295.45 1446 c 1,0,-1
EndSplineSet
KernsSLIF: 350 -73 0 0 352 -73 0 0 83 -73 0 0
EndChar
StartChar: T
Encoding: 84 84 55
Width: 1338
Flags: HW
Fore
221.9 1493 m 1,0,-1
 1460.3 1493 l 1,1,-1
 1409 1202 l 1,2,-1
 962.6 1202 l 1,3,-1
 752 0 l 1,4,-1
 405.5 0 l 1,5,-1
 616.1 1202 l 1,6,-1
 169.7 1202 l 1,7,-1
 221.9 1493 l 1,0,-1
EndSplineSet
KernsSLIF: 252 -264 0 0 229 -243 0 0 230 -243 0 0 59 -112 0 0 242 -264 0 0 45 -301 0 0 8222 -301 0 0 367 -264 0 0 245 -264 0 0 235 -264 0 0 249 -264 0 0 58 -112 0 0 224 -243 0 0 195 -159 0 0 234 -264 0 0 231 -264 0 0 341 -225 0 0 232 -264 0 0 196 -159 0 0 193 -159 0 0 269 -264 0 0 345 -225 0 0 251 -264 0 0 253 -339 0 0 8218 -301 0 0 227 -243 0 0 194 -159 0 0 248 -264 0 0 244 -264 0 0 353 -243 0 0 65 -159 0 0 283 -264 0 0 351 -243 0 0 228 -243 0 0 119 -282 0 0 246 -264 0 0 250 -264 0 0 263 -264 0 0 225 -243 0 0 46 -348 0 0 84 47 0 0 226 -243 0 0 233 -264 0 0 356 47 0 0 97 -243 0 0 99 -264 0 0 101 -264 0 0 339 -264 0 0 255 -339 0 0 111 -264 0 0 115 -243 0 0 114 -225 0 0 117 -264 0 0 192 -159 0 0 121 -339 0 0 44 -329 0 0 243 -264 0 0
EndChar
StartChar: U
Encoding: 85 85 56
Width: 1584
Flags: HW
Fore
388.55 1493 m 1,0,-1
 735.05 1493 l 1,1,-1
 578.45 599 l 1,2,3
 569.45 551 569.45 551 565.4 514 c 128,-1,4
 561.35 477 561.35 477 561.35 449 c 0,5,6
 561.35 351 561.35 351 608.6 302.5 c 128,-1,7
 655.85 254 655.85 254 749.45 254 c 0,8,9
 875.45 254 875.45 254 942.95 332.5 c 128,-1,10
 1010.45 411 1010.45 411 1042.85 598 c 1,11,-1
 1199.45 1493 l 1,12,-1
 1545.95 1493 l 1,13,-1
 1389.35 598 l 1,14,15
 1330.85 268 1330.85 268 1167.5 119.5 c 128,-1,16
 1004.15 -29 1004.15 -29 699.95 -29 c 0,17,18
 461.45 -29 461.45 -29 337.25 84.5 c 128,-1,19
 213.05 198 213.05 198 213.05 414 c 0,20,21
 213.05 450 213.05 450 217.55 494.5 c 128,-1,22
 222.05 539 222.05 539 231.95 598 c 1,23,-1
 388.55 1493 l 1,0,-1
EndSplineSet
KernsSLIF: 193 -92 0 0 194 -92 0 0 195 -92 0 0 192 -92 0 0 196 -92 0 0 65 -92 0 0
EndChar
StartChar: V
Encoding: 86 86 57
Width: 1520
Flags: HW
Fore
234.2 1493 m 1,0,-1
 563.6 1493 l 1,1,-1
 728.3 377 l 1,2,-1
 1284.5 1493 l 1,3,-1
 1641.8 1493 l 1,4,-1
 883.1 0 l 1,5,-1
 470 0 l 1,6,-1
 234.2 1493 l 1,0,-1
EndSplineSet
KernsSLIF: 367 -149 0 0 283 -149 0 0 210 -36 0 0 212 -36 0 0 211 -36 0 0 193 -139 0 0 194 -139 0 0 8222 -272 0 0 8218 -272 0 0 339 -149 0 0 338 -45 0 0 213 -36 0 0 195 -139 0 0 192 -139 0 0 248 -149 0 0 230 -159 0 0 216 -36 0 0 252 -149 0 0 251 -149 0 0 249 -149 0 0 250 -149 0 0 245 -149 0 0 246 -149 0 0 244 -149 0 0 242 -149 0 0 243 -149 0 0 235 -149 0 0 234 -149 0 0 232 -149 0 0 233 -149 0 0 229 -159 0 0 227 -159 0 0 228 -159 0 0 226 -159 0 0 224 -159 0 0 225 -159 0 0 214 -36 0 0 196 -139 0 0 117 -149 0 0 111 -149 0 0 105 -36 0 0 101 -149 0 0 97 -159 0 0 79 -36 0 0 65 -139 0 0 59 -92 0 0 58 -92 0 0 46 -319 0 0 45 -149 0 0 44 -319 0 0
EndChar
StartChar: W
Encoding: 87 87 58
Width: 2161
Flags: HW
Fore
325.1 1493 m 1,0,-1
 645.5 1493 l 1,1,-1
 686.9 408 l 1,2,-1
 1109 1493 l 1,3,-1
 1438.4 1493 l 1,4,-1
 1482.5 408 l 1,5,-1
 1890.2 1493 l 1,6,-1
 2234.9 1493 l 1,7,-1
 1656.2 0 l 1,8,-1
 1263.8 0 l 1,9,-1
 1218.8 1135 l 1,10,-1
 784.1 0 l 1,11,-1
 382.7 0 l 1,12,-1
 325.1 1493 l 1,0,-1
EndSplineSet
KernsSLIF: 229 -139 0 0 230 -139 0 0 59 -63 0 0 242 -112 0 0 45 -92 0 0 46 -178 0 0 245 -112 0 0 235 -131 0 0 44 -178 0 0 224 -139 0 0 195 -73 0 0 234 -131 0 0 341 -120 0 0 232 -131 0 0 196 -73 0 0 193 -73 0 0 227 -139 0 0 194 -73 0 0 248 -112 0 0 244 -112 0 0 65 -73 0 0 97 -139 0 0 228 -139 0 0 246 -112 0 0 225 -139 0 0 345 -120 0 0 226 -139 0 0 233 -131 0 0 283 -131 0 0 101 -131 0 0 339 -112 0 0 111 -112 0 0 114 -120 0 0 192 -73 0 0 58 -63 0 0 243 -112 0 0
EndChar
StartChar: X
Encoding: 88 88 59
Width: 1499
Flags: HW
Fore
992.35 756 m 1,0,-1
 1321.75 0 l 1,1,-1
 969.85 0 l 1,2,-1
 751.15 500 l 1,3,-1
 357.85 0 l 1,4,-1
 -15.6504 0 l 1,5,-1
 588.25 766 l 1,6,-1
 269.65 1493 l 1,7,-1
 623.35 1493 l 1,8,-1
 830.35 1024 l 1,9,-1
 1198.45 1493 l 1,10,-1
 1574.65 1493 l 1,11,-1
 992.35 756 l 1,0,-1
EndSplineSet
KernsSLIF: 283 -131 0 0 268 -73 0 0 262 -73 0 0 210 -73 0 0 212 -73 0 0 211 -73 0 0 338 -112 0 0 213 -73 0 0 216 -73 0 0 235 -131 0 0 234 -131 0 0 232 -131 0 0 233 -131 0 0 214 -73 0 0 199 -73 0 0 101 -131 0 0 79 -73 0 0 67 -73 0 0 45 -243 0 0
EndChar
StartChar: Y
Encoding: 89 89 60
Width: 1424
Flags: HW
Fore
205.4 1493 m 1,0,-1
 551.9 1493 l 1,1,-1
 780.5 940 l 1,2,-1
 1180.1 1493 l 1,3,-1
 1580.6 1493 l 1,4,-1
 917.3 623 l 1,5,-1
 808.4 0 l 1,6,-1
 461.9 0 l 1,7,-1
 570.8 623 l 1,8,-1
 205.4 1493 l 1,0,-1
EndSplineSet
KernsSLIF: 367 -225 0 0 283 -264 0 0 268 -73 0 0 262 -73 0 0 210 -73 0 0 212 -73 0 0 211 -73 0 0 193 -196 0 0 194 -196 0 0 8222 -405 0 0 8218 -376 0 0 339 -264 0 0 338 -120 0 0 213 -73 0 0 195 -196 0 0 192 -196 0 0 248 -264 0 0 230 -243 0 0 216 -73 0 0 252 -225 0 0 251 -225 0 0 249 -225 0 0 250 -225 0 0 245 -264 0 0 246 -264 0 0 244 -264 0 0 242 -264 0 0 243 -264 0 0 235 -264 0 0 234 -264 0 0 232 -264 0 0 233 -264 0 0 229 -243 0 0 227 -243 0 0 228 -243 0 0 226 -243 0 0 224 -243 0 0 225 -243 0 0 214 -73 0 0 199 -73 0 0 196 -196 0 0 117 -225 0 0 111 -264 0 0 101 -264 0 0 97 -243 0 0 79 -73 0 0 67 -73 0 0 65 -196 0 0 59 -178 0 0 58 -178 0 0 46 -339 0 0 45 -301 0 0 44 -339 0 0
EndChar
StartChar: Z
Encoding: 90 90 61
Width: 1409
Flags: HW
Fore
307.15 1493 m 1,0,-1
 1437.55 1493 l 1,1,-1
 1394.35 1255 l 1,2,-1
 523.15 291 l 1,3,-1
 1247.65 291 l 1,4,-1
 1195.45 0 l 1,5,-1
 25.4502 0 l 1,6,-1
 65.9502 238 l 1,7,-1
 939.85 1202 l 1,8,-1
 255.85 1202 l 1,9,-1
 307.15 1493 l 1,0,-1
EndSplineSet
KernsSLIF: 45 -149 0 0
EndChar
StartChar: bracketleft
Encoding: 91 91 62
Width: 889
Flags: HW
Fore
347.3 1556 m 1,0,-1
 905.3 1556 l 1,1,-1
 864.8 1331 l 1,2,-1
 614.6 1331 l 1,3,-1
 372.5 -45 l 1,4,-1
 625.4 -45 l 1,5,-1
 584.9 -270 l 1,6,-1
 28.7002 -270 l 1,7,-1
 347.3 1556 l 1,0,-1
EndSplineSet
EndChar
StartChar: backslash
Encoding: 92 92 63
Width: 708
Flags: HW
Fore
345.1 -190 m 1,0,-1
 166 1493 l 1,1,-1
 365.8 1493 l 1,2,-1
 544 -190 l 1,3,-1
 345.1 -190 l 1,0,-1
EndSplineSet
EndChar
StartChar: bracketright
Encoding: 93 93 64
Width: 885
Flags: HW
Fore
549.75 -270 m 1,0,-1
 -8.25 -270 l 1,1,-1
 30.4502 -45 l 1,2,-1
 282.45 -45 l 1,3,-1
 524.55 1331 l 1,4,-1
 271.65 1331 l 1,5,-1
 310.35 1556 l 1,6,-1
 869.25 1556 l 1,7,-1
 549.75 -270 l 1,0,-1
EndSplineSet
EndChar
StartChar: asciicircum
Encoding: 94 94 65
Width: 1630
Flags: HW
Fore
968.7 1493 m 1,0,-1
 1443.9 936 l 1,1,-1
 1227 936 l 1,2,-1
 858 1237 l 1,3,-1
 489.9 936 l 1,4,-1
 272.1 936 l 1,5,-1
 747.3 1493 l 1,6,-1
 968.7 1493 l 1,0,-1
EndSplineSet
EndChar
StartChar: underscore
Encoding: 95 95 66
Width: 972
Flags: HW
Fore
990.8 -225 m 1,0,-1
 990.8 -483 l 1,1,-1
 33.2002 -483 l 1,2,-1
 33.2002 -225 l 1,3,-1
 990.8 -225 l 1,0,-1
EndSplineSet
EndChar
StartChar: grave
Encoding: 96 96 67
Width: 973
Flags: HW
Fore
547.3 1638 m 1,0,-1
 735.4 1262 l 1,1,-1
 558.1 1262 l 1,2,-1
 292.6 1638 l 1,3,-1
 547.3 1638 l 1,0,-1
EndSplineSet
EndChar
StartChar: a
Encoding: 97 97 68
Width: 1308
Flags: HW
Fore
670.9 504 m 2,0,1
 550.3 504 550.3 504 488.65 462.5 c 128,-1,2
 427 421 427 421 427 340 c 0,3,4
 427 279 427 279 463.45 244 c 128,-1,5
 499.9 209 499.9 209 563.8 209 c 0,6,7
 662.8 209 662.8 209 729.4 275.5 c 128,-1,8
 796 342 796 342 818.5 463 c 1,9,-1
 825.7 504 l 1,10,-1
 670.9 504 l 2,0,1
1174 639 m 2,11,-1
 1061.5 0 l 1,12,-1
 739.3 0 l 1,13,-1
 766.3 166 l 1,14,15
 687.1 66 687.1 66 598.9 18.5 c 128,-1,16
 510.7 -29 510.7 -29 407.2 -29 c 0,17,18
 264.1 -29 264.1 -29 179.95 53.5 c 128,-1,19
 95.7998 136 95.7998 136 95.7998 276 c 0,20,21
 95.7998 490 95.7998 490 244.75 603.5 c 128,-1,22
 393.7 717 393.7 717 674.5 717 c 2,23,-1
 864.4 717 l 1,24,-1
 868 745 l 1,25,26
 870.7 759 870.7 759 871.15 765 c 128,-1,27
 871.6 771 871.6 771 871.6 776 c 0,28,29
 871.6 842 871.6 842 815.35 875.5 c 128,-1,30
 759.1 909 759.1 909 648.4 909 c 0,31,32
 548.5 909 548.5 909 454.9 886 c 128,-1,33
 361.3 863 361.3 863 274 817 c 1,34,-1
 322.6 1090 l 1,35,36
 423.4 1118 423.4 1118 529.15 1132.5 c 128,-1,37
 634.9 1147 634.9 1147 748.3 1147 c 0,38,39
 972.4 1147 972.4 1147 1081.3 1061.5 c 128,-1,40
 1190.2 976 1190.2 976 1190.2 801 c 0,41,42
 1190.2 767 1190.2 767 1186.15 726.5 c 128,-1,43
 1182.1 686 1182.1 686 1174 639 c 2,11,-1
EndSplineSet
KernsSLIF: 253 -63 0 0 255 -63 0 0 121 -63 0 0
EndChar
StartChar: b
Encoding: 98 98 69
Width: 1391
Flags: HW
Fore
820.35 887 m 0,0,1
 696.15 887 696.15 887 617.4 759.5 c 128,-1,2
 538.65 632 538.65 632 538.65 428 c 0,3,4
 538.65 336 538.65 336 583.2 283.5 c 128,-1,5
 627.75 231 627.75 231 706.95 231 c 0,6,7
 828.45 231 828.45 231 907.65 356.5 c 128,-1,8
 986.85 482 986.85 482 986.85 678 c 0,9,10
 986.85 780 986.85 780 944.1 833.5 c 128,-1,11
 901.35 887 901.35 887 820.35 887 c 0,0,1
481.95 162 m 1,12,-1
 452.25 0 l 1,13,-1
 129.15 0 l 1,14,-1
 400.95 1556 l 1,15,-1
 724.95 1556 l 1,16,-1
 619.65 956 l 1,17,18
 693.45 1054 693.45 1054 774.45 1100.5 c 128,-1,19
 855.45 1147 855.45 1147 951.75 1147 c 0,20,21
 1121.85 1147 1121.85 1147 1220.85 1027 c 128,-1,22
 1319.85 907 1319.85 907 1319.85 700 c 0,23,24
 1319.85 571 1319.85 571 1285.2 449 c 128,-1,25
 1250.55 327 1250.55 327 1185.75 227 c 0,26,27
 1103.85 101 1103.85 101 1000.8 36 c 128,-1,28
 897.75 -29 897.75 -29 779.85 -29 c 0,29,30
 676.35 -29 676.35 -29 603.9 17.5 c 128,-1,31
 531.45 64 531.45 64 481.95 162 c 1,12,-1
EndSplineSet
EndChar
StartChar: c
Encoding: 99 99 70
Width: 1155
Flags: HW
Fore
1134.3 1085 m 1,0,-1
 1083 793 l 1,1,2
 1018.2 841 1018.2 841 955.2 866 c 128,-1,3
 892.2 891 892.2 891 831.9 891 c 0,4,5
 674.4 891 674.4 891 574.5 773.5 c 128,-1,6
 474.6 656 474.6 656 474.6 473 c 0,7,8
 474.6 356 474.6 356 536.7 291.5 c 128,-1,9
 598.8 227 598.8 227 712.2 227 c 0,10,11
 787.8 227 787.8 227 860.7 252 c 128,-1,12
 933.6 277 933.6 277 999.3 326 c 1,13,-1
 949.8 33 l 1,14,15
 869.7 2 869.7 2 788.7 -13.5 c 128,-1,16
 707.7 -29 707.7 -29 625.8 -29 c 0,17,18
 388.2 -29 388.2 -29 259.95 89.5 c 128,-1,19
 131.7 208 131.7 208 131.7 426 c 0,20,21
 131.7 563 131.7 563 178.95 692 c 128,-1,22
 226.2 821 226.2 821 314.4 924 c 0,23,24
 412.5 1037 412.5 1037 539.4 1092 c 128,-1,25
 666.3 1147 666.3 1147 831.9 1147 c 0,26,27
 908.4 1147 908.4 1147 984 1131.5 c 128,-1,28
 1059.6 1116 1059.6 1116 1134.3 1085 c 1,0,-1
EndSplineSet
EndChar
StartChar: d
Encoding: 100 100 71
Width: 1397
Flags: HW
Fore
643.95 231 m 0,0,1
 768.15 231 768.15 231 846 358 c 128,-1,2
 923.85 485 923.85 485 923.85 690 c 0,3,4
 923.85 783 923.85 783 880.2 835 c 128,-1,5
 836.55 887 836.55 887 758.25 887 c 0,6,7
 635.85 887 635.85 887 556.65 761.5 c 128,-1,8
 477.45 636 477.45 636 477.45 440 c 0,9,10
 477.45 338 477.45 338 520.2 284.5 c 128,-1,11
 562.95 231 562.95 231 643.95 231 c 0,0,1
983.25 956 m 1,12,-1
 1087.65 1556 l 1,13,-1
 1412.55 1556 l 1,14,-1
 1139.85 0 l 1,15,-1
 814.95 0 l 1,16,-1
 844.65 162 l 1,17,18
 770.85 64 770.85 64 689.85 17.5 c 128,-1,19
 608.85 -29 608.85 -29 512.55 -29 c 0,20,21
 342.45 -29 342.45 -29 243.45 91 c 128,-1,22
 144.45 211 144.45 211 144.45 418 c 0,23,24
 144.45 547 144.45 547 179.1 669 c 128,-1,25
 213.75 791 213.75 791 278.55 891 c 0,26,27
 360.45 1017 360.45 1017 463.5 1082 c 128,-1,28
 566.55 1147 566.55 1147 684.45 1147 c 0,29,30
 787.95 1147 787.95 1147 860.4 1100.5 c 128,-1,31
 932.85 1054 932.85 1054 983.25 956 c 1,12,-1
EndSplineSet
EndChar
StartChar: e
Encoding: 101 101 72
Width: 1319
Flags: HW
Fore
1228.45 518 m 1,0,-1
 1217.65 461 l 1,1,-1
 463.45 461 l 1,2,3
 463.45 455 463.45 455 462.55 443.5 c 128,-1,4
 461.65 432 461.65 432 461.65 426 c 0,5,6
 461.65 317 461.65 317 520.6 263 c 128,-1,7
 579.55 209 579.55 209 697.45 209 c 0,8,9
 799.15 209 799.15 209 912.1 243 c 128,-1,10
 1025.05 277 1025.05 277 1149.25 344 c 1,11,-1
 1099.75 66 l 1,12,13
 981.85 18 981.85 18 865.3 -5.5 c 128,-1,14
 748.75 -29 748.75 -29 628.15 -29 c 0,15,16
 392.35 -29 392.35 -29 264.1 92 c 128,-1,17
 135.85 213 135.85 213 135.85 434 c 0,18,19
 135.85 562 135.85 562 176.8 682.5 c 128,-1,20
 217.75 803 217.75 803 296.05 903 c 0,21,22
 388.75 1023 388.75 1023 517.9 1085 c 128,-1,23
 647.05 1147 647.05 1147 804.55 1147 c 0,24,25
 1008.85 1147 1008.85 1147 1129 1026 c 128,-1,26
 1249.15 905 1249.15 905 1249.15 700 c 0,27,28
 1249.15 660 1249.15 660 1244.2 615.5 c 128,-1,29
 1239.25 571 1239.25 571 1228.45 518 c 1,0,-1
924.25 682 m 1,30,31
 926.95 695 926.95 695 928.3 708.5 c 128,-1,32
 929.65 722 929.65 722 929.65 735 c 0,33,34
 929.65 815 929.65 815 886.45 862 c 128,-1,35
 843.25 909 843.25 909 769.45 909 c 0,36,37
 674.95 909 674.95 909 608.8 851.5 c 128,-1,38
 542.65 794 542.65 794 507.55 682 c 1,39,-1
 924.25 682 l 1,30,31
EndSplineSet
EndChar
StartChar: f
Encoding: 102 102 73
Width: 862
Flags: HW
Fore
1055.8 1556 m 1,0,-1
 1013.5 1321 l 1,1,-1
 836.2 1321 l 2,2,3
 768.7 1321 768.7 1321 737.65 1293.5 c 128,-1,4
 706.6 1266 706.6 1266 694.9 1199 c 1,5,-1
 679.6 1120 l 1,6,-1
 952.3 1120 l 1,7,-1
 908.2 864 l 1,8,-1
 635.5 864 l 1,9,-1
 484.3 0 l 1,10,-1
 160.3 0 l 1,11,-1
 311.5 864 l 1,12,-1
 152.2 864 l 1,13,-1
 197.2 1120 l 1,14,-1
 355.6 1120 l 1,15,-1
 370 1198 l 1,16,17
 403.3 1384 403.3 1384 508.6 1470 c 128,-1,18
 613.9 1556 613.9 1556 808.3 1556 c 2,19,-1
 1055.8 1556 l 1,0,-1
EndSplineSet
KernsSLIF: 8217 141 0 0 8221 86 0 0 46 -112 0 0 45 -36 0 0 44 -112 0 0
EndChar
StartChar: g
Encoding: 103 103 74
Width: 1391
Flags: HW
Fore
842.3 190 m 1,0,1
 764.9 92 764.9 92 684.8 46 c 128,-1,2
 604.7 0 604.7 0 510.2 0 c 0,3,4
 339.2 0 339.2 0 239.75 122.5 c 128,-1,5
 140.3 245 140.3 245 140.3 457 c 0,6,7
 140.3 570 140.3 570 174.95 683.5 c 128,-1,8
 209.6 797 209.6 797 274.4 897 c 0,9,10
 353.6 1018 353.6 1018 456.2 1081.5 c 128,-1,11
 558.8 1145 558.8 1145 676.7 1145 c 0,12,13
 782.9 1145 782.9 1145 855.35 1099 c 128,-1,14
 927.8 1053 927.8 1053 977.3 954 c 1,15,-1
 1004.3 1120 l 1,16,-1
 1329.2 1120 l 1,17,-1
 1159.1 147 l 1,18,19
 1106.9 -154 1106.9 -154 935.9 -298 c 128,-1,20
 764.9 -442 764.9 -442 460.7 -442 c 0,21,22
 367.1 -442 367.1 -442 280.25 -426 c 128,-1,23
 193.4 -410 193.4 -410 108.8 -377 c 1,24,-1
 156.5 -98 l 1,25,26
 233 -152 233 -152 309.5 -178.5 c 128,-1,27
 386 -205 386 -205 466.1 -205 c 0,28,29
 626.3 -205 626.3 -205 712.25 -129 c 128,-1,30
 798.2 -53 798.2 -53 827.9 113 c 1,31,-1
 842.3 190 l 1,0,1
752.3 887 m 0,32,33
 633.5 887 633.5 887 554.75 768 c 128,-1,34
 476 649 476 649 476 469 c 0,35,36
 476 367 476 367 518.3 313.5 c 128,-1,37
 560.6 260 560.6 260 641.6 260 c 0,38,39
 759.5 260 759.5 260 838.7 378.5 c 128,-1,40
 917.9 497 917.9 497 917.9 674 c 0,41,42
 917.9 778 917.9 778 875.6 832.5 c 128,-1,43
 833.3 887 833.3 887 752.3 887 c 0,32,33
EndSplineSet
EndChar
StartChar: h
Encoding: 104 104 75
Width: 1382
Flags: HW
Fore
1259 682 m 2,0,-1
 1139.3 0 l 1,1,-1
 816.2 0 l 1,2,-1
 917.9 584 l 1,3,4
 928.7 641 928.7 641 934.55 680.5 c 128,-1,5
 940.4 720 940.4 720 940.4 743 c 0,6,7
 940.4 807 940.4 807 908.45 842 c 128,-1,8
 876.5 877 876.5 877 818 877 c 0,9,10
 718.1 877 718.1 877 646.55 790.5 c 128,-1,11
 575 704 575 704 547.1 551 c 1,12,-1
 449.9 0 l 1,13,-1
 126.8 0 l 1,14,-1
 398.6 1556 l 1,15,-1
 722.6 1556 l 1,16,-1
 617.3 956 l 1,17,18
 706.4 1053 706.4 1053 796.4 1100 c 128,-1,19
 886.4 1147 886.4 1147 984.5 1147 c 0,20,21
 1124 1147 1124 1147 1199.6 1066 c 128,-1,22
 1275.2 985 1275.2 985 1275.2 838 c 0,23,24
 1275.2 806 1275.2 806 1271.15 767 c 128,-1,25
 1267.1 728 1267.1 728 1259 682 c 2,0,-1
EndSplineSet
EndChar
StartChar: i
Encoding: 105 105 76
Width: 671
Flags: HW
Fore
292.3 1120 m 1,0,-1
 616.3 1120 l 1,1,-1
 419.2 0 l 1,2,-1
 96.0996 0 l 1,3,-1
 292.3 1120 l 1,0,-1
367.9 1556 m 1,4,-1
 691.9 1556 l 1,5,-1
 640.6 1264 l 1,6,-1
 315.7 1264 l 1,7,-1
 367.9 1556 l 1,4,-1
EndSplineSet
EndChar
StartChar: j
Encoding: 106 106 77
Width: 654
Flags: HW
Fore
276.05 1120 m 1,0,-1
 600.05 1120 l 1,1,-1
 406.55 20 l 2,2,3
 365.15 -215 365.15 -215 252.2 -328.5 c 128,-1,4
 139.25 -442 139.25 -442 -52.4502 -442 c 2,5,-1
 -212.65 -442 l 1,6,-1
 -172.15 -207 l 1,7,-1
 -115.45 -207 l 2,8,9
 -24.5498 -207 -24.5498 -207 17.2998 -161.5 c 128,-1,10
 59.1504 -116 59.1504 -116 82.5498 20 c 1,11,-1
 276.05 1120 l 1,0,-1
351.65 1556 m 1,12,-1
 675.65 1556 l 1,13,-1
 624.35 1264 l 1,14,-1
 299.45 1264 l 1,15,-1
 351.65 1556 l 1,12,-1
EndSplineSet
EndChar
StartChar: k
Encoding: 107 107 78
Width: 1302
Flags: HW
Fore
404.95 1556 m 1,0,-1
 728.95 1556 l 1,1,-1
 581.35 713 l 1,2,-1
 1016.05 1120 l 1,3,-1
 1395.85 1120 l 1,4,-1
 809.95 602 l 1,5,-1
 1235.65 0 l 1,6,-1
 867.55 0 l 1,7,-1
 540.85 483 l 1,8,-1
 456.25 0 l 1,9,-1
 133.15 0 l 1,10,-1
 404.95 1556 l 1,0,-1
EndSplineSet
KernsSLIF: 283 -73 0 0 339 -73 0 0 248 -45 0 0 245 -73 0 0 246 -73 0 0 244 -73 0 0 242 -73 0 0 243 -73 0 0 235 -73 0 0 234 -73 0 0 232 -73 0 0 233 -73 0 0 111 -73 0 0 101 -73 0 0
EndChar
StartChar: l
Encoding: 108 108 79
Width: 671
Flags: HW
Fore
367.9 1556 m 1,0,-1
 691.9 1556 l 1,1,-1
 419.2 0 l 1,2,-1
 96.0996 0 l 1,3,-1
 367.9 1556 l 1,0,-1
EndSplineSet
EndChar
StartChar: m
Encoding: 109 109 80
Width: 2024
Flags: HW
Fore
1259.5 934 m 1,0,1
 1334.2 1037 1334.2 1037 1429.15 1092 c 128,-1,2
 1524.1 1147 1524.1 1147 1626.7 1147 c 0,3,4
 1761.7 1147 1761.7 1147 1839.55 1064.5 c 128,-1,5
 1917.4 982 1917.4 982 1917.4 838 c 0,6,7
 1917.4 808 1917.4 808 1913.35 769.5 c 128,-1,8
 1909.3 731 1909.3 731 1901.2 682 c 1,9,-1
 1781.5 0 l 1,10,-1
 1456.6 0 l 1,11,-1
 1558.3 584 l 1,12,-1
 1561 599 l 2,13,14
 1584.4 723 1584.4 723 1584.4 758 c 0,15,16
 1584.4 813 1584.4 813 1556.05 845 c 128,-1,17
 1527.7 877 1527.7 877 1479.1 877 c 0,18,19
 1386.4 877 1386.4 877 1322.05 792.5 c 128,-1,20
 1257.7 708 1257.7 708 1229.8 551 c 2,21,-1
 1132.6 0 l 1,22,-1
 807.7 0 l 1,23,-1
 911.2 584 l 1,24,25
 924.7 659 924.7 659 930.1 697.5 c 128,-1,26
 935.5 736 935.5 736 935.5 758 c 0,27,28
 935.5 814 935.5 814 907.6 845.5 c 128,-1,29
 879.7 877 879.7 877 830.2 877 c 0,30,31
 741.1 877 741.1 877 674.05 789.5 c 128,-1,32
 607 702 607 702 580.9 551 c 1,33,-1
 483.7 0 l 1,34,-1
 160.6 0 l 1,35,-1
 356.8 1120 l 1,36,-1
 680.8 1120 l 1,37,-1
 651.1 956 l 1,38,39
 726.7 1051 726.7 1051 812.2 1099 c 128,-1,40
 897.7 1147 897.7 1147 990.4 1147 c 0,41,42
 1094.8 1147 1094.8 1147 1169.5 1087.5 c 128,-1,43
 1244.2 1028 1244.2 1028 1259.5 934 c 1,0,1
EndSplineSet
EndChar
StartChar: n
Encoding: 110 110 81
Width: 1382
Flags: HW
Fore
1259 682 m 2,0,-1
 1139.3 0 l 1,1,-1
 816.2 0 l 1,2,-1
 917.9 584 l 1,3,4
 928.7 641 928.7 641 934.55 680.5 c 128,-1,5
 940.4 720 940.4 720 940.4 743 c 0,6,7
 940.4 807 940.4 807 908.45 842 c 128,-1,8
 876.5 877 876.5 877 818 877 c 0,9,10
 718.1 877 718.1 877 646.55 790.5 c 128,-1,11
 575 704 575 704 547.1 551 c 1,12,-1
 449.9 0 l 1,13,-1
 126.8 0 l 1,14,-1
 323 1120 l 1,15,-1
 647 1120 l 1,16,-1
 617.3 956 l 1,17,18
 706.4 1053 706.4 1053 796.4 1100 c 128,-1,19
 886.4 1147 886.4 1147 984.5 1147 c 0,20,21
 1124 1147 1124 1147 1199.6 1066 c 128,-1,22
 1275.2 985 1275.2 985 1275.2 838 c 0,23,24
 1275.2 806 1275.2 806 1271.15 767 c 128,-1,25
 1267.1 728 1267.1 728 1259 682 c 2,0,-1
EndSplineSet
EndChar
StartChar: o
Encoding: 111 111 82
Width: 1336
Flags: HW
Fore
761.55 891 m 0,0,1
 636.45 891 636.45 891 555.45 765 c 128,-1,2
 474.45 639 474.45 639 474.45 444 c 0,3,4
 474.45 338 474.45 338 518.1 282.5 c 128,-1,5
 561.75 227 561.75 227 645.45 227 c 0,6,7
 770.55 227 770.55 227 851.55 353.5 c 128,-1,8
 932.55 480 932.55 480 932.55 676 c 0,9,10
 932.55 781 932.55 781 888.9 836 c 128,-1,11
 845.25 891 845.25 891 761.55 891 c 0,0,1
787.65 1147 m 0,12,13
 1012.65 1147 1012.65 1147 1141.35 1020 c 128,-1,14
 1270.05 893 1270.05 893 1270.05 674 c 0,15,16
 1270.05 547 1270.05 547 1229.55 427.5 c 128,-1,17
 1189.05 308 1189.05 308 1111.65 209 c 0,18,19
 1019.85 91 1019.85 91 894.75 31 c 128,-1,20
 769.65 -29 769.65 -29 615.75 -29 c 0,21,22
 393.45 -29 393.45 -29 265.2 98 c 128,-1,23
 136.95 225 136.95 225 136.95 444 c 0,24,25
 136.95 570 136.95 570 178.35 690.5 c 128,-1,26
 219.75 811 219.75 811 297.15 911 c 0,27,28
 387.15 1027 387.15 1027 511.8 1087 c 128,-1,29
 636.45 1147 636.45 1147 787.65 1147 c 0,12,13
EndSplineSet
EndChar
StartChar: p
Encoding: 112 112 83
Width: 1387
Flags: HW
Fore
477.8 162 m 1,0,-1
 374.3 -426 l 1,1,-1
 50.2998 -426 l 1,2,-1
 321.2 1120 l 1,3,-1
 645.2 1120 l 1,4,-1
 615.5 956 l 1,5,6
 689.3 1054 689.3 1054 770.3 1100.5 c 128,-1,7
 851.3 1147 851.3 1147 947.6 1147 c 0,8,9
 1117.7 1147 1117.7 1147 1216.7 1027 c 128,-1,10
 1315.7 907 1315.7 907 1315.7 700 c 0,11,12
 1315.7 571 1315.7 571 1281.05 449 c 128,-1,13
 1246.4 327 1246.4 327 1181.6 227 c 0,14,15
 1099.7 101 1099.7 101 996.65 36 c 128,-1,16
 893.6 -29 893.6 -29 775.7 -29 c 0,17,18
 672.2 -29 672.2 -29 599.75 17.5 c 128,-1,19
 527.3 64 527.3 64 477.8 162 c 1,0,-1
816.2 887 m 0,20,21
 692 887 692 887 613.25 759.5 c 128,-1,22
 534.5 632 534.5 632 534.5 428 c 0,23,24
 534.5 336 534.5 336 579.05 283.5 c 128,-1,25
 623.6 231 623.6 231 702.8 231 c 0,26,27
 824.3 231 824.3 231 903.5 356.5 c 128,-1,28
 982.7 482 982.7 482 982.7 678 c 0,29,30
 982.7 780 982.7 780 939.95 833.5 c 128,-1,31
 897.2 887 897.2 887 816.2 887 c 0,20,21
EndSplineSet
EndChar
StartChar: q
Encoding: 113 113 84
Width: 1392
Flags: HW
Fore
978.95 956 m 1,0,-1
 1005.95 1120 l 1,1,-1
 1330.85 1120 l 1,2,-1
 1059.95 -426 l 1,3,-1
 735.05 -426 l 1,4,-1
 838.55 162 l 1,5,6
 766.55 64 766.55 64 685.55 17.5 c 128,-1,7
 604.55 -29 604.55 -29 508.25 -29 c 0,8,9
 338.15 -29 338.15 -29 239.15 91 c 128,-1,10
 140.15 211 140.15 211 140.15 418 c 0,11,12
 140.15 547 140.15 547 174.8 669 c 128,-1,13
 209.45 791 209.45 791 274.25 891 c 0,14,15
 356.15 1017 356.15 1017 459.2 1082 c 128,-1,16
 562.25 1147 562.25 1147 680.15 1147 c 0,17,18
 783.65 1147 783.65 1147 856.1 1100.5 c 128,-1,19
 928.55 1054 928.55 1054 978.95 956 c 1,0,-1
639.65 231 m 0,20,21
 763.85 231 763.85 231 841.7 358 c 128,-1,22
 919.55 485 919.55 485 919.55 690 c 0,23,24
 919.55 783 919.55 783 875.9 835 c 128,-1,25
 832.25 887 832.25 887 753.95 887 c 0,26,27
 631.55 887 631.55 887 552.35 761.5 c 128,-1,28
 473.15 636 473.15 636 473.15 440 c 0,29,30
 473.15 338 473.15 338 515.9 284.5 c 128,-1,31
 558.65 231 558.65 231 639.65 231 c 0,20,21
EndSplineSet
EndChar
StartChar: r
Encoding: 114 114 85
Width: 967
Flags: HW
Fore
1006.65 815 m 1,0,1
 973.35 836 973.35 836 932.85 847 c 128,-1,2
 892.35 858 892.35 858 845.55 858 c 0,3,4
 722.25 858 722.25 858 640.8 770 c 128,-1,5
 559.35 682 559.35 682 530.55 516 c 1,6,-1
 438.75 0 l 1,7,-1
 115.65 0 l 1,8,-1
 311.85 1120 l 1,9,-1
 635.85 1120 l 1,10,-1
 600.75 928 l 1,11,12
 664.65 1034 664.65 1034 760.5 1090.5 c 128,-1,13
 856.35 1147 856.35 1147 973.35 1147 c 0,14,15
 990.45 1147 990.45 1147 1012.05 1145 c 128,-1,16
 1033.65 1143 1033.65 1143 1063.35 1139 c 1,17,-1
 1006.65 815 l 1,0,1
EndSplineSet
KernsSLIF: 8217 86 0 0 8221 38 0 0 46 -292 0 0 44 -301 0 0
EndChar
StartChar: s
Encoding: 115 115 86
Width: 1155
Flags: HW
Fore
1090.65 1085 m 1,0,-1
 1042.95 807 l 1,1,2
 948.45 857 948.45 857 854.85 883 c 128,-1,3
 761.25 909 761.25 909 677.55 909 c 0,4,5
 582.15 909 582.15 909 530.4 881.5 c 128,-1,6
 478.65 854 478.65 854 478.65 803 c 0,7,8
 478.65 773 478.65 773 507.45 755 c 128,-1,9
 536.25 737 536.25 737 620.85 717 c 1,10,-1
 679.35 705 l 1,11,12
 874.65 659 874.65 659 952.95 586.5 c 128,-1,13
 1031.25 514 1031.25 514 1031.25 385 c 0,14,15
 1031.25 190 1031.25 190 893.55 80.5 c 128,-1,16
 755.85 -29 755.85 -29 508.35 -29 c 0,17,18
 404.85 -29 404.85 -29 296.85 -11 c 128,-1,19
 188.85 7 188.85 7 76.3496 43 c 1,20,-1
 124.95 324 l 1,21,22
 212.25 267 212.25 267 311.7 238 c 128,-1,23
 411.15 209 411.15 209 515.55 209 c 0,24,25
 617.25 209 617.25 209 668.55 236 c 128,-1,26
 719.85 263 719.85 263 719.85 315 c 0,27,28
 719.85 351 719.85 351 691.05 371 c 128,-1,29
 662.25 391 662.25 391 572.25 412 c 1,30,-1
 513.75 424 l 1,31,32
 340.95 464 340.95 464 267.15 542 c 128,-1,33
 193.35 620 193.35 620 193.35 758 c 0,34,35
 193.35 945 193.35 945 320.7 1046 c 128,-1,36
 448.05 1147 448.05 1147 684.75 1147 c 0,37,38
 788.25 1147 788.25 1147 888.6 1131.5 c 128,-1,39
 988.95 1116 988.95 1116 1090.65 1085 c 1,0,-1
EndSplineSet
EndChar
StartChar: t
Encoding: 116 116 87
Width: 937
Flags: HW
Fore
719.8 1438 m 1,0,-1
 664.9 1120 l 1,1,-1
 994.3 1120 l 1,2,-1
 948.4 864 l 1,3,-1
 619 864 l 1,4,-1
 536.2 390 l 1,5,6
 532.6 374 532.6 374 531.25 363 c 128,-1,7
 529.9 352 529.9 352 529.9 342 c 0,8,9
 529.9 296 529.9 296 557.35 276 c 128,-1,10
 584.8 256 584.8 256 649.6 256 c 2,11,-1
 816.1 256 l 1,12,-1
 770.2 0 l 1,13,-1
 499.3 0 l 2,14,15
 353.5 0 353.5 0 277 68 c 128,-1,16
 200.5 136 200.5 136 200.5 264 c 0,17,18
 200.5 292 200.5 292 203.2 324 c 128,-1,19
 205.9 356 205.9 356 211.3 389 c 1,20,-1
 294.1 864 l 1,21,-1
 135.7 864 l 1,22,-1
 179.8 1120 l 1,23,-1
 340 1120 l 1,24,-1
 395.8 1438 l 1,25,-1
 719.8 1438 l 1,0,-1
EndSplineSet
EndChar
StartChar: u
Encoding: 117 117 88
Width: 1388
Flags: HW
Fore
201 436 m 2,0,-1
 318.9 1120 l 1,1,-1
 642 1120 l 1,2,-1
 540.3 537 l 1,3,4
 529.5 480 529.5 480 524.1 440 c 128,-1,5
 518.7 400 518.7 400 518.7 377 c 0,6,7
 518.7 314 518.7 314 550.2 279 c 128,-1,8
 581.7 244 581.7 244 640.2 244 c 0,9,10
 740.1 244 740.1 244 812.1 330 c 128,-1,11
 884.1 416 884.1 416 911.1 569 c 2,12,-1
 1008.3 1120 l 1,13,-1
 1331.4 1120 l 1,14,-1
 1136.1 0 l 1,15,-1
 811.2 0 l 1,16,-1
 840.9 164 l 1,17,18
 758.1 67 758.1 67 667.2 19 c 128,-1,19
 576.3 -29 576.3 -29 475.5 -29 c 0,20,21
 337.8 -29 337.8 -29 262.2 52 c 128,-1,22
 186.6 133 186.6 133 186.6 281 c 0,23,24
 186.6 316 186.6 316 190.2 355 c 128,-1,25
 193.8 394 193.8 394 201 436 c 2,0,-1
EndSplineSet
EndChar
StartChar: v
Encoding: 118 118 89
Width: 1277
Flags: HW
Fore
192 1120 m 1,0,-1
 489 1120 l 1,1,-1
 619.5 338 l 1,2,-1
 999.3 1120 l 1,3,-1
 1326 1120 l 1,4,-1
 733.8 0 l 1,5,-1
 392.7 0 l 1,6,-1
 192 1120 l 1,0,-1
EndSplineSet
KernsSLIF: 46 -167 0 0 44 -167 0 0
EndChar
StartChar: w
Encoding: 119 119 90
Width: 1806
Flags: HW
Fore
264 1120 m 1,0,-1
 561 1120 l 1,1,-1
 596.1 350 l 1,2,-1
 900.3 1120 l 1,3,-1
 1155.9 1120 l 1,4,-1
 1192.8 352 l 1,5,-1
 1495.2 1120 l 1,6,-1
 1812 1120 l 1,7,-1
 1351.2 0 l 1,8,-1
 1009.2 0 l 1,9,-1
 975.9 770 l 1,10,-1
 668.1 0 l 1,11,-1
 334.2 0 l 1,12,-1
 264 1120 l 1,0,-1
EndSplineSet
KernsSLIF: 46 -131 0 0 44 -131 0 0
EndChar
StartChar: x
Encoding: 120 120 91
Width: 1253
Flags: HW
Fore
472.2 573 m 1,0,-1
 204.9 1120 l 1,1,-1
 539.7 1120 l 1,2,-1
 689.1 788 l 1,3,-1
 951 1120 l 1,4,-1
 1301.1 1120 l 1,5,-1
 842.1 575 l 1,6,-1
 1122.9 0 l 1,7,-1
 787.2 0 l 1,8,-1
 628.8 354 l 1,9,-1
 339 0 l 1,10,-1
 -11.0996 0 l 1,11,-1
 472.2 573 l 1,0,-1
EndSplineSet
EndChar
StartChar: y
Encoding: 121 121 92
Width: 1271
Flags: HW
Fore
191.85 1120 m 1,0,-1
 496.05 1120 l 1,1,-1
 634.65 344 l 1,2,-1
 991.95 1120 l 1,3,-1
 1336.65 1120 l 1,4,-1
 698.55 -106 l 1,5,6
 591.45 -313 591.45 -313 500.55 -377.5 c 128,-1,7
 409.65 -442 409.65 -442 265.65 -442 c 2,8,-1
 70.3496 -442 l 1,9,-1
 103.65 -207 l 1,10,-1
 205.35 -207 l 2,11,12
 284.55 -207 284.55 -207 328.2 -177.5 c 128,-1,13
 371.85 -148 371.85 -148 406.05 -74 c 1,14,-1
 435.75 -14 l 1,15,-1
 191.85 1120 l 1,0,-1
EndSplineSet
KernsSLIF: 46 -188 0 0 44 -159 0 0
EndChar
StartChar: z
Encoding: 122 122 93
Width: 1131
Flags: HW
Fore
259.8 1120 m 1,0,-1
 1139.1 1120 l 1,1,-1
 1095 870 l 1,2,-1
 466.8 256 l 1,3,-1
 987.9 256 l 1,4,-1
 943.8 0 l 1,5,-1
 42.9004 0 l 1,6,-1
 85.2002 250 l 1,7,-1
 715.2 864 l 1,8,-1
 215.7 864 l 1,9,-1
 259.8 1120 l 1,0,-1
EndSplineSet
EndChar
StartChar: braceleft
Encoding: 123 123 94
Width: 1391
Flags: HW
Fore
1021.65 -109 m 1,0,-1
 982.95 -334 l 1,1,-1
 786.75 -334 l 2,2,3
 625.65 -334 625.65 -334 544.2 -272.5 c 128,-1,4
 462.75 -211 462.75 -211 462.75 -88 c 0,5,6
 462.75 -66 462.75 -66 465.9 -36 c 128,-1,7
 469.05 -6 469.05 -6 475.35 34 c 1,8,-1
 508.65 227 l 1,9,10
 514.05 257 514.05 257 516.75 284.5 c 128,-1,11
 519.45 312 519.45 312 519.45 334 c 0,12,13
 519.45 422 519.45 422 478.5 458 c 128,-1,14
 437.55 494 437.55 494 332.25 494 c 2,15,-1
 274.65 494 l 1,16,-1
 315.15 717 l 1,17,-1
 370.95 717 l 2,18,19
 497.85 717 497.85 717 556.8 775 c 128,-1,20
 615.75 833 615.75 833 641.85 983 c 1,21,-1
 676.95 1188 l 2,22,23
 710.25 1381 710.25 1381 815.1 1468.5 c 128,-1,24
 919.95 1556 919.95 1556 1117.05 1556 c 2,25,-1
 1312.35 1556 l 1,26,-1
 1273.65 1331 l 1,27,-1
 1210.65 1331 l 2,28,29
 1085.55 1331 1085.55 1331 1039.2 1287.5 c 128,-1,30
 992.85 1244 992.85 1244 967.65 1102 c 2,31,-1
 937.95 936 l 1,32,33
 910.95 780 910.95 780 857.85 708.5 c 128,-1,34
 804.75 637 804.75 637 702.15 612 c 1,35,36
 774.15 591 774.15 591 807.45 546 c 128,-1,37
 840.75 501 840.75 501 840.75 424 c 0,38,39
 840.75 394 840.75 394 837.15 360.5 c 128,-1,40
 833.55 327 833.55 327 825.45 287 c 1,41,-1
 796.65 121 l 2,42,43
 788.55 75 788.55 75 785.85 51 c 128,-1,44
 783.15 27 783.15 27 783.15 10 c 0,45,46
 783.15 -57 783.15 -57 819.6 -83 c 128,-1,47
 856.05 -109 856.05 -109 960.45 -109 c 2,48,-1
 1021.65 -109 l 1,0,-1
EndSplineSet
EndChar
StartChar: bar
Encoding: 124 124 95
Width: 710
Flags: HW
Fore
475.65 1565 m 1,0,-1
 475.65 -483 l 1,1,-1
 271.35 -483 l 1,2,-1
 271.35 1565 l 1,3,-1
 475.65 1565 l 1,0,-1
EndSplineSet
EndChar
StartChar: braceright
Encoding: 125 125 96
Width: 1378
Flags: HW
Fore
186.25 -109 m 1,0,-1
 249.25 -109 l 2,1,2
 375.25 -109 375.25 -109 421.6 -64.5 c 128,-1,3
 467.95 -20 467.95 -20 492.25 121 c 1,4,-1
 521.95 287 l 1,5,6
 548.95 442 548.95 442 602.5 514 c 128,-1,7
 656.05 586 656.05 586 759.55 612 c 1,8,9
 687.55 631 687.55 631 653.35 676 c 128,-1,10
 619.15 721 619.15 721 619.15 799 c 0,11,12
 619.15 823 619.15 823 623.2 857 c 128,-1,13
 627.25 891 627.25 891 634.45 936 c 1,14,-1
 664.15 1102 l 1,15,16
 671.35 1144 671.35 1144 674.05 1169 c 128,-1,17
 676.75 1194 676.75 1194 676.75 1212 c 0,18,19
 676.75 1280 676.75 1280 640.3 1305.5 c 128,-1,20
 603.85 1331 603.85 1331 499.45 1331 c 2,21,-1
 439.15 1331 l 1,22,-1
 477.85 1556 l 1,23,-1
 674.95 1556 l 2,24,25
 836.05 1556 836.05 1556 916.6 1495 c 128,-1,26
 997.15 1434 997.15 1434 997.15 1311 c 0,27,28
 997.15 1283 997.15 1283 994 1252.5 c 128,-1,29
 990.85 1222 990.85 1222 984.55 1188 c 1,30,-1
 949.45 983 l 1,31,32
 944.05 953 944.05 953 941.35 926 c 128,-1,33
 938.65 899 938.65 899 938.65 877 c 0,34,35
 938.65 789 938.65 789 980.5 753 c 128,-1,36
 1022.35 717 1022.35 717 1126.75 717 c 2,37,-1
 1183.45 717 l 1,38,-1
 1142.95 494 l 1,39,-1
 1088.05 494 l 2,40,41
 961.15 494 961.15 494 902.2 435.5 c 128,-1,42
 843.25 377 843.25 377 817.15 227 c 2,43,-1
 783.85 35 l 2,44,45
 750.55 -158 750.55 -158 645.25 -246 c 128,-1,46
 539.95 -334 539.95 -334 342.85 -334 c 2,47,-1
 147.55 -334 l 1,48,-1
 186.25 -109 l 1,0,-1
EndSplineSet
EndChar
StartChar: asciitilde
Encoding: 126 126 97
Width: 1630
Flags: HW
Fore
1434.9 850 m 1,0,-1
 1434.9 606 l 1,1,2
 1339.5 526 1339.5 526 1258.95 491.5 c 128,-1,3
 1178.4 457 1178.4 457 1092 457 c 0,4,5
 995.7 457 995.7 457 867 515 c 0,6,7
 854.4 521 854.4 521 847.2 524 c 0,8,9
 840.9 527 840.9 527 827.4 533 c 0,10,11
 687.9 594 687.9 594 603.3 594 c 0,12,13
 524.1 594 524.1 594 446.7 555.5 c 128,-1,14
 369.3 517 369.3 517 281.1 434 c 1,15,-1
 281.1 678 l 1,16,17
 377.4 758 377.4 758 457.5 792.5 c 128,-1,18
 537.6 827 537.6 827 624 827 c 0,19,20
 720.3 827 720.3 827 849 769 c 0,21,22
 862.5 763 862.5 763 868.8 760 c 0,23,24
 875.1 757 875.1 757 888.6 751 c 0,25,26
 1028.1 690 1028.1 690 1112.7 690 c 0,27,28
 1190.1 690 1190.1 690 1266.15 727.5 c 128,-1,29
 1342.2 765 1342.2 765 1434.9 850 c 1,0,-1
EndSplineSet
EndChar
StartChar: exclamdown
Encoding: 161 161 163
Width: 887
Flags: HW
Fore
697.4 1137 m 1,0,-1
 372.5 1137 l 1,1,-1
 435.5 1493 l 1,2,-1
 760.4 1493 l 1,3,-1
 697.4 1137 l 1,0,-1
498.5 0 m 1,4,-1
 173.6 0 l 1,5,-1
 275.3 573 l 1,6,-1
 393.2 991 l 1,7,-1
 625.4 991 l 1,8,-1
 599.3 573 l 1,9,-1
 498.5 0 l 1,4,-1
EndSplineSet
EndChar
StartChar: cent
Encoding: 162 162 132
Width: 1351
Flags: HW
Fore
736.2 856 m 1,0,1
 644.4 810 644.4 810 589.05 705.5 c 128,-1,2
 533.7 601 533.7 601 533.7 473 c 0,3,4
 533.7 399 533.7 399 559.35 344.5 c 128,-1,5
 585 290 585 290 631.8 264 c 1,6,-1
 736.2 856 l 1,0,1
1193.4 1085 m 1,7,-1
 1142.1 793 l 1,8,9
 1074.6 843 1074.6 843 1013.85 867 c 128,-1,10
 953.1 891 953.1 891 895.5 891 c 2,11,-1
 887.4 891 l 1,12,-1
 772.2 227 l 1,13,14
 852.3 229 852.3 229 923.85 253.5 c 128,-1,15
 995.4 278 995.4 278 1059.3 326 c 1,16,-1
 1008.9 33 l 1,17,18
 944.1 8 944.1 8 873.9 -7 c 128,-1,19
 803.7 -22 803.7 -22 727.2 -27 c 1,20,-1
 677.7 -313 l 1,21,-1
 531.9 -313 l 1,22,-1
 581.4 -23 l 1,23,24
 400.5 -1 400.5 -1 296.55 115.5 c 128,-1,25
 192.6 232 192.6 232 192.6 414 c 0,26,27
 192.6 705 192.6 705 356.4 906 c 128,-1,28
 520.2 1107 520.2 1107 786.6 1141 c 1,29,-1
 836.1 1432 l 1,30,-1
 981.9 1432 l 1,31,-1
 932.4 1145 l 1,32,33
 993.6 1143 993.6 1143 1059.3 1128 c 128,-1,34
 1125 1113 1125 1113 1193.4 1085 c 1,7,-1
EndSplineSet
EndChar
StartChar: sterling
Encoding: 163 163 133
Width: 1353
Flags: HW
Fore
1344.95 1466 m 1,0,-1
 1295.45 1180 l 1,1,2
 1242.35 1217 1242.35 1217 1179.35 1237 c 128,-1,3
 1116.35 1257 1116.35 1257 1052.45 1257 c 0,4,5
 939.95 1257 939.95 1257 876.95 1195.5 c 128,-1,6
 813.95 1134 813.95 1134 790.55 1001 c 2,7,-1
 760.85 831 l 1,8,-1
 1096.55 831 l 1,9,-1
 1056.05 592 l 1,10,-1
 718.55 592 l 1,11,-1
 660.95 266 l 1,12,-1
 1147.85 266 l 1,13,-1
 1101.95 0 l 1,14,-1
 84.0498 0 l 1,15,-1
 130.85 266 l 1,16,-1
 333.35 266 l 1,17,-1
 390.05 592 l 1,18,-1
 217.25 592 l 1,19,-1
 257.75 831 l 1,20,-1
 432.35 831 l 1,21,-1
 462.05 1001 l 2,22,23
 508.85 1271 508.85 1271 644.75 1395.5 c 128,-1,24
 780.65 1520 780.65 1520 1028.15 1520 c 0,25,26
 1110.95 1520 1110.95 1520 1190.15 1506.5 c 128,-1,27
 1269.35 1493 1269.35 1493 1344.95 1466 c 1,0,-1
EndSplineSet
EndChar
StartChar: currency
Encoding: 164 164 189
Width: 1237
Flags: HW
Fore
455.85 268 m 1,0,-1
 269.55 61 l 1,1,-1
 131.85 215 l 1,2,-1
 318.15 422 l 1,3,4
 292.95 471 292.95 471 280.35 524.5 c 128,-1,5
 267.75 578 267.75 578 267.75 641 c 0,6,7
 267.75 704 267.75 704 281.25 758 c 128,-1,8
 294.75 812 294.75 812 321.75 858 c 1,9,-1
 133.65 1063 l 1,10,-1
 271.35 1217 l 1,11,-1
 457.65 1010 l 1,12,13
 500.85 1040 500.85 1040 549.45 1054.5 c 128,-1,14
 598.05 1069 598.05 1069 652.95 1069 c 0,15,16
 701.55 1069 701.55 1069 750.15 1055.5 c 128,-1,17
 798.75 1042 798.75 1042 850.05 1014 c 1,18,-1
 1036.35 1221 l 1,19,-1
 1173.15 1067 l 1,20,-1
 986.85 860 l 1,21,22
 1012.95 805 1012.95 805 1025.55 750 c 128,-1,23
 1038.15 695 1038.15 695 1038.15 641 c 0,24,25
 1038.15 578 1038.15 578 1025.1 525.5 c 128,-1,26
 1012.05 473 1012.05 473 985.05 426 c 1,27,-1
 1171.35 219 l 1,28,-1
 1032.75 66 l 1,29,-1
 846.45 272 l 1,30,31
 805.05 242 805.05 242 757.35 227.5 c 128,-1,32
 709.65 213 709.65 213 652.95 213 c 0,33,34
 600.75 213 600.75 213 552.15 226.5 c 128,-1,35
 503.55 240 503.55 240 455.85 268 c 1,0,-1
652.95 422 m 0,36,37
 734.85 422 734.85 422 792.45 485.5 c 128,-1,38
 850.05 549 850.05 549 850.05 641 c 0,39,40
 850.05 733 850.05 733 792.9 796.5 c 128,-1,41
 735.75 860 735.75 860 652.95 860 c 0,42,43
 571.05 860 571.05 860 513.45 796.5 c 128,-1,44
 455.85 733 455.85 733 455.85 641 c 0,45,46
 455.85 548 455.85 548 512.55 485 c 128,-1,47
 569.25 422 569.25 422 652.95 422 c 0,36,37
EndSplineSet
EndChar
StartChar: yen
Encoding: 165 165 150
Width: 1360
Flags: HW
Fore
1242.5 416 m 1,0,-1
 833.9 416 l 1,1,-1
 760.1 0 l 1,2,-1
 417.2 0 l 1,3,-1
 491 416 l 1,4,-1
 88.7002 416 l 1,5,-1
 123.8 610 l 1,6,-1
 524.3 610 l 1,7,-1
 536.9 686 l 1,8,-1
 510.8 762 l 1,9,-1
 149.9 762 l 1,10,-1
 183.2 954 l 1,11,-1
 445.1 954 l 1,12,-1
 251.6 1493 l 1,13,-1
 582.8 1493 l 1,14,-1
 758.3 993 l 1,15,-1
 1104.8 1493 l 1,16,-1
 1469.3 1493 l 1,17,-1
 1073.3 954 l 1,18,-1
 1337 954 l 1,19,-1
 1303.7 762 l 1,20,-1
 936.5 762 l 1,21,-1
 883.4 686 l 1,22,-1
 867.2 610 l 1,23,-1
 1275.8 610 l 1,24,-1
 1242.5 416 l 1,0,-1
EndSplineSet
EndChar
StartChar: brokenbar
Encoding: 166 166 231
Width: 710
Flags: HW
Fore
475.65 1432 m 1,0,-1
 475.65 674 l 1,1,-1
 271.35 674 l 1,2,-1
 271.35 1432 l 1,3,-1
 475.65 1432 l 1,0,-1
475.65 408 m 1,4,-1
 475.65 -350 l 1,5,-1
 271.35 -350 l 1,6,-1
 271.35 408 l 1,7,-1
 475.65 408 l 1,4,-1
EndSplineSet
EndChar
StartChar: section
Encoding: 167 167 134
Width: 968
Flags: HW
Fore
958 1462 m 1,0,-1
 919.3 1235 l 1,1,2
 838.3 1275 838.3 1275 773.5 1294 c 128,-1,3
 708.7 1313 708.7 1313 653.8 1313 c 0,4,5
 581.8 1313 581.8 1313 539.5 1282.5 c 128,-1,6
 497.2 1252 497.2 1252 497.2 1202 c 0,7,8
 497.2 1172 497.2 1172 519.25 1147 c 128,-1,9
 541.3 1122 541.3 1122 592.6 1096 c 2,10,-1
 673.6 1055 l 2,11,12
 831.1 977 831.1 977 888.7 901.5 c 128,-1,13
 946.3 826 946.3 826 946.3 715 c 0,14,15
 946.3 592 946.3 592 877 497 c 128,-1,16
 807.7 402 807.7 402 675.4 344 c 1,17,18
 726.7 308 726.7 308 751 264 c 128,-1,19
 775.3 220 775.3 220 775.3 166 c 0,20,21
 775.3 4 775.3 4 648.4 -95.5 c 128,-1,22
 521.5 -195 521.5 -195 309.1 -195 c 0,23,24
 233.5 -195 233.5 -195 152.5 -180.5 c 128,-1,25
 71.5 -166 71.5 -166 -14 -137 c 1,26,-1
 29.2002 100 l 1,27,28
 121 57 121 57 193 35.5 c 128,-1,29
 265 14 265 14 319.9 14 c 0,30,31
 389.2 14 389.2 14 432.85 45.5 c 128,-1,32
 476.5 77 476.5 77 476.5 125 c 0,33,34
 476.5 156 476.5 156 454.9 179.5 c 128,-1,35
 433.3 203 433.3 203 362.2 240 c 2,36,-1
 240.7 301 l 2,37,38
 133.6 355 133.6 355 83.2002 428.5 c 128,-1,39
 32.7998 502 32.7998 502 32.7998 604 c 0,40,41
 32.7998 727 32.7998 727 98.9502 822.5 c 128,-1,42
 165.1 918 165.1 918 292 977 c 1,43,44
 245.2 1018 245.2 1018 222.7 1064 c 128,-1,45
 200.2 1110 200.2 1110 200.2 1163 c 0,46,47
 200.2 1319 200.2 1319 324.85 1419.5 c 128,-1,48
 449.5 1520 449.5 1520 648.4 1520 c 0,49,50
 723.1 1520 723.1 1520 800.5 1505.5 c 128,-1,51
 877.9 1491 877.9 1491 958 1462 c 1,0,-1
446.8 854 m 1,52,53
 374.8 833 374.8 833 336.55 788.5 c 128,-1,54
 298.3 744 298.3 744 298.3 682 c 0,55,56
 298.3 621 298.3 621 341.95 578 c 128,-1,57
 385.6 535 385.6 535 532.3 471 c 1,58,59
 604.3 498 604.3 498 643.9 543.5 c 128,-1,60
 683.5 589 683.5 589 683.5 645 c 0,61,62
 683.5 706 683.5 706 632.2 752.5 c 128,-1,63
 580.9 799 580.9 799 446.8 854 c 1,52,53
EndSplineSet
EndChar
StartChar: dieresis
Encoding: 168 168 142
Width: 986
Flags: HW
Fore
387.3 1585 m 1,0,-1
 601.5 1585 l 1,1,-1
 557.4 1339 l 1,2,-1
 345 1339 l 1,3,-1
 387.3 1585 l 1,0,-1
745.5 1585 m 1,4,-1
 957 1585 l 1,5,-1
 912.9 1339 l 1,6,-1
 701.4 1339 l 1,7,-1
 745.5 1585 l 1,4,-1
EndSplineSet
Ligature: 0 1 'liga' space uni0308
EndChar
StartChar: copyright
Encoding: 169 169 139
Width: 1945
Flags: HW
Fore
1293.1 1126 m 1,0,-1
 1293.1 911 l 1,1,2
 1241.8 948 1241.8 948 1191.85 965.5 c 128,-1,3
 1141.9 983 1141.9 983 1090.6 983 c 0,4,5
 988.9 983 988.9 983 931.75 919 c 128,-1,6
 874.6 855 874.6 855 874.6 741 c 0,7,8
 874.6 626 874.6 626 931.3 563 c 128,-1,9
 988 500 988 500 1090.6 500 c 0,10,11
 1148.2 500 1148.2 500 1199.95 518 c 128,-1,12
 1251.7 536 1251.7 536 1293.1 571 c 1,13,-1
 1293.1 358 l 1,14,15
 1234.6 336 1234.6 336 1175.65 324.5 c 128,-1,16
 1116.7 313 1116.7 313 1060.9 313 c 0,17,18
 871 313 871 313 756.7 430 c 128,-1,19
 642.4 547 642.4 547 642.4 741 c 0,20,21
 642.4 936 642.4 936 756.7 1052.5 c 128,-1,22
 871 1169 871 1169 1060.9 1169 c 0,23,24
 1123 1169 1123 1169 1180.6 1158.5 c 128,-1,25
 1238.2 1148 1238.2 1148 1293.1 1126 c 1,0,-1
1024 1331 m 0,26,27
 915.1 1331 915.1 1331 821.5 1287.5 c 128,-1,28
 727.9 1244 727.9 1244 649.6 1157 c 0,29,30
 571.3 1070 571.3 1070 532.15 966.5 c 128,-1,31
 493 863 493 863 493 741 c 0,32,33
 493 620 493 620 532.15 516.5 c 128,-1,34
 571.3 413 571.3 413 649.6 326 c 0,35,36
 727 240 727 240 821.05 197 c 128,-1,37
 915.1 154 915.1 154 1024 154 c 0,38,39
 1134.7 154 1134.7 154 1227.4 196.5 c 128,-1,40
 1320.1 239 1320.1 239 1398.4 326 c 0,41,42
 1476.7 413 1476.7 413 1515.85 516.5 c 128,-1,43
 1555 620 1555 620 1555 741 c 0,44,45
 1555 863 1555 863 1515.85 966.5 c 128,-1,46
 1476.7 1070 1476.7 1070 1398.4 1157 c 0,47,48
 1319.2 1245 1319.2 1245 1226.05 1288 c 128,-1,49
 1132.9 1331 1132.9 1331 1024 1331 c 0,26,27
1024 1485 m 0,50,51
 1160.8 1485 1160.8 1485 1279.15 1430 c 128,-1,52
 1397.5 1375 1397.5 1375 1495.6 1266 c 0,53,54
 1593.7 1157 1593.7 1157 1642.3 1026 c 128,-1,55
 1690.9 895 1690.9 895 1690.9 741 c 0,56,57
 1690.9 589 1690.9 589 1642.3 458.5 c 128,-1,58
 1593.7 328 1593.7 328 1495.6 219 c 0,59,60
 1397.5 110 1397.5 110 1279.15 55 c 128,-1,61
 1160.8 0 1160.8 0 1024 0 c 0,62,63
 887.2 0 887.2 0 768.85 55 c 128,-1,64
 650.5 110 650.5 110 552.4 219 c 0,65,66
 454.3 328 454.3 328 405.7 458.5 c 128,-1,67
 357.1 589 357.1 589 357.1 741 c 0,68,69
 357.1 895 357.1 895 405.7 1026 c 128,-1,70
 454.3 1157 454.3 1157 552.4 1266 c 0,71,72
 650.5 1375 650.5 1375 768.85 1430 c 128,-1,73
 887.2 1485 887.2 1485 1024 1485 c 0,50,51
EndSplineSet
EndChar
StartChar: ordfeminine
Encoding: 170 170 157
Width: 1097
Flags: HW
Fore
172.65 573 m 1,0,-1
 906.15 573 l 1,1,-1
 871.05 373 l 1,2,-1
 137.55 373 l 1,3,-1
 172.65 573 l 1,0,-1
681.15 1081 m 2,4,5
 547.95 1081 547.95 1081 497.55 1052.5 c 128,-1,6
 447.15 1024 447.15 1024 447.15 954 c 0,7,8
 447.15 910 447.15 910 475.05 884 c 128,-1,9
 502.95 858 502.95 858 550.65 858 c 0,10,11
 626.25 858 626.25 858 684.75 914.5 c 128,-1,12
 743.25 971 743.25 971 758.55 1059 c 1,13,-1
 762.15 1081 l 1,14,-1
 681.15 1081 l 2,4,5
1020.45 1165 m 1,15,-1
 943.05 717 l 1,16,-1
 719.85 717 l 1,17,-1
 742.35 842 l 1,18,19
 682.95 766 682.95 766 615 731 c 128,-1,20
 547.05 696 547.05 696 456.15 696 c 0,21,22
 343.65 696 343.65 696 281.1 751.5 c 128,-1,23
 218.55 807 218.55 807 218.55 907 c 0,24,25
 218.55 1062 218.55 1062 329.7 1140.5 c 128,-1,26
 440.85 1219 440.85 1219 659.55 1219 c 2,27,-1
 786.45 1219 l 1,28,-1
 790.05 1239 l 2,29,30
 790.95 1243 790.95 1243 791.4 1248 c 128,-1,31
 791.85 1253 791.85 1253 791.85 1264 c 0,32,33
 791.85 1308 791.85 1308 757.2 1331 c 128,-1,34
 722.55 1354 722.55 1354 654.15 1354 c 0,35,36
 574.95 1354 574.95 1354 496.65 1336.5 c 128,-1,37
 418.35 1319 418.35 1319 341.85 1284 c 1,38,-1
 373.35 1464 l 1,39,40
 461.55 1492 461.55 1492 540.3 1506 c 128,-1,41
 619.05 1520 619.05 1520 686.55 1520 c 0,42,43
 853.95 1520 853.95 1520 941.7 1456 c 128,-1,44
 1029.45 1392 1029.45 1392 1029.45 1270 c 0,45,46
 1029.45 1239 1029.45 1239 1027.2 1213.5 c 128,-1,47
 1024.95 1188 1024.95 1188 1020.45 1165 c 1,15,-1
EndSplineSet
EndChar
StartChar: guillemotleft
Encoding: 171 171 169
Width: 1265
Flags: HW
Fore
1162.4 1063 m 1,0,-1
 1117.4 811 l 1,1,-1
 806 582 l 1,2,-1
 1038.2 360 l 1,3,-1
 999.5 137 l 1,4,-1
 619.7 506 l 1,5,-1
 653 692 l 1,6,-1
 1162.4 1063 l 1,0,-1
721.4 1063 m 1,7,-1
 677.3 811 l 1,8,-1
 365.9 582 l 1,9,-1
 598.1 360 l 1,10,-1
 559.4 137 l 1,11,-1
 179.6 506 l 1,12,-1
 212.9 692 l 1,13,-1
 721.4 1063 l 1,7,-1
EndSplineSet
EndChar
StartChar: logicalnot
Encoding: 172 172 164
Width: 1630
Flags: HW
Fore
281.1 909 m 1,0,-1
 1434.9 909 l 1,1,-1
 1434.9 287 l 1,2,-1
 1223.4 287 l 1,3,-1
 1223.4 672 l 1,4,-1
 281.1 672 l 1,5,-1
 281.1 909 l 1,0,-1
EndSplineSet
EndChar
StartChar: sfthyphen
Encoding: 173 173 256
Width: 804
Flags: HW
Fore
137.5 735 m 1,0,-1
 702.7 735 l 1,1,-1
 651.4 444 l 1,2,-1
 85.2998 444 l 1,3,-1
 137.5 735 l 1,0,-1
EndSplineSet
EndChar
StartChar: registered
Encoding: 174 174 138
Width: 1945
Flags: HW
Fore
1024 1331 m 0,0,1
 915.1 1331 915.1 1331 821.5 1287.5 c 128,-1,2
 727.9 1244 727.9 1244 649.6 1157 c 0,3,4
 571.3 1070 571.3 1070 532.15 966.5 c 128,-1,5
 493 863 493 863 493 741 c 0,6,7
 493 620 493 620 532.15 516.5 c 128,-1,8
 571.3 413 571.3 413 649.6 326 c 0,9,10
 727 240 727 240 821.05 197 c 128,-1,11
 915.1 154 915.1 154 1024 154 c 0,12,13
 1134.7 154 1134.7 154 1227.4 196.5 c 128,-1,14
 1320.1 239 1320.1 239 1398.4 326 c 0,15,16
 1476.7 413 1476.7 413 1515.85 516.5 c 128,-1,17
 1555 620 1555 620 1555 741 c 0,18,19
 1555 863 1555 863 1515.85 966.5 c 128,-1,20
 1476.7 1070 1476.7 1070 1398.4 1157 c 0,21,22
 1319.2 1245 1319.2 1245 1226.05 1288 c 128,-1,23
 1132.9 1331 1132.9 1331 1024 1331 c 0,0,1
972.7 1036 m 2,24,-1
 941.2 1036 l 1,25,-1
 941.2 829 l 1,26,-1
 972.7 829 l 2,27,28
 1042.9 829 1042.9 829 1078.45 855.5 c 128,-1,29
 1114 882 1114 882 1114 934 c 0,30,31
 1114 986 1114 986 1079.35 1011 c 128,-1,32
 1044.7 1036 1044.7 1036 972.7 1036 c 2,24,-1
1006 1174 m 2,33,34
 1164.4 1174 1164.4 1174 1242.7 1114.5 c 128,-1,35
 1321 1055 1321 1055 1321 934 c 0,36,37
 1321 848 1321 848 1273.75 792 c 128,-1,38
 1226.5 736 1226.5 736 1140.1 719 c 1,39,40
 1177 697 1177 697 1208.95 657 c 128,-1,41
 1240.9 617 1240.9 617 1267 559 c 2,42,-1
 1366.9 338 l 1,43,-1
 1160.8 338 l 1,44,-1
 1064.5 551 l 1,45,46
 1030.3 629 1030.3 629 1004.2 661.5 c 128,-1,47
 978.1 694 978.1 694 952 694 c 2,48,-1
 941.2 694 l 1,49,-1
 941.2 338 l 1,50,-1
 749.5 338 l 1,51,-1
 749.5 1174 l 1,52,-1
 1006 1174 l 2,33,34
1024 1485 m 0,53,54
 1160.8 1485 1160.8 1485 1279.15 1430 c 128,-1,55
 1397.5 1375 1397.5 1375 1495.6 1266 c 0,56,57
 1593.7 1157 1593.7 1157 1642.3 1026 c 128,-1,58
 1690.9 895 1690.9 895 1690.9 741 c 0,59,60
 1690.9 589 1690.9 589 1642.3 458.5 c 128,-1,61
 1593.7 328 1593.7 328 1495.6 219 c 0,62,63
 1397.5 110 1397.5 110 1279.15 55 c 128,-1,64
 1160.8 0 1160.8 0 1024 0 c 0,65,66
 887.2 0 887.2 0 768.85 55 c 128,-1,67
 650.5 110 650.5 110 552.4 219 c 0,68,69
 454.3 328 454.3 328 405.7 458.5 c 128,-1,70
 357.1 589 357.1 589 357.1 741 c 0,71,72
 357.1 895 357.1 895 405.7 1026 c 128,-1,73
 454.3 1157 454.3 1157 552.4 1266 c 0,74,75
 650.5 1375 650.5 1375 768.85 1430 c 128,-1,76
 887.2 1485 887.2 1485 1024 1485 c 0,53,54
EndSplineSet
EndChar
StartChar: macron
Encoding: 175 175 217
Width: 986
Flags: HW
Fore
383.7 1556 m 1,0,-1
 951.6 1556 l 1,1,-1
 918.3 1368 l 1,2,-1
 350.4 1368 l 1,3,-1
 383.7 1556 l 1,0,-1
EndSplineSet
Ligature: 0 1 'liga' space uni0304
EndChar
StartChar: degree
Encoding: 176 176 131
Width: 972
Flags: HW
Fore
511.9 1372 m 0,0,1
 447.1 1372 447.1 1372 402.1 1322 c 128,-1,2
 357.1 1272 357.1 1272 357.1 1200 c 0,3,4
 357.1 1128 357.1 1128 401.65 1079 c 128,-1,5
 446.2 1030 446.2 1030 511.9 1030 c 0,6,7
 576.7 1030 576.7 1030 621.7 1079.5 c 128,-1,8
 666.7 1129 666.7 1129 666.7 1200 c 0,9,10
 666.7 1272 666.7 1272 621.25 1322 c 128,-1,11
 575.8 1372 575.8 1372 511.9 1372 c 0,0,1
511.9 1534 m 0,12,13
 571.3 1534 571.3 1534 626.2 1508.5 c 128,-1,14
 681.1 1483 681.1 1483 724.3 1436 c 1,15,16
 766.6 1388 766.6 1388 788.65 1328 c 128,-1,17
 810.7 1268 810.7 1268 810.7 1200 c 0,18,19
 810.7 1133 810.7 1133 788.65 1072.5 c 128,-1,20
 766.6 1012 766.6 1012 726.1 967 c 0,21,22
 682.9 919 682.9 919 627.1 893.5 c 128,-1,23
 571.3 868 571.3 868 510.1 868 c 0,24,25
 383.2 868 383.2 868 297.25 963.5 c 128,-1,26
 211.3 1059 211.3 1059 211.3 1200 c 0,27,28
 211.3 1341 211.3 1341 298.15 1437.5 c 128,-1,29
 385 1534 385 1534 511.9 1534 c 0,12,13
EndSplineSet
EndChar
StartChar: plusminus
Encoding: 177 177 147
Width: 1630
Flags: HW
Fore
965.1 1284 m 1,0,-1
 965.1 930 l 1,1,-1
 1434.9 930 l 1,2,-1
 1434.9 694 l 1,3,-1
 965.1 694 l 1,4,-1
 965.1 340 l 1,5,-1
 750.9 340 l 1,6,-1
 750.9 694 l 1,7,-1
 281.1 694 l 1,8,-1
 281.1 930 l 1,9,-1
 750.9 930 l 1,10,-1
 750.9 1284 l 1,11,-1
 965.1 1284 l 1,0,-1
281.1 238 m 1,12,-1
 1434.9 238 l 1,13,-1
 1434.9 0 l 1,14,-1
 281.1 0 l 1,15,-1
 281.1 238 l 1,12,-1
EndSplineSet
EndChar
StartChar: twosuperior
Encoding: 178 178 241
Width: 856
Flags: HW
Fore
430.35 836 m 1,0,-1
 769.65 836 l 1,1,-1
 739.95 668 l 1,2,-1
 131.55 668 l 1,3,-1
 159.45 821 l 1,4,-1
 488.85 1087 l 2,5,6
 560.85 1145 560.85 1145 595.95 1194.5 c 128,-1,7
 631.05 1244 631.05 1244 631.05 1286 c 0,8,9
 631.05 1326 631.05 1326 601.8 1349 c 128,-1,10
 572.55 1372 572.55 1372 520.35 1372 c 0,11,12
 459.15 1372 459.15 1372 393 1349 c 128,-1,13
 326.85 1326 326.85 1326 262.95 1282 c 1,14,-1
 295.35 1468 l 1,15,16
 370.05 1494 370.05 1494 437.1 1507 c 128,-1,17
 504.15 1520 504.15 1520 566.25 1520 c 0,18,19
 700.35 1520 700.35 1520 771.9 1465.5 c 128,-1,20
 843.45 1411 843.45 1411 843.45 1311 c 0,21,22
 843.45 1232 843.45 1232 794.85 1157.5 c 128,-1,23
 746.25 1083 746.25 1083 638.25 999 c 2,24,-1
 430.35 836 l 1,0,-1
EndSplineSet
EndChar
StartChar: threesuperior
Encoding: 179 179 242
Width: 855
Flags: HW
Fore
647.2 1120 m 1,0,1
 714.7 1107 714.7 1107 749.8 1060.5 c 128,-1,2
 784.9 1014 784.9 1014 784.9 938 c 0,3,4
 784.9 801 784.9 801 679.6 727 c 128,-1,5
 574.3 653 574.3 653 379.9 653 c 0,6,7
 307.9 653 307.9 653 242.65 665 c 128,-1,8
 177.4 677 177.4 677 121.6 700 c 1,9,-1
 151.3 872 l 1,10,11
 203.5 836 203.5 836 257.05 817.5 c 128,-1,12
 310.6 799 310.6 799 364.6 799 c 0,13,14
 462.7 799 462.7 799 518.05 837 c 128,-1,15
 573.4 875 573.4 875 573.4 942 c 0,16,17
 573.4 996 573.4 996 528.85 1021.5 c 128,-1,18
 484.3 1047 484.3 1047 390.7 1047 c 2,19,-1
 322.3 1047 l 1,20,-1
 346.6 1184 l 1,21,-1
 424 1184 l 2,22,23
 519.4 1184 519.4 1184 570.25 1213 c 128,-1,24
 621.1 1242 621.1 1242 621.1 1296 c 0,25,26
 621.1 1334 621.1 1334 586.9 1353 c 128,-1,27
 552.7 1372 552.7 1372 486.1 1372 c 0,28,29
 437.5 1372 437.5 1372 380.35 1359 c 128,-1,30
 323.2 1346 323.2 1346 253.9 1319 c 1,31,-1
 281.8 1485 l 1,32,33
 346.6 1502 346.6 1502 413.2 1511 c 128,-1,34
 479.8 1520 479.8 1520 545.5 1520 c 0,35,36
 685 1520 685 1520 759.7 1470 c 128,-1,37
 834.4 1420 834.4 1420 834.4 1327 c 0,38,39
 834.4 1246 834.4 1246 783.55 1190 c 128,-1,40
 732.7 1134 732.7 1134 647.2 1120 c 1,0,1
EndSplineSet
EndChar
StartChar: acute
Encoding: 180 180 141
Width: 1000
Flags: HW
Fore
808.35 1638 m 1,0,-1
 1072.05 1638 l 1,1,-1
 677.85 1262 l 1,2,-1
 496.95 1262 l 1,3,-1
 808.35 1638 l 1,0,-1
EndSplineSet
LCarets: 0 65535 '    ' 1 0 
Ligature: 0 1 'liga' space acutecomb
EndChar
StartChar: mu
Encoding: 181 181 151
Width: 1422
Flags: HW
Fore
16.3496 -428 m 1,0,-1
 287.25 1120 l 1,1,-1
 611.25 1120 l 1,2,-1
 496.95 469 l 2,3,4
 493.35 448 493.35 448 491.55 428 c 128,-1,5
 489.75 408 489.75 408 489.75 391 c 0,6,7
 489.75 318 489.75 318 528.45 279 c 128,-1,8
 567.15 240 567.15 240 640.95 240 c 0,9,10
 732.75 240 732.75 240 786.75 296 c 128,-1,11
 840.75 352 840.75 352 862.35 469 c 1,12,-1
 976.65 1120 l 1,13,-1
 1300.65 1120 l 1,14,-1
 1170.15 371 l 2,15,16
 1166.55 350 1166.55 350 1164.75 332.5 c 128,-1,17
 1162.95 315 1162.95 315 1162.95 301 c 0,18,19
 1162.95 272 1162.95 272 1175.1 258 c 128,-1,20
 1187.25 244 1187.25 244 1212.45 244 c 0,21,22
 1227.75 244 1227.75 244 1245.3 249.5 c 128,-1,23
 1262.85 255 1262.85 255 1280.85 266 c 1,24,-1
 1235.85 16 l 1,25,26
 1184.55 -7 1184.55 -7 1140.45 -18 c 128,-1,27
 1096.35 -29 1096.35 -29 1055.85 -29 c 0,28,29
 976.65 -29 976.65 -29 932.1 9 c 128,-1,30
 887.55 47 887.55 47 869.55 129 c 1,31,32
 813.75 50 813.75 50 745.8 10.5 c 128,-1,33
 677.85 -29 677.85 -29 598.65 -29 c 0,34,35
 532.05 -29 532.05 -29 490.2 -5.5 c 128,-1,36
 448.35 18 448.35 18 428.55 66 c 1,37,-1
 342.15 -428 l 1,38,-1
 16.3496 -428 l 1,0,-1
EndSplineSet
EndChar
StartChar: paragraph
Encoding: 182 182 136
Width: 1242
Flags: HW
Fore
712.85 1493 m 2,0,-1
 1180.85 1493 l 1,1,-1
 885.65 -197 l 1,2,-1
 714.65 -197 l 1,3,-1
 983.75 1346 l 1,4,-1
 813.65 1346 l 1,5,-1
 542.75 -197 l 1,6,-1
 373.55 -197 l 1,7,-1
 521.15 649 l 1,8,9
 369.95 669 369.95 669 288.05 761 c 128,-1,10
 206.15 853 206.15 853 206.15 1001 c 0,11,12
 206.15 1216 206.15 1216 347 1354.5 c 128,-1,13
 487.85 1493 487.85 1493 712.85 1493 c 2,0,-1
EndSplineSet
EndChar
StartChar: periodcentered
Encoding: 183 183 195
Width: 739
Flags: HW
Fore
262.2 905 m 1,0,-1
 586.2 905 l 1,1,-1
 517.8 518 l 1,2,-1
 193.8 518 l 1,3,-1
 262.2 905 l 1,0,-1
EndSplineSet
EndChar
StartChar: cedilla
Encoding: 184 184 221
Width: 950
Flags: HW
Fore
441.85 0 m 1,0,1
 475.15 -52 475.15 -52 490.45 -96 c 128,-1,2
 505.75 -140 505.75 -140 505.75 -182 c 0,3,4
 505.75 -286 505.75 -286 437.8 -343.5 c 128,-1,5
 369.85 -401 369.85 -401 246.55 -401 c 0,6,7
 202.45 -401 202.45 -401 158.8 -394.5 c 128,-1,8
 115.15 -388 115.15 -388 69.25 -375 c 1,9,-1
 95.3496 -219 l 1,10,11
 131.35 -236 131.35 -236 167.8 -245 c 128,-1,12
 204.25 -254 204.25 -254 238.45 -254 c 0,13,14
 297.85 -254 297.85 -254 332.05 -225.5 c 128,-1,15
 366.25 -197 366.25 -197 366.25 -150 c 0,16,17
 366.25 -124 366.25 -124 354.1 -89.5 c 128,-1,18
 341.95 -55 341.95 -55 314.05 0 c 1,19,-1
 441.85 0 l 1,0,1
EndSplineSet
Ligature: 0 1 'liga' space uni0327
EndChar
StartChar: onesuperior
Encoding: 185 185 240
Width: 854
Flags: HW
Fore
198.5 825 m 1,0,-1
 383 825 l 1,1,-1
 474.8 1346 l 1,2,-1
 265.1 1294 l 1,3,-1
 292.1 1454 l 1,4,-1
 511.7 1503 l 1,5,-1
 708.8 1503 l 1,6,-1
 589.1 825 l 1,7,-1
 775.4 825 l 1,8,-1
 747.5 668 l 1,9,-1
 170.6 668 l 1,10,-1
 198.5 825 l 1,0,-1
EndSplineSet
EndChar
StartChar: ordmasculine
Encoding: 186 186 158
Width: 1100
Flags: HW
Fore
707.6 1520 m 0,0,1
 872.3 1520 872.3 1520 968.6 1429.5 c 128,-1,2
 1064.9 1339 1064.9 1339 1064.9 1186 c 0,3,4
 1064.9 967 1064.9 967 932.15 832.5 c 128,-1,5
 799.4 698 799.4 698 580.7 698 c 0,6,7
 416.9 698 416.9 698 318.8 789.5 c 128,-1,8
 220.7 881 220.7 881 220.7 1032 c 0,9,10
 220.7 1249 220.7 1249 354.8 1384.5 c 128,-1,11
 488.9 1520 488.9 1520 707.6 1520 c 0,0,1
180.2 573 m 1,12,-1
 920.9 573 l 1,13,-1
 886.7 373 l 1,14,-1
 145.1 373 l 1,15,-1
 180.2 573 l 1,12,-1
685.1 1350 m 0,16,17
 596 1350 596 1350 537.5 1257.5 c 128,-1,18
 479 1165 479 1165 479 1024 c 0,19,20
 479 948 479 948 510.5 908 c 128,-1,21
 542 868 542 868 602.3 868 c 0,22,23
 691.4 868 691.4 868 749.9 960 c 128,-1,24
 808.4 1052 808.4 1052 808.4 1194 c 0,25,26
 808.4 1269 808.4 1269 776.45 1309.5 c 128,-1,27
 744.5 1350 744.5 1350 685.1 1350 c 0,16,17
EndSplineSet
EndChar
StartChar: guillemotright
Encoding: 187 187 170
Width: 1264
Flags: HW
Fore
171.45 135 m 1,0,-1
 215.55 389 l 1,1,-1
 525.15 618 l 1,2,-1
 294.75 840 l 1,3,-1
 333.45 1063 l 1,4,-1
 711.45 692 l 1,5,-1
 679.95 506 l 1,6,-1
 171.45 135 l 1,0,-1
611.55 135 m 1,7,-1
 655.65 389 l 1,8,-1
 965.25 618 l 1,9,-1
 733.05 840 l 1,10,-1
 773.55 1063 l 1,11,-1
 1151.55 692 l 1,12,-1
 1120.05 506 l 1,13,-1
 611.55 135 l 1,7,-1
EndSplineSet
EndChar
StartChar: onequarter
Encoding: 188 188 243
Width: 2069
Flags: HW
Fore
1636.7 651 m 1,0,-1
 1360.4 317 l 1,1,-1
 1575.5 317 l 1,2,-1
 1636.7 651 l 1,0,-1
1647.5 836 m 1,3,-1
 1872.5 836 l 1,4,-1
 1782.5 317 l 1,5,-1
 1904 317 l 1,6,-1
 1877.9 162 l 1,7,-1
 1754.6 162 l 1,8,-1
 1724.9 0 l 1,9,-1
 1518.8 0 l 1,10,-1
 1548.5 162 l 1,11,-1
 1195.7 162 l 1,12,-1
 1225.4 330 l 1,13,-1
 1647.5 836 l 1,3,-1
661.1 -29 m 1,14,-1
 440.6 -29 l 1,15,-1
 1552.1 1520 l 1,16,-1
 1772.6 1520 l 1,17,-1
 661.1 -29 l 1,14,-1
257.9 825 m 1,18,-1
 442.4 825 l 1,19,-1
 534.2 1346 l 1,20,-1
 324.5 1294 l 1,21,-1
 351.5 1454 l 1,22,-1
 571.1 1503 l 1,23,-1
 768.2 1503 l 1,24,-1
 648.5 825 l 1,25,-1
 834.8 825 l 1,26,-1
 806.9 668 l 1,27,-1
 230 668 l 1,28,-1
 257.9 825 l 1,18,-1
EndSplineSet
Ligature: 0 1 'frac' one slash four
Ligature: 0 1 'frac' one fraction four
EndChar
StartChar: onehalf
Encoding: 189 189 244
Width: 2072
Flags: HW
Fore
1553.55 168 m 1,0,-1
 1890.15 168 l 1,1,-1
 1861.35 0 l 1,2,-1
 1254.75 0 l 1,3,-1
 1282.65 154 l 1,4,-1
 1612.05 420 l 2,5,6
 1684.95 478 1684.95 478 1719.6 526.5 c 128,-1,7
 1754.25 575 1754.25 575 1754.25 616 c 0,8,9
 1754.25 657 1754.25 657 1724.55 681 c 128,-1,10
 1694.85 705 1694.85 705 1643.55 705 c 0,11,12
 1582.35 705 1582.35 705 1514.85 681.5 c 128,-1,13
 1447.35 658 1447.35 658 1383.45 614 c 1,14,-1
 1416.75 801 l 1,15,16
 1491.45 827 1491.45 827 1558.05 839.5 c 128,-1,17
 1624.65 852 1624.65 852 1687.65 852 c 0,18,19
 1821.75 852 1821.75 852 1893.75 797.5 c 128,-1,20
 1965.75 743 1965.75 743 1965.75 643 c 0,21,22
 1965.75 564 1965.75 564 1917.15 490 c 128,-1,23
 1868.55 416 1868.55 416 1761.45 332 c 2,24,-1
 1553.55 168 l 1,0,-1
664.35 -29 m 1,25,-1
 443.85 -29 l 1,26,-1
 1555.35 1520 l 1,27,-1
 1775.85 1520 l 1,28,-1
 664.35 -29 l 1,25,-1
261.15 825 m 1,29,-1
 445.65 825 l 1,30,-1
 537.45 1346 l 1,31,-1
 327.75 1294 l 1,32,-1
 354.75 1454 l 1,33,-1
 574.35 1503 l 1,34,-1
 771.45 1503 l 1,35,-1
 651.75 825 l 1,36,-1
 838.05 825 l 1,37,-1
 810.15 668 l 1,38,-1
 233.25 668 l 1,39,-1
 261.15 825 l 1,29,-1
EndSplineSet
Ligature: 0 1 'frac' one slash two
Ligature: 0 1 'frac' one fraction two
EndChar
StartChar: threequarters
Encoding: 190 190 245
Width: 2067
Flags: HW
Fore
711.25 1120 m 1,0,1
 779.65 1106 779.65 1106 815.2 1060 c 128,-1,2
 850.75 1014 850.75 1014 850.75 938 c 0,3,4
 850.75 801 850.75 801 745.9 727 c 128,-1,5
 641.05 653 641.05 653 445.75 653 c 0,6,7
 372.85 653 372.85 653 307.15 665 c 128,-1,8
 241.45 677 241.45 677 185.65 700 c 1,9,-1
 217.15 872 l 1,10,11
 269.35 836 269.35 836 322.9 817.5 c 128,-1,12
 376.45 799 376.45 799 430.45 799 c 0,13,14
 528.55 799 528.55 799 583.9 837 c 128,-1,15
 639.25 875 639.25 875 639.25 942 c 0,16,17
 639.25 996 639.25 996 595.15 1021.5 c 128,-1,18
 551.05 1047 551.05 1047 456.55 1047 c 2,19,-1
 388.15 1047 l 1,20,-1
 412.45 1184 l 1,21,-1
 489.85 1184 l 2,22,23
 585.25 1184 585.25 1184 635.2 1213 c 128,-1,24
 685.15 1242 685.15 1242 685.15 1296 c 0,25,26
 685.15 1334 685.15 1334 651.4 1353 c 128,-1,27
 617.65 1372 617.65 1372 552.85 1372 c 0,28,29
 502.45 1372 502.45 1372 444.4 1359 c 128,-1,30
 386.35 1346 386.35 1346 318.85 1319 c 1,31,-1
 347.65 1485 l 1,32,33
 412.45 1502 412.45 1502 479.05 1511 c 128,-1,34
 545.65 1520 545.65 1520 611.35 1520 c 0,35,36
 750.85 1520 750.85 1520 825.1 1470 c 128,-1,37
 899.35 1420 899.35 1420 899.35 1327 c 0,38,39
 899.35 1246 899.35 1246 848.5 1190 c 128,-1,40
 797.65 1134 797.65 1134 711.25 1120 c 1,0,1
1638.25 651 m 1,41,-1
 1363.75 317 l 1,42,-1
 1578.85 317 l 1,43,-1
 1638.25 651 l 1,41,-1
1650.85 836 m 1,44,-1
 1874.05 836 l 1,45,-1
 1784.05 317 l 1,46,-1
 1907.35 317 l 1,47,-1
 1879.45 162 l 1,48,-1
 1756.15 162 l 1,49,-1
 1728.25 0 l 1,50,-1
 1522.15 0 l 1,51,-1
 1550.05 162 l 1,52,-1
 1199.95 162 l 1,53,-1
 1226.95 330 l 1,54,-1
 1650.85 836 l 1,44,-1
672.55 -29 m 1,55,-1
 451.15 -29 l 1,56,-1
 1562.65 1520 l 1,57,-1
 1784.05 1520 l 1,58,-1
 672.55 -29 l 1,55,-1
EndSplineSet
Ligature: 0 1 'frac' three slash four
Ligature: 0 1 'frac' three fraction four
EndChar
StartChar: questiondown
Encoding: 191 191 162
Width: 1122
Flags: HW
Fore
540.65 989 m 1,0,-1
 864.65 989 l 1,1,-1
 855.65 938 l 1,2,3
 842.15 858 842.15 858 803.45 796.5 c 128,-1,4
 764.75 735 764.75 735 646.85 633 c 1,5,-1
 579.35 573 l 1,6,7
 507.35 512 507.35 512 475.85 460 c 128,-1,8
 444.35 408 444.35 408 444.35 354 c 0,9,10
 444.35 297 444.35 297 480.35 266.5 c 128,-1,11
 516.35 236 516.35 236 584.75 236 c 0,12,13
 656.75 236 656.75 236 748.1 270 c 128,-1,14
 839.45 304 839.45 304 942.05 369 c 1,15,-1
 887.15 55 l 1,16,17
 772.85 13 772.85 13 677.9 -7 c 128,-1,18
 582.95 -27 582.95 -27 496.55 -27 c 0,19,20
 321.05 -27 321.05 -27 221.6 58.5 c 128,-1,21
 122.15 144 122.15 144 122.15 293 c 0,22,23
 122.15 412 122.15 412 169.85 506 c 128,-1,24
 217.55 600 217.55 600 331.85 702 c 2,25,-1
 400.25 762 l 2,26,27
 474.95 827 474.95 827 500.15 864.5 c 128,-1,28
 525.35 902 525.35 902 532.55 944 c 1,29,-1
 540.65 989 l 1,0,-1
890.75 1137 m 1,30,-1
 565.85 1137 l 1,31,-1
 628.85 1493 l 1,32,-1
 952.85 1493 l 1,33,-1
 890.75 1137 l 1,30,-1
EndSplineSet
EndChar
StartChar: Aring
Encoding: 197 197 99
Width: 1490
Flags: HW
Fore
779.6 1616 m 0,0,1
 779.6 1562 779.6 1562 814.25 1523.5 c 128,-1,2
 848.9 1485 848.9 1485 897.5 1485 c 0,3,4
 946.1 1485 946.1 1485 980.75 1523.5 c 128,-1,5
 1015.4 1562 1015.4 1562 1015.4 1616 c 0,6,7
 1015.4 1670 1015.4 1670 980.3 1708.5 c 128,-1,8
 945.2 1747 945.2 1747 897.5 1747 c 0,9,10
 848.9 1747 848.9 1747 814.25 1708.5 c 128,-1,11
 779.6 1670 779.6 1670 779.6 1616 c 0,0,1
1103.6 1456 m 1,12,-1
 1337.6 0 l 1,13,-1
 1008.2 0 l 1,14,-1
 969.5 272 l 1,15,-1
 433.1 272 l 1,16,-1
 299.9 0 l 1,17,-1
 -55.5996 0 l 1,18,-1
 686.9 1458 l 1,19,20
 663.5 1495 663.5 1495 652.25 1533.5 c 128,-1,21
 641 1572 641 1572 641 1616 c 0,22,23
 641 1733 641 1733 716.15 1817 c 128,-1,24
 791.3 1901 791.3 1901 897.5 1901 c 0,25,26
 1002.8 1901 1002.8 1901 1077.95 1817 c 128,-1,27
 1153.1 1733 1153.1 1733 1153.1 1616 c 0,28,29
 1153.1 1568 1153.1 1568 1141.4 1529.5 c 128,-1,30
 1129.7 1491 1129.7 1491 1103.6 1456 c 1,12,-1
563.6 543 m 1,31,-1
 924.5 543 l 1,32,-1
 843.5 1118 l 1,33,-1
 563.6 543 l 1,31,-1
EndSplineSet
Ligature: 0 0 'liga' A uni030A
EndChar
StartChar: AE
Encoding: 198 198 144
Width: 2101
Flags: HW
Fore
988.25 1237 m 1,0,-1
 650.75 627 l 1,1,-1
 990.05 627 l 1,2,-1
 1097.15 1237 l 1,3,-1
 988.25 1237 l 1,0,-1
798.35 1493 m 1,4,-1
 2077.25 1493 l 1,5,-1
 2025.95 1202 l 1,6,-1
 1438.25 1202 l 1,7,-1
 1390.55 924 l 1,8,-1
 1943.15 924 l 1,9,-1
 1891.85 633 l 1,10,-1
 1338.35 633 l 1,11,-1
 1279.85 291 l 1,12,-1
 1885.55 291 l 1,13,-1
 1836.05 0 l 1,14,-1
 881.15 0 l 1,15,-1
 942.35 350 l 1,16,-1
 499.55 350 l 1,17,-1
 304.25 0 l 1,18,-1
 -42.25 0 l 1,19,-1
 798.35 1493 l 1,4,-1
EndSplineSet
KernsSLIF: 45 -36 0 0
EndChar
StartChar: Eth
Encoding: 208 208 232
Width: 1639
Flags: HW
Fore
708.45 1202 m 1,0,-1
 657.15 903 l 1,1,-1
 878.55 903 l 1,2,-1
 832.65 643 l 1,3,-1
 611.25 643 l 1,4,-1
 548.25 291 l 1,5,-1
 671.55 291 l 2,6,7
 915.45 291 915.45 291 1057.2 442.5 c 128,-1,8
 1198.95 594 1198.95 594 1198.95 850 c 0,9,10
 1198.95 1024 1198.95 1024 1105.8 1113 c 128,-1,11
 1012.65 1202 1012.65 1202 829.95 1202 c 2,12,-1
 708.45 1202 l 1,0,-1
412.35 1493 m 1,13,-1
 776.85 1493 l 2,14,15
 1037.85 1493 1037.85 1493 1168.35 1458.5 c 128,-1,16
 1298.85 1424 1298.85 1424 1385.25 1343 c 0,17,18
 1472.55 1262 1472.55 1262 1517.55 1146 c 128,-1,19
 1562.55 1030 1562.55 1030 1562.55 885 c 0,20,21
 1562.55 684 1562.55 684 1486.5 504 c 128,-1,22
 1410.45 324 1410.45 324 1274.55 201 c 0,23,24
 1155.75 92 1155.75 92 998.7 46 c 128,-1,25
 841.65 0 841.65 0 514.95 0 c 2,26,-1
 150.45 0 l 1,27,-1
 262.95 643 l 1,28,-1
 78.4502 643 l 1,29,-1
 124.35 903 l 1,30,-1
 308.85 903 l 1,31,-1
 412.35 1493 l 1,13,-1
EndSplineSet
KernsSLIF: 7922 -159 0 0 562 -159 0 0 374 -159 0 0 221 -159 0 0 8222 -36 0 0 8218 -36 0 0 376 -159 0 0 89 -159 0 0 45 38 0 0
EndChar
StartChar: multiply
Encoding: 215 215 239
Width: 1630
Flags: HW
Fore
1399.8 1075 m 1,0,-1
 1009.2 641 l 1,1,-1
 1399.8 209 l 1,2,-1
 1248.6 41 l 1,3,-1
 858 473 l 1,4,-1
 467.4 41 l 1,5,-1
 316.2 209 l 1,6,-1
 706.8 641 l 1,7,-1
 316.2 1075 l 1,8,-1
 467.4 1243 l 1,9,-1
 858 809 l 1,10,-1
 1248.6 1243 l 1,11,-1
 1399.8 1075 l 1,0,-1
EndSplineSet
EndChar
StartChar: Oslash
Encoding: 216 216 145
Width: 1653
Flags: HW
Fore
1163.35 1128 m 1,0,1
 1127.35 1185 1127.35 1185 1072.45 1213 c 128,-1,2
 1017.55 1241 1017.55 1241 943.75 1241 c 0,3,4
 761.95 1241 761.95 1241 640.9 1062.5 c 128,-1,5
 519.85 884 519.85 884 519.85 612 c 0,6,7
 519.85 590 519.85 590 523.45 538 c 0,8,9
 523.45 532 l 1,10,-1
 1163.35 1128 l 1,0,1
229.15 258 m 1,11,12
 191.35 332 191.35 332 172.45 410.5 c 128,-1,13
 153.55 489 153.55 489 153.55 569 c 0,14,15
 153.55 752 153.55 752 203.05 914 c 128,-1,16
 252.55 1076 252.55 1076 348.85 1206 c 0,17,18
 464.95 1365 464.95 1365 623.8 1442.5 c 128,-1,19
 782.65 1520 782.65 1520 992.35 1520 c 0,20,21
 1125.55 1520 1125.55 1520 1230.4 1481 c 128,-1,22
 1335.25 1442 1335.25 1442 1414.45 1364 c 1,23,-1
 1646.65 1579 l 1,24,-1
 1738.45 1456 l 1,25,-1
 1506.25 1243 l 1,26,27
 1546.75 1167 1546.75 1167 1567 1086 c 128,-1,28
 1587.25 1005 1587.25 1005 1587.25 920 c 0,29,30
 1587.25 738 1587.25 738 1537.3 576 c 128,-1,31
 1487.35 414 1487.35 414 1391.95 285 c 0,32,33
 1274.95 127 1274.95 127 1114.75 49 c 128,-1,34
 954.55 -29 954.55 -29 746.65 -29 c 0,35,36
 614.35 -29 614.35 -29 508.15 12 c 128,-1,37
 401.95 53 401.95 53 319.15 135 c 1,38,-1
 92.3496 -78 l 1,39,-1
 0.549805 45 l 1,40,-1
 229.15 258 l 1,11,12
572.05 371 m 1,41,42
 607.15 312 607.15 312 662.05 281 c 128,-1,43
 716.95 250 716.95 250 787.15 250 c 0,44,45
 890.65 250 890.65 250 971.2 298.5 c 128,-1,46
 1051.75 347 1051.75 347 1108.45 442 c 0,47,48
 1162.45 534 1162.45 534 1192.6 648.5 c 128,-1,49
 1222.75 763 1222.75 763 1222.75 879 c 0,50,51
 1222.75 904 1222.75 904 1216.45 957 c 0,52,53
 1215.55 965 1215.55 965 1214.65 969 c 1,54,-1
 572.05 371 l 1,41,42
EndSplineSet
KernsSLIF: 221 -36 0 0 193 -36 0 0 194 -36 0 0 376 -36 0 0 195 -36 0 0 192 -36 0 0 196 -36 0 0 89 -36 0 0 88 -73 0 0 86 -36 0 0 65 -36 0 0 46 -45 0 0 45 38 0 0 44 -45 0 0
EndChar
StartChar: Thorn
Encoding: 222 222 236
Width: 1441
Flags: HW
Fore
373.9 1493 m 1,0,-1
 720.4 1493 l 1,1,-1
 681.7 1270 l 1,2,-1
 903.1 1270 l 2,3,4
 1114.6 1270 1114.6 1270 1234.3 1162.5 c 128,-1,5
 1354 1055 1354 1055 1354 864 c 0,6,7
 1354 747 1354 747 1314.85 642.5 c 128,-1,8
 1275.7 538 1275.7 538 1201 459 c 0,9,10
 1120.9 373 1120.9 373 1008.85 334 c 128,-1,11
 896.8 295 896.8 295 731.2 295 c 2,12,-1
 509.8 295 l 1,13,-1
 458.5 0 l 1,14,-1
 112 0 l 1,15,-1
 373.9 1493 l 1,0,-1
632.2 993 m 1,16,-1
 560.2 573 l 1,17,-1
 743.8 573 l 2,18,19
 866.2 573 866.2 573 931.45 638 c 128,-1,20
 996.7 703 996.7 703 996.7 825 c 0,21,22
 996.7 907 996.7 907 951.25 950 c 128,-1,23
 905.8 993 905.8 993 817.6 993 c 2,24,-1
 632.2 993 l 1,16,-1
EndSplineSet
EndChar
StartChar: germandbls
Encoding: 223 223 137
Width: 1397
Flags: HW
Fore
322.45 1114 m 1,0,1
 360.25 1338 360.25 1338 499.3 1447 c 128,-1,2
 638.35 1556 638.35 1556 884.05 1556 c 0,3,4
 1087.45 1556 1087.45 1556 1193.2 1468 c 128,-1,5
 1298.95 1380 1298.95 1380 1298.95 1210 c 0,6,7
 1298.95 1190 1298.95 1190 1296.7 1166 c 128,-1,8
 1294.45 1142 1294.45 1142 1289.95 1115 c 1,9,-1
 1276.45 1042 l 1,10,11
 1140.55 1037 1140.55 1037 1060.45 990.5 c 128,-1,12
 980.35 944 980.35 944 980.35 872 c 0,13,14
 980.35 817 980.35 817 1072.15 745 c 0,15,16
 1080.25 739 1080.25 739 1085.65 735 c 2,17,-1
 1140.55 692 l 2,18,19
 1216.15 633 1216.15 633 1251.25 563.5 c 128,-1,20
 1286.35 494 1286.35 494 1286.35 403 c 0,21,22
 1286.35 210 1286.35 210 1161.25 90.5 c 128,-1,23
 1036.15 -29 1036.15 -29 830.95 -29 c 0,24,25
 760.75 -29 760.75 -29 692.8 -16.5 c 128,-1,26
 624.85 -4 624.85 -4 558.25 20 c 1,27,-1
 602.35 264 l 1,28,29
 652.75 237 652.75 237 702.7 223 c 128,-1,30
 752.65 209 752.65 209 799.45 209 c 0,31,32
 873.25 209 873.25 209 918.25 247 c 128,-1,33
 963.25 285 963.25 285 963.25 346 c 0,34,35
 963.25 386 963.25 386 942.55 418.5 c 128,-1,36
 921.85 451 921.85 451 852.55 506 c 2,37,-1
 797.65 549 l 2,38,39
 737.35 596 737.35 596 710.35 646.5 c 128,-1,40
 683.35 697 683.35 697 683.35 760 c 0,41,42
 683.35 898 683.35 898 765.7 997 c 128,-1,43
 848.05 1096 848.05 1096 1003.75 1145 c 1,44,45
 1004.65 1151 1004.65 1151 1005.1 1159 c 128,-1,46
 1005.55 1167 1005.55 1167 1005.55 1182 c 0,47,48
 1005.55 1249 1005.55 1249 968.65 1284 c 128,-1,49
 931.75 1319 931.75 1319 860.65 1319 c 0,50,51
 768.85 1319 768.85 1319 716.2 1265.5 c 128,-1,52
 663.55 1212 663.55 1212 644.65 1100 c 1,53,-1
 451.15 0 l 1,54,-1
 128.05 0 l 1,55,-1
 322.45 1114 l 1,0,1
EndSplineSet
EndChar
StartChar: ae
Encoding: 230 230 160
Width: 2036
Flags: HW
Fore
711.55 504 m 2,0,1
 590.95 504 590.95 504 529.3 462.5 c 128,-1,2
 467.65 421 467.65 421 467.65 340 c 0,3,4
 467.65 279 467.65 279 504.1 244 c 128,-1,5
 540.55 209 540.55 209 604.45 209 c 0,6,7
 703.45 209 703.45 209 770.05 275.5 c 128,-1,8
 836.65 342 836.65 342 859.15 463 c 1,9,-1
 866.35 504 l 1,10,-1
 711.55 504 l 2,0,1
366.85 1090 m 1,11,12
 472.15 1118 472.15 1118 572.5 1132.5 c 128,-1,13
 672.85 1147 672.85 1147 766.45 1147 c 0,14,15
 900.55 1147 900.55 1147 988.75 1110.5 c 128,-1,16
 1076.95 1074 1076.95 1074 1128.25 997 c 1,17,18
 1213.75 1074 1213.75 1074 1309.6 1110.5 c 128,-1,19
 1405.45 1147 1405.45 1147 1522.45 1147 c 0,20,21
 1723.15 1147 1723.15 1147 1842.85 1025 c 128,-1,22
 1962.55 903 1962.55 903 1962.55 702 c 0,23,24
 1962.55 657 1962.55 657 1958.05 611 c 128,-1,25
 1953.55 565 1953.55 565 1944.55 518 c 1,26,-1
 1931.95 461 l 1,27,-1
 1179.55 461 l 1,28,29
 1179.55 455 1179.55 455 1178.65 443.5 c 128,-1,30
 1177.75 432 1177.75 432 1177.75 426 c 0,31,32
 1177.75 317 1177.75 317 1236.7 263 c 128,-1,33
 1295.65 209 1295.65 209 1413.55 209 c 0,34,35
 1514.35 209 1514.35 209 1626.4 242.5 c 128,-1,36
 1738.45 276 1738.45 276 1863.55 344 c 1,37,-1
 1815.85 66 l 1,38,39
 1697.95 18 1697.95 18 1580.5 -5.5 c 128,-1,40
 1463.05 -29 1463.05 -29 1341.55 -29 c 0,41,42
 1185.85 -29 1185.85 -29 1079.65 22.5 c 128,-1,43
 973.45 74 973.45 74 914.05 178 c 1,44,45
 808.75 73 808.75 73 697.6 22 c 128,-1,46
 586.45 -29 586.45 -29 462.25 -29 c 0,47,48
 309.25 -29 309.25 -29 222.85 52 c 128,-1,49
 136.45 133 136.45 133 136.45 274 c 0,50,51
 136.45 490 136.45 490 285.4 603.5 c 128,-1,52
 434.35 717 434.35 717 718.75 717 c 2,53,-1
 903.25 717 l 1,54,-1
 908.65 746 l 1,55,56
 911.35 759 911.35 759 911.8 765 c 128,-1,57
 912.25 771 912.25 771 912.25 776 c 0,58,59
 912.25 842 912.25 842 856.45 875.5 c 128,-1,60
 800.65 909 800.65 909 692.65 909 c 0,61,62
 590.05 909 590.05 909 496.9 886 c 128,-1,63
 403.75 863 403.75 863 319.15 817 c 1,64,-1
 366.85 1090 l 1,11,12
1640.35 682 m 1,65,66
 1643.05 695 1643.05 695 1644.4 708.5 c 128,-1,67
 1645.75 722 1645.75 722 1645.75 735 c 0,68,69
 1645.75 815 1645.75 815 1602.1 862 c 128,-1,70
 1558.45 909 1558.45 909 1485.55 909 c 0,71,72
 1391.05 909 1391.05 909 1324 851 c 128,-1,73
 1256.95 793 1256.95 793 1223.65 682 c 1,74,-1
 1640.35 682 l 1,65,66
EndSplineSet
EndChar
StartChar: eth
Encoding: 240 240 233
Width: 1339
Flags: HW
Fore
935.35 743 m 1,0,1
 888.55 770 888.55 770 842.65 783.5 c 128,-1,2
 796.75 797 796.75 797 749.95 797 c 0,3,4
 623.95 797 623.95 797 550.6 703 c 128,-1,5
 477.25 609 477.25 609 477.25 451 c 0,6,7
 477.25 342 477.25 342 522.25 284.5 c 128,-1,8
 567.25 227 567.25 227 651.85 227 c 0,9,10
 777.85 227 777.85 227 858.85 353.5 c 128,-1,11
 939.85 480 939.85 480 939.85 678 c 0,12,13
 939.85 691 939.85 691 936.25 731 c 0,14,15
 936.25 738 936.25 738 935.35 743 c 1,0,1
1156.75 1100 m 2,16,17
 1214.35 1008 1214.35 1008 1243.6 902 c 128,-1,18
 1272.85 796 1272.85 796 1272.85 680 c 0,19,20
 1272.85 550 1272.85 550 1231.9 428.5 c 128,-1,21
 1190.95 307 1190.95 307 1112.65 207 c 0,22,23
 1021.75 91 1021.75 91 896.2 31 c 128,-1,24
 770.65 -29 770.65 -29 616.75 -29 c 0,25,26
 399.85 -29 399.85 -29 269.8 96 c 128,-1,27
 139.75 221 139.75 221 139.75 426 c 0,28,29
 139.75 706 139.75 706 303.55 880.5 c 128,-1,30
 467.35 1055 467.35 1055 731.05 1055 c 0,31,32
 775.15 1055 775.15 1055 814.3 1048 c 128,-1,33
 853.45 1041 853.45 1041 885.85 1028 c 1,34,-1
 749.95 1243 l 1,35,-1
 403.45 1135 l 1,36,-1
 371.95 1264 l 1,37,-1
 677.95 1358 l 1,38,-1
 554.65 1556 l 1,39,-1
 871.45 1556 l 1,40,-1
 945.25 1440 l 1,41,-1
 1291.75 1546 l 1,42,-1
 1323.25 1419 l 1,43,-1
 1017.25 1325 l 1,44,-1
 1156.75 1100 l 2,16,17
EndSplineSet
EndChar
StartChar: divide
Encoding: 247 247 184
Width: 1630
Flags: HW
Fore
720.3 395 m 1,0,-1
 996.6 395 l 1,1,-1
 996.6 86 l 1,2,-1
 720.3 86 l 1,3,-1
 720.3 395 l 1,0,-1
720.3 1198 m 1,4,-1
 996.6 1198 l 1,5,-1
 996.6 889 l 1,6,-1
 720.3 889 l 1,7,-1
 720.3 1198 l 1,4,-1
281.1 760 m 1,8,-1
 1434.9 760 l 1,9,-1
 1434.9 524 l 1,10,-1
 281.1 524 l 1,11,-1
 281.1 760 l 1,8,-1
EndSplineSet
EndChar
StartChar: oslash
Encoding: 248 248 161
Width: 1336
Flags: HW
Fore
884.45 842 m 1,0,1
 863.75 866 863.75 866 832.7 878.5 c 128,-1,2
 801.65 891 801.65 891 761.15 891 c 0,3,4
 635.15 891 635.15 891 559.1 771.5 c 128,-1,5
 483.05 652 483.05 652 474.05 438 c 1,6,-1
 884.45 842 l 1,0,1
206.75 174 m 1,7,8
 171.65 233 171.65 233 154.1 301.5 c 128,-1,9
 136.55 370 136.55 370 136.55 446 c 0,10,11
 136.55 572 136.55 572 177.5 691.5 c 128,-1,12
 218.45 811 218.45 811 296.75 911 c 0,13,14
 386.75 1028 386.75 1028 511.4 1087.5 c 128,-1,15
 636.05 1147 636.05 1147 790.85 1147 c 0,16,17
 884.45 1147 884.45 1147 961.85 1124 c 128,-1,18
 1039.25 1101 1039.25 1101 1100.45 1055 c 1,19,-1
 1273.25 1223 l 1,20,-1
 1360.55 1112 l 1,21,-1
 1195.85 950 l 1,22,23
 1232.75 891 1232.75 891 1251.2 822 c 128,-1,24
 1269.65 753 1269.65 753 1269.65 674 c 0,25,26
 1269.65 547 1269.65 547 1229.15 427.5 c 128,-1,27
 1188.65 308 1188.65 308 1111.25 209 c 0,28,29
 1020.35 93 1020.35 93 893.9 32 c 128,-1,30
 767.45 -29 767.45 -29 615.35 -29 c 0,31,32
 517.25 -29 517.25 -29 438.5 -4.5 c 128,-1,33
 359.75 20 359.75 20 298.55 70 c 1,34,-1
 124.85 -102 l 1,35,-1
 38.4502 10 l 1,36,-1
 206.75 174 l 1,7,8
518.15 283 m 1,37,38
 540.65 255 540.65 255 571.7 241 c 128,-1,39
 602.75 227 602.75 227 645.05 227 c 0,40,41
 771.95 227 771.95 227 848.9 351 c 128,-1,42
 925.85 475 925.85 475 932.15 692 c 1,43,-1
 518.15 283 l 1,37,38
EndSplineSet
EndChar
StartChar: thorn
Encoding: 254 254 237
Width: 1387
Flags: HW
Fore
477.8 162 m 1,0,-1
 374.3 -426 l 1,1,-1
 50.2998 -426 l 1,2,-1
 396.8 1556 l 1,3,-1
 720.8 1556 l 1,4,-1
 615.5 956 l 1,5,6
 689.3 1054 689.3 1054 770.3 1100.5 c 128,-1,7
 851.3 1147 851.3 1147 947.6 1147 c 0,8,9
 1117.7 1147 1117.7 1147 1216.7 1027 c 128,-1,10
 1315.7 907 1315.7 907 1315.7 700 c 0,11,12
 1315.7 571 1315.7 571 1281.05 449 c 128,-1,13
 1246.4 327 1246.4 327 1181.6 227 c 0,14,15
 1099.7 101 1099.7 101 996.65 36 c 128,-1,16
 893.6 -29 893.6 -29 775.7 -29 c 0,17,18
 672.2 -29 672.2 -29 599.75 17.5 c 128,-1,19
 527.3 64 527.3 64 477.8 162 c 1,0,-1
816.2 887 m 0,20,21
 692 887 692 887 613.25 759.5 c 128,-1,22
 534.5 632 534.5 632 534.5 428 c 0,23,24
 534.5 336 534.5 336 579.05 283.5 c 128,-1,25
 623.6 231 623.6 231 702.8 231 c 0,26,27
 824.3 231 824.3 231 903.5 356.5 c 128,-1,28
 982.7 482 982.7 482 982.7 678 c 0,29,30
 982.7 780 982.7 780 939.95 833.5 c 128,-1,31
 897.2 887 897.2 887 816.2 887 c 0,20,21
EndSplineSet
EndChar
StartChar: Dcroat
Encoding: 272 272 257
Width: 1639
Flags: HW
Fore
708.45 1202 m 1,0,-1
 657.15 903 l 1,1,-1
 878.55 903 l 1,2,-1
 832.65 643 l 1,3,-1
 611.25 643 l 1,4,-1
 548.25 291 l 1,5,-1
 671.55 291 l 2,6,7
 915.45 291 915.45 291 1057.2 442.5 c 128,-1,8
 1198.95 594 1198.95 594 1198.95 850 c 0,9,10
 1198.95 1024 1198.95 1024 1105.8 1113 c 128,-1,11
 1012.65 1202 1012.65 1202 829.95 1202 c 2,12,-1
 708.45 1202 l 1,0,-1
412.35 1493 m 1,13,-1
 776.85 1493 l 2,14,15
 1037.85 1493 1037.85 1493 1168.35 1458.5 c 128,-1,16
 1298.85 1424 1298.85 1424 1385.25 1343 c 0,17,18
 1472.55 1262 1472.55 1262 1517.55 1146 c 128,-1,19
 1562.55 1030 1562.55 1030 1562.55 885 c 0,20,21
 1562.55 684 1562.55 684 1486.5 504 c 128,-1,22
 1410.45 324 1410.45 324 1274.55 201 c 0,23,24
 1155.75 92 1155.75 92 998.7 46 c 128,-1,25
 841.65 0 841.65 0 514.95 0 c 2,26,-1
 150.45 0 l 1,27,-1
 262.95 643 l 1,28,-1
 78.4502 643 l 1,29,-1
 124.35 903 l 1,30,-1
 308.85 903 l 1,31,-1
 412.35 1493 l 1,13,-1
EndSplineSet
KernsSLIF: 7922 -159 0 0 562 -159 0 0 374 -159 0 0 221 -159 0 0 8222 -36 0 0 8218 -36 0 0 376 -159 0 0 89 -159 0 0 45 38 0 0
EndChar
StartChar: dcroat
Encoding: 273 273 255
Width: 1406
Flags: HW
Fore
653.45 231 m 0,0,1
 777.65 231 777.65 231 855.5 358 c 128,-1,2
 933.35 485 933.35 485 933.35 690 c 0,3,4
 933.35 783 933.35 783 889.7 835 c 128,-1,5
 846.05 887 846.05 887 767.75 887 c 0,6,7
 645.35 887 645.35 887 566.15 761.5 c 128,-1,8
 486.95 636 486.95 636 486.95 440 c 0,9,10
 486.95 338 486.95 338 529.7 284.5 c 128,-1,11
 572.45 231 572.45 231 653.45 231 c 0,0,1
992.75 956 m 1,12,-1
 1044.05 1251 l 1,13,-1
 688.55 1251 l 1,14,-1
 721.85 1440 l 1,15,-1
 1077.35 1440 l 1,16,-1
 1097.15 1556 l 1,17,-1
 1422.05 1556 l 1,18,-1
 1401.35 1440 l 1,19,-1
 1593.05 1440 l 1,20,-1
 1559.75 1251 l 1,21,-1
 1368.05 1251 l 1,22,-1
 1149.35 0 l 1,23,-1
 824.45 0 l 1,24,-1
 854.15 162 l 1,25,26
 780.35 64 780.35 64 699.35 17.5 c 128,-1,27
 618.35 -29 618.35 -29 522.05 -29 c 0,28,29
 351.95 -29 351.95 -29 252.95 91 c 128,-1,30
 153.95 211 153.95 211 153.95 418 c 0,31,32
 153.95 547 153.95 547 188.6 669 c 128,-1,33
 223.25 791 223.25 791 288.05 891 c 0,34,35
 369.95 1017 369.95 1017 473 1082 c 128,-1,36
 576.05 1147 576.05 1147 693.95 1147 c 0,37,38
 797.45 1147 797.45 1147 869.9 1100.5 c 128,-1,39
 942.35 1054 942.35 1054 992.75 956 c 1,12,-1
EndSplineSet
EndChar
StartChar: Hbar
Encoding: 294 294 252
Width: 1899
Flags: HW
Fore
530.6 1493 m 1,0,-1
 877.1 1493 l 1,1,-1
 844.7 1306 l 1,0,0
 1355.9 1306 l 1,0,0
 1388.3 1493 l 1,4,-1
 1734.8 1493 l 1,5,-1
 1702.4 1306 l 1,0,0
 1828.4 1306 l 1,1,-1
 1794.2 1112 l 1,2,-1
 1668.2 1112 l 1,0,0
 1473.8 0 l 1,6,-1
 1127.3 0 l 1,7,-1
 1238 633 l 1,8,-1
 726.8 633 l 1,9,-1
 616.1 0 l 1,10,-1
 269.6 0 l 1,11,-1
 464 1112 l 1,0,0
 338 1112 l 1,3,-1
 372.2 1306 l 1,0,-1
 498.2 1306 l 1,0,0
 530.6 1493 l 1,0,-1
810.5 1112 m 1,0,0
 778.1 924 l 1,2,-1
 1289.3 924 l 1,3,-1
 1321.7 1112 l 1,0,0
 810.5 1112 l 1,0,0
EndSplineSet
EndChar
StartChar: hbar
Encoding: 295 295 253
Width: 1537
Flags: HW
Fore
1371.38 682 m 2,0,-1
 1252.12 0 l 1,1,-1
 928.125 0 l 1,2,-1
 1019.03 520 l 18,4,5
 1043.78 662 1043.78 662 1048.28 722 c 128,-1,6
 1049.17 737 1049.17 737 1049.17 750 c 0,0,0
 1049.17 784 1049.17 784 1041.97 803 c 0,7,8
 1029.38 838 1029.38 838 1000.58 857.5 c 128,-1,9
 972.225 877 972.225 877 929.925 877 c 0,10,11
 829.125 877 829.125 877 756.675 790.5 c 128,-1,12
 684.225 704 684.225 704 657.225 551 c 9,13,-1
 560.925 0 l 1,14,-1
 238.725 0 l 1,15,-1
 458.325 1255 l 1,0,0
 314.325 1255 l 1,3,-1
 347.625 1449 l 1,0,-1
 491.625 1449 l 1,0,0
 510.525 1556 l 1,16,-1
 832.725 1556 l 1,17,-1
 813.825 1449 l 1,0,0
 1140.53 1449 l 1,1,-1
 1107.22 1255 l 1,2,-1
 780.525 1255 l 1,0,0
 728.325 956 l 1,18,19
 818.325 1054 818.325 1054 907.875 1100.5 c 128,-1,20
 997.875 1147 997.875 1147 1096.88 1147 c 0,21,22
 1271.47 1147 1271.47 1147 1341.22 1028 c 128,-1,23
 1385.78 952 1385.78 952 1385.78 832.5 c 0,0,0
 1385.78 764.5 1385.78 764.5 1371.38 682 c 2,0,-1
EndSplineSet
EndChar
StartChar: dotlessi
Encoding: 305 305 214
Width: 667
Flags: HW
Fore
288.1 1120 m 1,0,-1
 612.1 1120 l 1,1,-1
 415 0 l 1,2,-1
 91.9004 0 l 1,3,-1
 288.1 1120 l 1,0,-1
EndSplineSet
EndChar
StartChar: kgreenlandic
Encoding: 312 312 217
Width: 1302
Flags: HW
Fore
329.4 1120 m 1,0,-1
 651.6 1120 l 1,1,-1
 579.6 709 l 1,2,-1
 1022.4 1120 l 1,3,-1
 1396.8 1120 l 1,4,-1
 814.5 606 l 1,5,-1
 1239.3 0 l 1,6,-1
 848.7 0 l 1,7,-1
 537.3 467 l 1,8,-1
 455.4 0 l 1,9,-1
 133.2 0 l 1,10,-1
 329.4 1120 l 1,0,-1
EndSplineSet
EndChar
StartChar: Lslash
Encoding: 321 321 225
Width: 1276
Flags: HW
Fore
428.4 1493 m 1,0,-1
 774.9 1493 l 1,1,-1
 684 977 l 1,2,-1
 990 1128 l 1,3,-1
 1084.5 918 l 1,4,-1
 634.5 698 l 1,5,-1
 564.3 291 l 1,6,-1
 1170.9 291 l 1,7,-1
 1121.4 0 l 1,8,-1
 166.5 0 l 1,9,-1
 254.7 502 l 1,10,-1
 110.7 428 l 1,11,-1
 17.0996 643 l 1,12,-1
 302.4 778 l 1,13,-1
 428.4 1493 l 1,0,-1
EndSplineSet
KernsSLIF: 366 -73 0 0 356 -339 0 0 253 -253 0 0 221 -319 0 0 217 -73 0 0 219 -73 0 0 218 -73 0 0 210 -73 0 0 212 -73 0 0 211 -73 0 0 376 -319 0 0 255 -253 0 0 8217 -264 0 0 8221 -264 0 0 338 -73 0 0 213 -73 0 0 216 -73 0 0 220 -73 0 0 214 -73 0 0 121 -253 0 0 89 -319 0 0 87 -159 0 0 86 -282 0 0 85 -73 0 0 84 -339 0 0 79 -73 0 0
EndChar
StartChar: lslash
Encoding: 322 322 226
Width: 737
Flags: HW
Fore
413.2 1556 m 1,0,-1
 737.2 1556 l 1,1,-1
 645.4 1040 l 1,2,-1
 796.6 1118 l 1,3,-1
 886.6 915 l 1,4,-1
 598.6 770 l 1,5,-1
 464.5 0 l 1,6,-1
 139.6 0 l 1,7,-1
 244.9 598 l 1,8,-1
 119.8 530 l 1,9,-1
 33.4004 733 l 1,10,-1
 292.6 868 l 1,11,-1
 413.2 1556 l 1,0,-1
EndSplineSet
EndChar
StartChar: Eng
Encoding: 330 330 230
Width: 1628
Flags: HW
Fore
404.55 1493 m 1,0,-1
 715.95 1493 l 1,1,-1
 1094.85 529 l 1,2,-1
 1263.15 1493 l 1,3,-1
 1575.45 1493 l 1,4,-1
 1318.05 20 l 2,5,-1
 1278.45 -203 1278.45 -203 1158.75 -324 c 128,-1,4
 1040.85 -442 1040.85 -442 856.35 -442 c 2,5,-1
 603.45 -442 l 1,6,-1
 644.4 -207 l 1,7,-1
 793.8 -207 l 2,8,9
 885.6 -207 885.6 -207 927.9 -161 c 128,-1,10
 970.65 -115 970.65 -115 994.05 20 c 1,0,0
 623.25 964 l 1,7,-1
 454.95 0 l 1,8,-1
 143.55 0 l 1,9,-1
 404.55 1493 l 1,0,-1
EndSplineSet
EndChar
StartChar: eng
Encoding: 331 331 231
Width: 1386
Flags: HW
Fore
1299.85 682 m 2,0,-1
 1183.75 20 l 2,2,3
 1145.05 -203 1145.05 -203 1025.35 -324 c 128,-1,4
 907.45 -442 907.45 -442 722.95 -442 c 2,5,-1
 470.05 -442 l 1,6,-1
 510.55 -207 l 1,7,-1
 659.95 -207 l 2,8,9
 751.75 -207 751.75 -207 794.05 -161 c 128,-1,10
 836.35 -115 836.35 -115 859.75 20 c 2,11,-1
 947.95 522 l 2,4,5
 973.15 667 973.15 667 977.65 722 c 128,-1,6
 978.55 736 978.55 736 978.55 748 c 0,0,0
 978.55 784 978.55 784 971.35 803 c 0,7,8
 957.85 838 957.85 838 929.05 858 c 128,-1,9
 900.25 877 900.25 877 858.85 877 c 0,10,11
 758.05 877 758.05 877 685.15 790 c 128,-1,12
 612.25 704 612.25 704 586.15 551 c 2,13,-1
 488.95 0 l 1,14,-1
 166.75 0 l 1,15,-1
 362.95 1120 l 1,16,-1
 685.15 1120 l 1,17,-1
 656.35 956 l 1,18,19
 746.35 1054 746.35 1054 836.35 1100 c 128,-1,20
 926.35 1147 926.35 1147 1025.35 1147 c 0,21,22
 1199.95 1147 1199.95 1147 1270.15 1028 c 128,-1,23
 1314.25 952 1314.25 952 1314.25 833 c 0,0,0
 1314.25 765 1314.25 765 1299.85 682 c 2,0,-1
EndSplineSet
EndChar
StartChar: OE
Encoding: 338 338 176
Width: 2273
Flags: HW
Fore
1263.65 1202 m 1,0,-1
 1169.15 1202 l 2,1,2
 1043.15 1202 1043.15 1202 949.55 1178.5 c 128,-1,3
 855.95 1155 855.95 1155 787.55 1106 c 0,4,5
 685.85 1032 685.85 1032 624.2 907 c 128,-1,6
 562.55 782 562.55 782 562.55 647 c 0,7,8
 562.55 464 562.55 464 671 377.5 c 128,-1,9
 779.45 291 779.45 291 1008.95 291 c 2,10,-1
 1105.25 291 l 1,11,-1
 1263.65 1202 l 1,0,-1
1233.95 1493 m 1,12,-1
 2249.15 1493 l 1,13,-1
 2197.85 1202 l 1,14,-1
 1611.95 1202 l 1,15,-1
 1561.55 924 l 1,16,-1
 2115.05 924 l 1,17,-1
 2063.75 633 l 1,18,-1
 1510.25 633 l 1,19,-1
 1451.75 291 l 1,20,-1
 2059.25 291 l 1,21,-1
 2007.95 0 l 1,22,-1
 964.85 0 l 1,23,-1
 915.35 0 l 2,24,25
 574.25 0 574.25 0 387.05 151 c 128,-1,26
 199.85 302 199.85 302 199.85 575 c 0,27,28
 199.85 817 199.85 817 306.05 1022.5 c 128,-1,29
 412.25 1228 412.25 1228 599.45 1350 c 1,30,31
 714.65 1423 714.65 1423 856.4 1458 c 128,-1,32
 998.15 1493 998.15 1493 1182.65 1493 c 2,33,-1
 1233.95 1493 l 1,12,-1
EndSplineSet
EndChar
StartChar: oe
Encoding: 339 339 177
Width: 2128
Flags: HW
Fore
1729.85 682 m 1,0,1
 1732.55 695 1732.55 695 1733.9 708.5 c 128,-1,2
 1735.25 722 1735.25 722 1735.25 735 c 0,3,4
 1735.25 815 1735.25 815 1692.05 862 c 128,-1,5
 1648.85 909 1648.85 909 1575.05 909 c 0,6,7
 1480.55 909 1480.55 909 1412.6 850.5 c 128,-1,8
 1344.65 792 1344.65 792 1311.35 682 c 1,9,-1
 1729.85 682 l 1,0,1
2034.05 518 m 2,10,-1
 2023.25 461 l 1,11,-1
 1269.05 461 l 1,12,13
 1269.05 455 1269.05 455 1268.15 443.5 c 128,-1,14
 1267.25 432 1267.25 432 1267.25 426 c 0,15,16
 1267.25 317 1267.25 317 1326.2 263 c 128,-1,17
 1385.15 209 1385.15 209 1503.05 209 c 0,18,19
 1603.85 209 1603.85 209 1717.25 243 c 128,-1,20
 1830.65 277 1830.65 277 1954.85 344 c 1,21,-1
 1905.35 66 l 1,22,23
 1787.45 18 1787.45 18 1670.45 -5.5 c 128,-1,24
 1553.45 -29 1553.45 -29 1431.05 -29 c 0,25,26
 1291.55 -29 1291.55 -29 1201.55 10 c 128,-1,27
 1111.55 49 1111.55 49 1059.35 131 c 1,28,29
 978.35 49 978.35 49 882.05 10 c 128,-1,30
 785.75 -29 785.75 -29 662.45 -29 c 0,31,32
 436.55 -29 436.55 -29 307.4 97.5 c 128,-1,33
 178.25 224 178.25 224 178.25 444 c 0,34,35
 178.25 571 178.25 571 219.2 691.5 c 128,-1,36
 260.15 812 260.15 812 336.65 911 c 0,37,38
 427.55 1028 427.55 1028 553.55 1087.5 c 128,-1,39
 679.55 1147 679.55 1147 834.35 1147 c 0,40,41
 960.35 1147 960.35 1147 1051.7 1106.5 c 128,-1,42
 1143.05 1066 1143.05 1066 1200.65 985 c 1,43,44
 1285.25 1066 1285.25 1066 1387.85 1106.5 c 128,-1,45
 1490.45 1147 1490.45 1147 1613.75 1147 c 0,46,47
 1814.45 1147 1814.45 1147 1934.6 1025 c 128,-1,48
 2054.75 903 2054.75 903 2054.75 702 c 0,49,50
 2054.75 662 2054.75 662 2049.35 615.5 c 128,-1,51
 2043.95 569 2043.95 569 2034.05 518 c 2,10,-1
802.85 891 m 0,52,53
 677.75 891 677.75 891 596.75 765 c 128,-1,54
 515.75 639 515.75 639 515.75 444 c 0,55,56
 515.75 338 515.75 338 559.4 282.5 c 128,-1,57
 603.05 227 603.05 227 686.75 227 c 0,58,59
 811.85 227 811.85 227 892.85 353.5 c 128,-1,60
 973.85 480 973.85 480 973.85 676 c 0,61,62
 973.85 781 973.85 781 930.2 836 c 128,-1,63
 886.55 891 886.55 891 802.85 891 c 0,52,53
EndSplineSet
EndChar
StartChar: Tbar
Encoding: 358 358 231
Width: 1338
Flags: HW
TeX: 0 0 0 0
Fore
221 1493 m 1,0,-1
 1459.4 1493 l 1,1,-1
 1409 1202 l 1,2,-1
 963.5 1202 l 1,3,-1
 874.4 697 l 1,0,0
 1096.7 697 l 1,0,0
 1063.4 505 l 1,0,0
 841.1 505 l 1,0,0
 752.9 0 l 1,4,-1
 406.4 0 l 1,5,-1
 494.6 505 l 1,0,0
 272.3 505 l 1,0,0
 305.6 697 l 1,0,0
 527.9 697 l 1,0,0
 617 1202 l 1,6,-1
 170.6 1202 l 1,7,-1
 221 1493 l 1,0,-1
EndSplineSet
EndChar
StartChar: tbar
Encoding: 359 359 232
Width: 931
Flags: HW
TeX: 0 0 0 0
Fore
682.7 1438 m 1,0,-1
 626.9 1120 l 1,1,-1
 959 1120 l 1,2,-1
 914 864 l 1,3,-1
 581.9 864 l 1,4,-1
 557.6 722 l 1,0,0
 723.2 722 l 1,0,0
 689 530 l 1,0,0
 523.4 530 l 1,0,0
 499.1 389 l 2,5,6
 493.7 360 493.7 360 493.7 338 c 0,0,0
 493.7 301 493.7 301 508.1 284 c 128,-1,7
 531.5 256 531.5 256 614.3 256 c 2,8,-1
 779.9 256 l 1,9,-1
 734.9 0 l 1,10,-1
 458.6 0 l 2,11,12
 267.8 0 267.8 0 203.9 88 c 128,-1,13
 163.4 145 163.4 145 163.4 250 c 0,0,0
 163.4 311 163.4 311 176.9 389 c 2,14,-1
 201.2 530 l 1,0,0
 41 530 l 1,0,0
 75.2002 722 l 1,0,0
 235.4 722 l 1,0,0
 259.7 864 l 1,15,-1
 99.5 864 l 1,16,-1
 144.5 1120 l 1,17,-1
 304.7 1120 l 1,18,-1
 360.5 1438 l 1,19,-1
 682.7 1438 l 1,0,-1
EndSplineSet
EndChar
StartChar: longs
Encoding: 383 383 231
Width: 862
Flags: HW
TeX: 0 0 0 0
Fore
484.3 0 m 1,10,-1
 160.3 0 l 1,11,-1
 311.5 864 l 1,12,-1
 152.2 864 l 1,13,-1
 197.2 1120 l 1,14,-1
 355.6 1120 l 1,15,-1
 370 1198 l 1,16,17
 403.3 1384 403.3 1384 508.6 1470 c 128,-1,18
 613.9 1556 613.9 1556 808.3 1556 c 2,19,-1
 1055.8 1556 l 1,0,-1
 1013.5 1321 l 1,1,-1
 836.2 1321 l 2,2,3
 768.7 1321 768.7 1321 737.65 1293.5 c 128,-1,4
 706.6 1266 706.6 1266 694.9 1199 c 1,5,-1
 484.3 0 l 1,10,-1
EndSplineSet
EndChar
StartChar: florin
Encoding: 402 402 166
Width: 1349
Flags: HW
Fore
1285.15 1520 m 1,0,-1
 1241.05 1276 l 1,1,2
 1205.05 1299 1205.05 1299 1174.45 1309 c 128,-1,3
 1143.85 1319 1143.85 1319 1109.65 1319 c 0,4,5
 1028.65 1319 1028.65 1319 983.65 1261.5 c 128,-1,6
 938.65 1204 938.65 1204 914.35 1063 c 1,7,-1
 884.65 895 l 1,8,-1
 1161.85 895 l 1,9,-1
 1120.45 657 l 1,10,-1
 842.35 657 l 1,11,-1
 720.85 -16 l 1,12,13
 683.05 -223 683.05 -223 580.9 -324.5 c 128,-1,14
 478.75 -426 478.75 -426 307.75 -426 c 0,15,16
 231.25 -426 231.25 -426 166.9 -418.5 c 128,-1,17
 102.55 -411 102.55 -411 45.8496 -395 c 1,18,-1
 89.0498 -145 l 1,19,20
 125.05 -167 125.05 -167 158.35 -177.5 c 128,-1,21
 191.65 -188 191.65 -188 223.15 -188 c 0,22,23
 304.15 -188 304.15 -188 348.7 -132 c 128,-1,24
 393.25 -76 393.25 -76 418.45 68 c 1,25,-1
 523.75 657 l 1,26,-1
 284.35 657 l 1,27,-1
 326.65 895 l 1,28,-1
 566.05 895 l 1,29,-1
 610.15 1147 l 1,30,31
 647.95 1353 647.95 1353 751 1454.5 c 128,-1,32
 854.05 1556 854.05 1556 1025.05 1556 c 0,33,34
 1087.15 1556 1087.15 1556 1151.95 1547 c 128,-1,35
 1216.75 1538 1216.75 1538 1285.15 1520 c 1,0,-1
EndSplineSet
EndChar
StartChar: dotlessj
Encoding: 567 567 173
Width: 650
Flags: HW
Fore
271.85 1120 m 1,0,-1
 595.85 1120 l 1,1,-1
 402.35 20 l 2,2,3
 360.95 -215 360.95 -215 248 -328.5 c 128,-1,4
 135.05 -442 135.05 -442 -56.6504 -442 c 2,5,-1
 -216.85 -442 l 1,6,-1
 -176.35 -207 l 1,7,-1
 -119.65 -207 l 2,8,9
 -28.75 -207 -28.75 -207 13.0996 -161.5 c 128,-1,10
 54.9502 -116 54.9502 -116 78.3496 20 c 1,11,-1
 271.85 1120 l 1,0,-1
EndSplineSet
EndChar
StartChar: uni02BB
Encoding: 699 699 173
Width: 751
Flags: HW
Fore
565.3 856 m 1,0,-1
 259.3 856 l 1,1,-1
 311.5 1141 l 1,2,-1
 577 1493 l 1,3,-1
 768.7 1493 l 1,4,-1
 615.7 1141 l 1,5,-1
 565.3 856 l 1,0,-1
EndSplineSet
KernsSLIF: 221 75 0 0 193 -272 0 0 194 -272 0 0 376 75 0 0 195 -272 0 0 192 -272 0 0 198 -264 0 0 196 -272 0 0 89 75 0 0 86 38 0 0 74 -92 0 0 65 -272 0 0
EndChar
StartChar: afii57929
Encoding: 700 700 174
Width: 743
Flags: HW
TeX: 0 0 0 0
Fore
378.8 1493 m 1,0,-1
 684.8 1493 l 1,1,-1
 635.3 1208 l 1,2,-1
 368.9 856 l 1,3,-1
 177.2 856 l 1,4,-1
 329.3 1208 l 1,5,-1
 378.8 1493 l 1,0,-1
EndSplineSet
EndChar
StartChar: circumflex
Encoding: 710 710 215
Width: 981
Flags: HW
Fore
550.8 1638 m 1,0,-1
 786.6 1638 l 1,1,-1
 950.4 1262 l 1,2,-1
 790.2 1262 l 1,3,-1
 649.8 1487 l 1,4,-1
 432.9 1262 l 1,5,-1
 255.6 1262 l 1,6,-1
 550.8 1638 l 1,0,-1
EndSplineSet
EndChar
StartChar: caron
Encoding: 711 711 224
Width: 991
Flags: HW
Fore
746.3 1262 m 1,0,-1
 512.3 1262 l 1,1,-1
 347.6 1638 l 1,2,-1
 506 1638 l 1,3,-1
 646.4 1411 l 1,4,-1
 866 1638 l 1,5,-1
 1042.4 1638 l 1,6,-1
 746.3 1262 l 1,0,-1
EndSplineSet
EndChar
StartChar: breve
Encoding: 728 728 218
Width: 989
Flags: HW
Fore
376.5 1606 m 1,0,-1
 504.3 1606 l 1,1,-1
 504.3 1597 l 2,2,3
 504.3 1532 504.3 1532 543 1497 c 128,-1,4
 581.7 1462 581.7 1462 653.7 1462 c 0,5,6
 726.6 1462 726.6 1462 773.4 1497.5 c 128,-1,7
 820.2 1533 820.2 1533 845.4 1606 c 1,8,-1
 982.2 1606 l 1,9,10
 951.6 1463 951.6 1463 859.35 1386 c 128,-1,11
 767.1 1309 767.1 1309 626.7 1309 c 0,12,13
 500.7 1309 500.7 1309 437.25 1371 c 128,-1,14
 373.8 1433 373.8 1433 373.8 1554 c 0,15,16
 373.8 1575 373.8 1575 374.25 1585.5 c 128,-1,17
 374.7 1596 374.7 1596 376.5 1606 c 1,0,-1
EndSplineSet
Ligature: 0 1 'liga' space uni0306
EndChar
StartChar: dotaccent
Encoding: 729 729 219
Width: 986
Flags: HW
Fore
550.2 1585 m 1,0,-1
 796.8 1585 l 1,1,-1
 752.7 1339 l 1,2,-1
 505.2 1339 l 1,3,-1
 550.2 1585 l 1,0,-1
EndSplineSet
Ligature: 0 1 'liga' space uni0307
EndChar
StartChar: ring
Encoding: 730 730 220
Width: 987
Flags: HW
Fore
917.55 1524 m 0,0,1
 917.55 1404 917.55 1404 843.3 1321.5 c 128,-1,2
 769.05 1239 769.05 1239 661.95 1239 c 0,3,4
 553.95 1239 553.95 1239 479.7 1321.5 c 128,-1,5
 405.45 1404 405.45 1404 405.45 1524 c 0,6,7
 405.45 1644 405.45 1644 479.7 1726 c 128,-1,8
 553.95 1808 553.95 1808 661.95 1808 c 0,9,10
 769.05 1808 769.05 1808 843.3 1726 c 128,-1,11
 917.55 1644 917.55 1644 917.55 1524 c 0,0,1
796.05 1524 m 0,12,13
 796.05 1589 796.05 1589 758.25 1631 c 128,-1,14
 720.45 1673 720.45 1673 661.95 1673 c 0,15,16
 602.55 1673 602.55 1673 564.75 1631 c 128,-1,17
 526.95 1589 526.95 1589 526.95 1524 c 0,18,19
 526.95 1459 526.95 1459 565.2 1416.5 c 128,-1,20
 603.45 1374 603.45 1374 661.95 1374 c 0,21,22
 720.45 1374 720.45 1374 758.25 1416 c 128,-1,23
 796.05 1458 796.05 1458 796.05 1524 c 0,12,13
EndSplineSet
LCarets: 0 65535 '    ' 1 0 
Ligature: 0 1 'liga' space uni030A
EndChar
StartChar: ogonek
Encoding: 731 731 223
Width: 958
Flags: HW
Fore
312.9 0 m 1,0,-1
 440.7 0 l 1,1,2
 376.8 -74 376.8 -74 353.4 -114 c 128,-1,3
 330 -154 330 -154 330 -182 c 0,4,5
 330 -216 330 -216 352.05 -235 c 128,-1,6
 374.1 -254 374.1 -254 414.6 -254 c 0,7,8
 447.9 -254 447.9 -254 484.8 -246 c 128,-1,9
 521.7 -238 521.7 -238 560.4 -223 c 1,10,-1
 534.3 -375 l 1,11,12
 483 -388 483 -388 442.5 -394.5 c 128,-1,13
 402 -401 402 -401 366.9 -401 c 0,14,15
 271.5 -401 271.5 -401 221.55 -366.5 c 128,-1,16
 171.6 -332 171.6 -332 171.6 -266 c 0,17,18
 171.6 -201 171.6 -201 204.9 -138 c 128,-1,19
 238.2 -75 238.2 -75 312.9 0 c 1,0,-1
EndSplineSet
Ligature: 0 1 'liga' space uni0328
EndChar
StartChar: tilde
Encoding: 732 732 216
Width: 986
Flags: HW
Fore
636.3 1364 m 2,0,-1
 592.2 1401 l 2,1,2
 589.5 1403 589.5 1403 583.2 1408 c 0,3,4
 549 1438 549 1438 522 1438 c 0,5,6
 491.4 1438 491.4 1438 468 1403.5 c 128,-1,7
 444.6 1369 444.6 1369 435.6 1309 c 1,8,-1
 309.6 1309 l 1,9,10
 333.9 1446 333.9 1446 392.85 1519.5 c 128,-1,11
 451.8 1593 451.8 1593 536.4 1593 c 0,12,13
 568.8 1593 568.8 1593 598.95 1579.5 c 128,-1,14
 629.1 1566 629.1 1566 662.4 1536 c 2,15,-1
 710.1 1493 l 2,16,17
 726.3 1478 726.3 1478 741.6 1470 c 128,-1,18
 756.9 1462 756.9 1462 770.4 1462 c 0,19,20
 804.6 1462 804.6 1462 828 1495.5 c 128,-1,21
 851.4 1529 851.4 1529 861.3 1591 c 1,22,-1
 986.4 1591 l 1,23,24
 963 1455 963 1455 904.5 1381 c 128,-1,25
 846 1307 846 1307 761.4 1307 c 0,26,27
 730.8 1307 730.8 1307 703.8 1318.5 c 128,-1,28
 676.8 1330 676.8 1330 636.3 1364 c 2,0,-1
EndSplineSet
Ligature: 0 1 'liga' space tildecomb
EndChar
StartChar: hungarumlaut
Encoding: 733 733 222
Width: 993
Flags: HW
Fore
547.5 1638 m 1,0,-1
 772.5 1638 l 1,1,-1
 492.6 1262 l 1,2,-1
 336 1262 l 1,3,-1
 547.5 1638 l 1,0,-1
885 1638 m 1,4,-1
 1110 1638 l 1,5,-1
 800.4 1262 l 1,6,-1
 643.8 1262 l 1,7,-1
 885 1638 l 1,4,-1
EndSplineSet
Ligature: 0 1 'liga' space uni030B
EndChar
StartChar: uni0312
Encoding: 786 786 223
Width: 747
Flags: HW
TeX: 0 0 0 0
Fore
554.2 856 m 1,5,-1
 262.6 856 l 1,2,-1
 514.6 1154 l 1,3,-1
 687.4 1154 l 1,4,-1
 554.2 856 l 1,5,-1
EndSplineSet
EndChar
StartChar: uni0326
Encoding: 806 806 223
Width: 967
Flags: HW
Fore
379.8 -177 m 1,5,-1
 671.4 -177 l 1,2,-1
 419.4 -475 l 1,3,-1
 246.6 -475 l 1,4,-1
 379.8 -177 l 1,5,-1
EndSplineSet
EndChar
StartChar: Omega
Encoding: 937 937 159
Width: 1496
Flags: HW
Fore
1182.95 256 m 1,0,-1
 1444.85 256 l 1,1,-1
 1444.85 0 l 1,2,-1
 896.75 0 l 1,3,-1
 896.75 291 l 1,4,5
 1010.15 377 1010.15 377 1069.55 508.5 c 128,-1,6
 1128.95 640 1128.95 640 1128.95 805 c 0,7,8
 1128.95 1008 1128.95 1008 1037.6 1124.5 c 128,-1,9
 946.25 1241 946.25 1241 786.05 1241 c 0,10,11
 626.75 1241 626.75 1241 535.4 1124.5 c 128,-1,12
 444.05 1008 444.05 1008 444.05 805 c 0,13,14
 444.05 641 444.05 641 503.45 508.5 c 128,-1,15
 562.85 376 562.85 376 676.25 291 c 1,16,-1
 676.25 0 l 1,17,-1
 128.15 0 l 1,18,-1
 128.15 256 l 1,19,-1
 390.05 256 l 1,20,21
 276.65 377 276.65 377 221.75 516 c 128,-1,22
 166.85 655 166.85 655 166.85 819 c 0,23,24
 166.85 1132 166.85 1132 336.05 1320.5 c 128,-1,25
 505.25 1509 505.25 1509 786.05 1509 c 0,26,27
 1067.75 1509 1067.75 1509 1236.95 1320.5 c 128,-1,28
 1406.15 1132 1406.15 1132 1406.15 819 c 0,29,30
 1406.15 655 1406.15 655 1351.25 516 c 128,-1,31
 1296.35 377 1296.35 377 1182.95 256 c 1,0,-1
EndSplineSet
EndChar
StartChar: pi
Encoding: 960 960 155
Width: 1253
Flags: HW
Fore
1284.55 1092 m 1,0,-1
 1249.45 868 l 1,1,-1
 1091.05 868 l 1,2,-1
 952.45 0 l 1,3,-1
 694.15 0 l 1,4,-1
 830.95 868 l 1,5,-1
 616.75 868 l 1,6,-1
 480.85 0 l 1,7,-1
 222.55 0 l 1,8,-1
 359.35 868 l 1,9,-1
 336.85 868 l 2,10,11
 287.35 868 287.35 868 261.25 837 c 128,-1,12
 235.15 806 235.15 806 226.15 738 c 1,13,-1
 34.4502 737 l 1,14,15
 60.5498 936 60.5498 936 145.15 1014 c 128,-1,16
 229.75 1092 229.75 1092 425.05 1092 c 2,17,-1
 1284.55 1092 l 1,0,-1
EndSplineSet
EndChar
StartChar: afii10051
Encoding: 1026 1026 158
Width: 1707
Flags: HW
HStem: 0 21G<292.9 639.4> 633 291<800.5 1092.1> 1202 291<263.2 502.6 264.1 1294.6>
VStem: 1196.5 362.7<505 610>
Fore
1489.9 145 m 18,0,1
 1441.3 -134 1441.3 -134 1280.2 -272 c 0,2,3
 1120 -410 1120 -410 843.7 -410 c 2,4,-1
 773.5 -410 l 1,5,-1
 824.8 -119 l 1,6,-1
 878.8 -119 l 2,7,8
 986.8 -119 986.8 -119 1054.3 -52 c 0,9,10
 1120.9 15 1120.9 15 1143.4 145 c 2,11,-1
 1165.9 276 l 2,12,13
 1192 423 1192 423 1195.6 478 c 0,14,15
 1196.5 493 1196.5 493 1196.5 505 c 0,0,0
 1196.5 540 1196.5 540 1189.3 559 c 0,16,17
 1176.7 594 1176.7 594 1147.9 614 c 0,18,19
 1119.1 633 1119.1 633 1077.7 633 c 2,20,-1
 750.1 633 l 9,21,-1
 639.4 0 l 1,22,-1
 292.9 0 l 1,23,-1
 502.6 1202 l 1,24,-1
 212.8 1202 l 1,25,-1
 264.1 1493 l 1,26,-1
 1345.9 1493 l 1,27,-1
 1294.6 1202 l 1,28,-1
 849.1 1202 l 1,29,-1
 800.5 924 l 17,30,-1
 1270.3 924 l 2,31,32
 1443.1 924 1443.1 924 1514.2 805 c 0,33,34
 1559.2 730 1559.2 730 1559.2 610 c 0,0,0
 1559.2 542 1559.2 542 1544.8 459 c 10,35,-1
 1489.9 145 l 18,0,1
EndSplineSet
EndChar
StartChar: afii10053
Encoding: 1028 1028 160
Width: 1431
Flags: HW
HStem: -29 279<897.269 935.069> 633 291<548.069 1148.37> 1241 279<897.269 935.069>
Fore
516.688 633 m 0,0,1
 509.722 480 509.722 480 571.777 382 c 0,2,3
 656.686 250 656.686 250 840.285 250 c 0,4,5
 943.785 250 943.785 250 1043.33 284 c 128,-1,6
 1142.88 318 1142.88 318 1251.95 391 c 1,7,-1
 1197.9 82 l 1,8,9
 1092.88 27 1092.88 27 984.479 -1 c 128,-1,10
 876.075 -29 876.075 -29 763.575 -29 c 0,11,12
 427.875 -29 427.875 -29 268.239 180 c 0,13,14
 108.427 388 108.427 388 170.881 745 c 0,15,16
 233.511 1103 233.511 1103 466.273 1312 c 0,17,18
 698.862 1520 698.862 1520 1034.56 1520 c 0,19,20
 1147.06 1520 1147.06 1520 1245.66 1492 c 128,-1,21
 1344.26 1464 1344.26 1464 1430.04 1409 c 1,22,-1
 1375.99 1100 l 1,23,24
 1292.46 1173 1292.46 1173 1204.81 1207 c 128,-1,25
 1117.16 1241 1117.16 1241 1013.66 1241 c 0,26,27
 828.252 1241 828.252 1241 698.96 1109 c 0,28,29
 624.465 1033 624.465 1033 579.296 924 c 0,30,-1
 1179.6 924 l 1,31,-1
 1128.69 633 l 1,32,-1
 516.688 633 l 0,0,1
EndSplineSet
EndChar
StartChar: afii10058
Encoding: 1033 1033 165
Width: 2233
Flags: HW
HStem: 0 21G<993.55 1478.65> 1203 290<644.35 1203.25>
VStem: 1745.95 355.5<495 582>
Fore
1499.35 262 m 2,0,1
 1608.25 262 1608.25 262 1664.05 307 c 0,2,3
 1725.25 356 1725.25 356 1741.45 449 c 0,4,5
 1745.95 473 1745.95 473 1745.95 495 c 0,0,0
 1745.95 553 1745.95 553 1713.55 588 c 0,6,7
 1673.95 633 1673.95 633 1564.15 633 c 2,8,-1
 1450.75 633 l 1,9,-1
 1385.95 262 l 1,10,-1
 1499.35 262 l 2,0,1
1478.65 0 m 10,11,-1
 993.55 0 l 17,12,-1
 1203.25 1203 l 1,13,-1
 939.55 1203 l 1,14,-1
 924.25 1111 l 2,15,16
 844.15 654 844.15 654 673.15 315 c 0,17,18
 509.35 -9 509.35 -9 21.5498 -28 c 9,19,-1
 70.1504 250 l 17,20,21
 295.15 295 295.15 295 386.95 468 c 0,22,23
 503.95 689 503.95 689 594.85 1211 c 2,24,-1
 644.35 1493 l 1,25,-1
 1601.05 1493 l 1,26,-1
 1501.15 924 l 1,27,-1
 1639.75 924 l 2,28,29
 1894.45 924 1894.45 924 2018.65 807 c 0,30,31
 2101.45 730 2101.45 730 2101.45 582 c 0,0,0
 2101.45 526 2101.45 526 2089.75 461 c 8,32,33
 2048.35 223 2048.35 223 1898.05 117 c 0,34,35
 1733.35 0 1733.35 0 1478.65 0 c 10,11,-1
EndSplineSet
EndChar
StartChar: afii10059
Encoding: 1034 1034 166
Width: 2191
Flags: HW
HStem: 0 21G<147.2 493.7 914.9 1400> 633 291<655.7 1025.6 1423.4 1516.1>
VStem: 1667.3 355.5<495 580>
Fore
1420.7 262 m 2,0,1
 1529.6 262 1529.6 262 1586.3 307 c 0,2,3
 1646.6 356 1646.6 356 1662.8 449 c 0,4,5
 1667.3 473 1667.3 473 1667.3 495 c 0,0,0
 1667.3 553 1667.3 553 1634.9 588 c 0,6,7
 1595.3 633 1595.3 633 1485.5 633 c 2,8,-1
 1372.1 633 l 1,9,-1
 1307.3 262 l 1,10,-1
 1420.7 262 l 2,0,1
1400 0 m 10,11,-1
 914.9 0 l 17,12,-1
 1025.6 633 l 1,13,-1
 604.4 633 l 1,14,-1
 493.7 0 l 1,15,-1
 147.2 0 l 1,16,-1
 408.2 1493 l 1,17,-1
 754.7 1493 l 1,18,-1
 655.7 924 l 1,19,-1
 1076.9 924 l 1,20,-1
 1175.9 1493 l 1,21,-1
 1522.4 1493 l 1,22,-1
 1423.4 924 l 1,23,-1
 1562 924 l 2,24,25
 1816.7 924 1816.7 924 1940.9 807 c 0,26,27
 2022.8 730 2022.8 730 2022.8 580 c 0,0,0
 2022.8 526 2022.8 526 2012 461 c 8,28,29
 1969.7 223 1969.7 223 1820.3 117 c 0,30,31
 1654.7 0 1654.7 0 1400 0 c 10,11,-1
EndSplineSet
EndChar
StartChar: afii10060
Encoding: 1035 1035 167
Width: 1703
Flags: HW
HStem: 0 21G<252.95 599.45 1078.25 1424.75> 633 291<761.45 1053.05> 1202 291<223.25 463.55 224.15 1255.55>
VStem: 1156.55 362.7<507 610>
Fore
1231.25 924 m 2,0,1
 1404.05 924 1404.05 924 1474.25 805 c 0,2,3
 1519.25 730 1519.25 730 1519.25 610 c 0,0,0
 1519.25 542 1519.25 542 1504.85 459 c 2,4,-1
 1424.75 0 l 1,5,-1
 1078.25 0 l 1,6,-1
 1097.15 111 l 1,7,-1
 1126.85 276 l 2,8,9
 1152.05 423 1152.05 423 1155.65 478 c 0,10,11
 1156.55 494 1156.55 494 1156.55 507 c 0,0,0
 1156.55 540 1156.55 540 1150.25 559 c 0,12,13
 1136.75 594 1136.75 594 1107.95 614 c 0,14,15
 1079.15 633 1079.15 633 1037.75 633 c 2,16,-1
 710.15 633 l 9,17,-1
 599.45 0 l 1,18,-1
 252.95 0 l 1,19,-1
 463.55 1202 l 1,20,-1
 173.75 1202 l 1,21,-1
 224.15 1493 l 1,22,-1
 1305.95 1493 l 1,23,-1
 1255.55 1202 l 1,24,-1
 810.05 1202 l 1,25,-1
 761.45 924 l 17,26,-1
 1231.25 924 l 2,0,1
EndSplineSet
EndChar
StartChar: afii10145
Encoding: 1039 1039 171
Width: 1632
Flags: HW
HStem: -426 21G<520.05 865.65> 0 291<563.25 594.75 563.25 1369.65> 1473 20G<427.35 773.85 1285.05 1631.55>
Fore
940.35 0 m 25,0,-1
 865.65 -426 l 25,1,-1
 520.05 -426 l 25,2,-1
 594.75 0 l 25,3,-1
 165.45 0 l 1,4,-1
 427.35 1493 l 1,5,-1
 773.85 1493 l 1,6,-1
 563.25 291 l 1,7,-1
 1074.45 291 l 1,8,-1
 1285.05 1493 l 1,9,-1
 1631.55 1493 l 1,10,-1
 1369.65 0 l 1,11,-1
 940.35 0 l 25,0,-1
EndSplineSet
EndChar
StartChar: afii10018
Encoding: 1041 1041 173
Width: 1475
Flags: HW
HStem: 0 21G<109.55 684.65> 1202 291<370.55 1246.25>
VStem: 951.95 355.5<495 580>
Fore
705.35 262 m 2,0,1
 814.25 262 814.25 262 870.95 307 c 0,2,3
 931.25 356 931.25 356 947.45 449 c 0,4,5
 951.95 473 951.95 473 951.95 495 c 0,0,0
 951.95 553 951.95 553 919.55 588 c 0,6,7
 879.95 633 879.95 633 770.15 633 c 2,8,-1
 566.75 633 l 1,9,-1
 501.95 262 l 1,10,-1
 705.35 262 l 2,0,1
684.65 0 m 10,11,-1
 109.55 0 l 17,12,-1
 370.55 1493 l 1,13,-1
 1296.65 1493 l 25,14,-1
 1246.25 1202 l 25,15,-1
 666.65 1202 l 25,16,-1
 618.05 924 l 1,17,-1
 846.65 924 l 2,18,19
 1101.35 924 1101.35 924 1225.55 807 c 0,20,21
 1307.45 730 1307.45 730 1307.45 580 c 0,0,0
 1307.45 526 1307.45 526 1296.65 461 c 8,22,23
 1254.35 223 1254.35 223 1104.95 117 c 0,24,25
 939.35 0 939.35 0 684.65 0 c 10,11,-1
EndSplineSet
EndChar
StartChar: afii10020
Encoding: 1043 1043 175
Width: 1246
Flags: HW
Fore
110.55 0 m 1,0,-1
 457.05 0 l 1,1,-1
 667.65 1202 l 1,2,-1
 1276.05 1202 l 1,3,-1
 1326.45 1493 l 1,4,-1
 371.55 1493 l 1,5,-1
 110.55 0 l 1,0,-1
EndSplineSet
EndChar
StartChar: afii10021
Encoding: 1044 1044 176
Width: 1844
Flags: HW
HStem: -426 21G<-37.3 308.3 1285.7 1631.3> 0 291<726.8 1360.4> 1202 291<710.6 1269.5>
Fore
383 0 m 25,0,-1
 308.3 -426 l 25,1,-1
 -37.2998 -426 l 17,2,-1
 88.7002 291 l 17,3,-1
 264.2 291 l 17,4,5
 390.2 349 390.2 349 452.3 468 c 0,6,7
 570.2 695 570.2 695 661.1 1211 c 2,8,-1
 710.6 1493 l 1,9,-1
 1667.3 1493 l 17,10,-1
 1456.7 291 l 1,11,-1
 1757.3 291 l 25,12,-1
 1631.3 -426 l 25,13,-1
 1285.7 -426 l 17,14,-1
 1360.4 0 l 25,15,-1
 383 0 l 25,0,-1
726.8 292 m 25,0,0
 1110.2 291 l 1,16,-1
 1269.5 1202 l 1,17,-1
 1005.8 1202 l 1,18,-1
 989.6 1111 l 2,19,20
 907.7 640 907.7 640 726.8 292 c 25,0,0
EndSplineSet
EndChar
StartChar: afii10024
Encoding: 1046 1046 178
Width: 1969
Flags: HW
HStem: 0 21G<12.95 317.15 730.25 1076.75 1489.85 1794.05> 1473 20G<318.95 623.15 991.25 1337.75 1705.85 2010.05>
Fore
1238.75 924 m 0,0,-1
 1349.45 924 l 9,1,-1
 1705.85 1493 l 17,2,-1
 2010.05 1493 l 1,3,-1
 1573.55 796 l 1,4,-1
 1794.05 0 l 1,5,-1
 1489.85 0 l 9,6,-1
 1314.35 633 l 17,7,-1
 1187.45 633 l 0,8,-1
 1076.75 0 l 1,9,-1
 730.25 0 l 1,10,-1
 840.95 633 l 0,11,-1
 714.05 633 l 9,12,-1
 317.15 0 l 17,13,-1
 12.9502 0 l 1,14,-1
 512.45 796 l 1,15,-1
 318.95 1493 l 1,16,-1
 623.15 1493 l 9,17,-1
 781.55 924 l 17,18,-1
 892.25 924 l 0,19,-1
 991.25 1493 l 1,20,-1
 1337.75 1493 l 1,21,-1
 1238.75 924 l 0,0,-1
EndSplineSet
EndChar
StartChar: afii10026
Encoding: 1048 1048 180
Width: 1628
Flags: HW
HStem: 0 21G<124.4 511.4 1000.1 1328.6> 1473 20G<385.4 713.9 1202.6 1589.6>
Fore
1589.6 1493 m 1,0,-1
 1202.6 1493 l 1,1,-1
 534.8 469 l 1,2,-1
 713.9 1493 l 1,3,-1
 385.4 1493 l 1,4,-1
 124.4 0 l 1,5,-1
 511.4 0 l 1,6,-1
 1179.2 1024 l 1,7,-1
 1000.1 0 l 1,8,-1
 1328.6 0 l 1,9,-1
 1589.6 1493 l 1,0,-1
EndSplineSet
EndChar
StartChar: afii10029
Encoding: 1051 1051 183
Width: 1609
Flags: HW
HStem: 0 21G<965.75 1312.25> 1202 291<616.55 1175.45>
Fore
-6.25 -28 m 9,0,-1
 42.3496 250 l 17,1,2
 269.15 295 269.15 295 359.15 468 c 0,3,4
 477.05 695 477.05 695 567.05 1211 c 2,5,-1
 616.55 1493 l 1,6,-1
 1573.25 1493 l 17,7,-1
 1312.25 0 l 17,8,-1
 965.75 0 l 1,9,-1
 1175.45 1202 l 1,10,-1
 911.75 1202 l 1,11,-1
 896.45 1111 l 2,12,13
 816.35 654 816.35 654 645.35 315 c 0,14,15
 481.55 -9 481.55 -9 -6.25 -28 c 9,0,-1
EndSplineSet
EndChar
StartChar: afii10033
Encoding: 1055 1055 187
Width: 1628
Flags: HW
Fore
1589.6 1493 m 17,0,-1
 1328.6 0 l 1,1,-1
 982.1 0 l 1,2,-1
 1192.7 1202 l 1,3,-1
 681.5 1202 l 1,4,-1
 470.9 0 l 1,5,-1
 124.4 0 l 1,6,-1
 385.4 1493 l 9,7,-1
 1589.6 1493 l 17,0,-1
EndSplineSet
EndChar
StartChar: afii10037
Encoding: 1059 1059 191
Width: 1506
Flags: HW
HStem: -29 21G<116.55 287.55> 1473 20G<271.35 633.15 1220.85 1584.45>
Fore
838.35 248 m 2,0,1
 787.05 163 787.05 163 724.95 109 c 0,2,3
 563.85 -29 563.85 -29 287.55 -29 c 2,4,-1
 116.55 -29 l 1,5,-1
 167.85 262 l 1,6,-1
 371.25 262 l 2,7,8
 450.45 262 450.45 262 533.25 354 c 0,9,10
 550.35 374 550.35 374 562.05 390 c 9,11,-1
 271.35 1493 l 1,12,-1
 633.15 1493 l 1,13,-1
 812.25 813 l 1,14,-1
 1220.85 1493 l 1,15,-1
 1584.45 1493 l 1,16,-1
 838.35 248 l 2,0,1
EndSplineSet
EndChar
StartChar: afii10038
Encoding: 1060 1060 192
Width: 1653
Flags: HW
HStem: 0 21G<566.7 913.2> 1473 20G<827.7 1174.2>
VStem: 167.1 362.7<618 667> 1210.2 362.7<817 871>
Fore
994.2 463 m 0,0,1
 1040.1 482 1040.1 482 1075.2 512 c 0,2,3
 1178.7 603 1178.7 603 1203.9 745 c 0,4,5
 1210.2 783 1210.2 783 1210.2 817 c 0,0,0
 1210.2 915 1210.2 915 1157.1 979 c 0,6,7
 1132.8 1009 1132.8 1009 1093.2 1028 c 0,8,-1
 994.2 463 l 0,0,1
647.7 463 m 0,9,-1
 746.7 1028 l 0,10,11
 701.7 1009 701.7 1009 664.8 979 c 0,12,13
 563.1 896 563.1 896 537 745 c 0,14,15
 529.8 703 529.8 703 529.8 667 c 0,0,0
 529.8 570 529.8 570 582.9 512 c 0,16,17
 609 482 609 482 647.7 463 c 0,9,-1
941.1 162 m 0,18,-1
 913.2 0 l 1,19,-1
 566.7 0 l 1,20,-1
 594.6 162 l 0,21,22
 398.4 194 398.4 194 285.9 308 c 0,23,24
 167.1 428 167.1 428 167.1 618 c 0,0,0
 167.1 678 167.1 678 178.8 745 c 0,25,26
 227.4 1025 227.4 1025 438.9 1183 c 0,27,28
 591 1297 591 1297 798.9 1329 c 0,29,-1
 827.7 1493 l 1,30,-1
 1174.2 1493 l 1,31,-1
 1145.4 1329 l 0,32,33
 1342.5 1297 1342.5 1297 1454.1 1183 c 0,34,35
 1572.9 1063 1572.9 1063 1572.9 871 c 0,0,0
 1572.9 812 1572.9 812 1561.2 745 c 0,36,37
 1511.7 466 1511.7 466 1301.1 308 c 0,38,39
 1149.9 195 1149.9 195 941.1 162 c 0,18,-1
EndSplineSet
EndChar
StartChar: afii10040
Encoding: 1062 1062 194
Width: 1861
Flags: HW
HStem: -426 21G<1302.45 1648.05> 0 291<570.75 1377.15> 1473 20G<434.85 781.35 1292.55 1639.05>
Fore
1774.05 291 m 25,0,-1
 1648.05 -426 l 25,1,-1
 1302.45 -426 l 17,2,-1
 1377.15 0 l 25,3,-1
 172.95 0 l 1,4,-1
 434.85 1493 l 1,5,-1
 781.35 1493 l 1,6,-1
 570.75 291 l 1,7,-1
 1081.95 291 l 1,8,-1
 1292.55 1493 l 1,9,-1
 1639.05 1493 l 1,10,-1
 1428.45 291 l 1,11,-1
 1774.05 291 l 25,0,-1
EndSplineSet
EndChar
StartChar: afii10041
Encoding: 1063 1063 195
Width: 1580
Flags: HW
HStem: 0 21G<934.75 1281.25> 633 291<575.65 1045.45> 1473 20G<370.45 716.95 1195.75 1542.25>
VStem: 286.75 362.7<946 1047>
Fore
934.75 0 m 9,0,-1
 1281.25 0 l 17,1,-1
 1542.25 1493 l 1,2,-1
 1195.75 1493 l 1,3,-1
 1096.75 924 l 17,4,-1
 769.15 924 l 2,5,6
 727.75 924 727.75 924 698.05 943 c 0,7,8
 669.25 963 669.25 963 656.65 998 c 0,9,10
 649.45 1016 649.45 1016 649.45 1047 c 0,0,0
 649.45 1062 649.45 1062 651.25 1079 c 0,11,12
 655.75 1143 655.75 1143 680.05 1281 c 2,13,-1
 698.05 1382 l 1,14,-1
 716.95 1493 l 1,15,-1
 370.45 1493 l 1,16,-1
 301.15 1098 l 2,17,18
 286.75 1014 286.75 1014 286.75 946 c 0,0,0
 286.75 825 286.75 825 331.75 752 c 0,19,20
 404.65 633 404.65 633 575.65 633 c 2,21,-1
 1045.45 633 l 9,22,-1
 934.75 0 l 9,0,-1
EndSplineSet
EndChar
StartChar: afii10042
Encoding: 1064 1064 196
Width: 2270
Flags: HW
HStem: 0 291<555.05 1969.85> 1473 20G<419.15 765.65 1884.35 2230.85>
Fore
1287.65 291 m 9,0,-1
 1673.75 291 l 1,1,-1
 1884.35 1493 l 1,2,-1
 2230.85 1493 l 1,3,-1
 1969.85 0 l 1,4,-1
 158.15 0 l 1,5,-1
 419.15 1493 l 1,6,-1
 765.65 1493 l 1,7,-1
 555.05 291 l 1,8,-1
 941.15 291 l 1,9,-1
 1138.25 1415 l 1,10,-1
 1484.75 1415 l 1,11,-1
 1287.65 291 l 9,0,-1
EndSplineSet
EndChar
StartChar: afii10043
Encoding: 1065 1065 197
Width: 2502
Flags: HW
HStem: -426 21G<1943.7 2289.3> 0 291<604.5 2018.4> 1473 20G<468.6 815.1 1933.8 2280.3>
Fore
2069.7 291 m 17,0,-1
 2415.3 291 l 25,1,-1
 2289.3 -426 l 25,2,-1
 1943.7 -426 l 17,3,-1
 2018.4 0 l 17,4,-1
 206.7 0 l 1,5,-1
 468.6 1493 l 1,6,-1
 815.1 1493 l 1,7,-1
 604.5 291 l 1,8,-1
 990.6 291 l 1,9,-1
 1186.8 1415 l 1,10,-1
 1533.3 1415 l 1,11,-1
 1337.1 291 l 9,12,-1
 1723.2 291 l 1,13,-1
 1933.8 1493 l 1,14,-1
 2280.3 1493 l 9,15,-1
 2069.7 291 l 17,0,-1
EndSplineSet
EndChar
StartChar: afii10044
Encoding: 1066 1066 198
Width: 1827
Flags: HW
HStem: 0 21G<499.1 1074.2> 1202 291<270.5 709.7>
VStem: 1341.5 355.5<495 580>
Fore
1094.9 262 m 2,0,1
 1203.8 262 1203.8 262 1260.5 307 c 0,2,3
 1320.8 356 1320.8 356 1337 449 c 0,4,5
 1341.5 473 1341.5 473 1341.5 495 c 0,0,0
 1341.5 553 1341.5 553 1309.1 588 c 0,6,7
 1269.5 633 1269.5 633 1159.7 633 c 2,8,-1
 956.3 633 l 1,9,-1
 891.5 262 l 1,10,-1
 1094.9 262 l 2,0,1
709.7 1202 m 25,11,-1
 221 1202 l 17,12,-1
 271.4 1493 l 1,13,-1
 1106.6 1493 l 1,14,-1
 1007.6 924 l 1,15,-1
 1236.2 924 l 2,16,17
 1490.9 924 1490.9 924 1615.1 807 c 0,18,19
 1697 730 1697 730 1697 580 c 0,0,0
 1697 526 1697 526 1686.2 461 c 8,20,21
 1643.9 223 1643.9 223 1494.5 117 c 0,22,23
 1328.9 0 1328.9 0 1074.2 0 c 2,24,-1
 499.1 0 l 1,25,-1
 709.7 1202 l 25,11,-1
EndSplineSet
EndChar
StartChar: afii10046
Encoding: 1068 1068 200
Width: 1475
Flags: HW
HStem: 0 21G<109.55 684.65> 1473 20G<370.55 717.05>
VStem: 951.95 355.5<495 580>
Fore
705.35 262 m 2,0,1
 814.25 262 814.25 262 870.95 307 c 0,2,3
 931.25 356 931.25 356 947.45 449 c 0,4,5
 951.95 473 951.95 473 951.95 495 c 0,0,0
 951.95 553 951.95 553 919.55 588 c 0,6,7
 879.95 633 879.95 633 770.15 633 c 2,8,-1
 566.75 633 l 1,9,-1
 501.95 262 l 1,10,-1
 705.35 262 l 2,0,1
1296.65 461 m 8,11,12
 1254.35 223 1254.35 223 1104.95 117 c 0,13,14
 939.35 0 939.35 0 684.65 0 c 2,15,-1
 109.55 0 l 1,16,-1
 370.55 1493 l 1,17,-1
 717.05 1493 l 1,18,-1
 618.05 924 l 1,19,-1
 846.65 924 l 2,20,21
 1101.35 924 1101.35 924 1225.55 807 c 0,22,23
 1307.45 730 1307.45 730 1307.45 580 c 0,0,0
 1307.45 526 1307.45 526 1296.65 461 c 8,11,12
EndSplineSet
EndChar
StartChar: afii10047
Encoding: 1069 1069 201
Width: 1423
Flags: HW
HStem: -29 279<458.1 505.8> 633 291<334.8 986.4> 1241 279<662.4 739.8>
Fore
946.8 633 m 0,0,1
 900 480 900 480 803.7 382 c 0,2,3
 673.2 250 673.2 250 489.6 250 c 0,4,5
 386.1 250 386.1 250 297.9 284 c 128,-1,6
 210.6 318 210.6 318 126.9 391 c 1,7,-1
 72.9004 82 l 1,8,9
 158.4 27 158.4 27 257.4 -1 c 128,-1,10
 355.5 -29 355.5 -29 468 -29 c 0,11,12
 803.7 -29 803.7 -29 1036.8 180 c 0,13,14
 1269.9 388 1269.9 388 1332 745 c 0,15,16
 1349.1 845 1349.1 845 1349.1 934 c 0,0,0
 1349.1 1162 1349.1 1162 1234.8 1312 c 0,17,18
 1075.5 1520 1075.5 1520 739.8 1520 c 0,19,20
 627.3 1520 627.3 1520 518.4 1492 c 128,-1,21
 410.4 1464 410.4 1464 305.1 1409 c 1,22,-1
 251.1 1100 l 1,23,24
 360 1173 360 1173 459.9 1207 c 128,-1,25
 558.9 1241 558.9 1241 662.4 1241 c 0,26,27
 847.8 1241 847.8 1241 931.5 1109 c 0,28,29
 979.2 1033 979.2 1033 986.4 924 c 0,30,-1
 386.1 924 l 1,31,-1
 334.8 633 l 1,32,-1
 946.8 633 l 0,0,1
EndSplineSet
EndChar
StartChar: afii10048
Encoding: 1070 1070 202
Width: 2205
Flags: HW
HStem: -29 279<1276.55 1326.05> 1241 279<1498.85 1548.35>
VStem: 702.35 360.9<543 580> 1762.55 360<911 949>
Fore
765.35 924 m 1,0,1
 841.85 1162 841.85 1162 1005.65 1314 c 0,2,3
 1225.25 1520 1225.25 1520 1548.35 1520 c 0,4,5
 1872.35 1520 1872.35 1520 2019.95 1314 c 128,-1,6
 2122.55 1170 2122.55 1170 2122.55 949 c 0,0,0
 2122.55 854 2122.55 854 2103.65 745 c 0,7,8
 2040.65 383 2040.65 383 1820.15 177 c 128,-1,9
 1600.55 -29 1600.55 -29 1276.55 -29 c 0,10,11
 953.45 -29 953.45 -29 805.85 177 c 0,12,13
 702.35 322 702.35 322 702.35 543 c 0,0,0
 702.35 587 702.35 587 705.95 633 c 1,14,-1
 609.65 633 l 9,15,-1
 498.95 0 l 1,16,-1
 152.45 0 l 1,17,-1
 413.45 1493 l 1,18,-1
 759.95 1493 l 1,19,-1
 660.95 924 l 17,20,-1
 765.35 924 l 1,0,1
1498.85 1241 m 0,21,22
 1340.45 1241 1340.45 1241 1230.65 1111 c 128,-1,23
 1120.85 981 1120.85 981 1079.45 745 c 0,24,25
 1063.25 653 1063.25 653 1063.25 578 c 0,0,0
 1063.25 459 1063.25 459 1102.85 380 c 128,-1,26
 1167.65 250 1167.65 250 1326.05 250 c 0,27,28
 1485.35 250 1485.35 250 1595.15 380 c 128,-1,29
 1704.95 510 1704.95 510 1746.35 745 c 0,30,31
 1762.55 837 1762.55 837 1762.55 913 c 0,0,0
 1762.55 1032 1762.55 1032 1722.95 1111 c 128,-1,32
 1658.15 1241 1658.15 1241 1498.85 1241 c 0,21,22
EndSplineSet
EndChar
StartChar: afii10049
Encoding: 1071 1071 203
Width: 1490
Flags: HW
HStem: 0 21G<-22.1 346.9 844.6 1191.1> 565 266<826.6 943.6> 1214 279<884.2 1057>
VStem: 328.9 340.2<959 985>
Fore
843.7 831 m 2,0,1
 734.8 831 734.8 831 696.1 876 c 128,-1,2
 669.1 907 669.1 907 669.1 965 c 0,0,0
 669.1 992 669.1 992 674.5 1024 c 0,3,4
 692.5 1126 692.5 1126 747.4 1170 c 128,-1,5
 802.3 1214 802.3 1214 911.2 1214 c 2,6,-1
 1057 1214 l 1,7,-1
 989.5 831 l 1,8,-1
 843.7 831 l 2,0,1
943.6 565 m 1,9,-1
 844.6 0 l 1,10,-1
 1191.1 0 l 1,11,-1
 1452.1 1493 l 1,12,-1
 922.9 1493 l 2,13,14
 657.4 1493 657.4 1493 516.1 1394 c 128,-1,15
 375.7 1295 375.7 1295 337.9 1081 c 0,16,17
 328.9 1029 328.9 1029 328.9 983 c 0,0,0
 328.9 899 328.9 899 359.5 838 c 128,-1,18
 407.2 743 407.2 743 529.6 698 c 1,19,20
 454.9 680 454.9 680 387.4 616 c 128,-1,21
 319.9 553 319.9 553 239.8 424 c 2,22,-1
 -22.0996 0 l 1,23,-1
 346.9 0 l 1,24,-1
 575.5 371 l 2,25,26
 644.8 483 644.8 483 702.4 524 c 128,-1,27
 760.9 565 760.9 565 845.5 565 c 2,28,-1
 943.6 565 l 1,9,-1
EndSplineSet
EndChar
StartChar: afii10066
Encoding: 1073 1073 205
Width: 1336
Flags: HW
HStem: -29 254<596.25 641.25> 1282 238<850.05 923.85>
VStem: 130.95 336.6<412 448> 378.45 289.8<1191 1209> 926.55 337.5<647 689>
Fore
1219.95 1212 m 17,0,1
 1121.85 1282 1121.85 1282 864.45 1282 c 0,2,3
 681.75 1282 681.75 1282 669.15 1209 c 16,4,5
 668.25 1205 668.25 1205 668.25 1201 c 0,0,0
 668.25 1141 668.25 1141 846.45 1110 c 0,6,7
 1064.25 1073 1064.25 1073 1170.45 961 c 0,8,9
 1264.05 863 1264.05 863 1264.05 689 c 0,0,0
 1264.05 624 1264.05 624 1251.45 549 c 0,10,11
 1204.65 284 1204.65 284 1030.05 128 c 0,12,13
 854.55 -29 854.55 -29 596.25 -29 c 0,14,15
 338.85 -29 338.85 -29 217.35 128 c 0,16,17
 130.95 239 130.95 239 130.95 412 c 0,0,0
 130.95 480 130.95 480 145.35 559 c 0,18,19
 181.35 764 181.35 764 356.85 928 c 0,20,21
 411.75 978 411.75 978 474.75 1010 c 1,22,23
 378.45 1074 378.45 1074 378.45 1191 c 0,0,0
 378.45 1218 378.45 1218 383.85 1248 c 8,24,25
 431.55 1520 431.55 1520 906.75 1520 c 0,26,27
 1145.25 1520 1145.25 1520 1261.35 1450 c 9,28,-1
 1219.95 1212 l 17,0,1
679.05 880 m 1,29,30
 627.75 858 627.75 858 580.05 802 c 0,31,32
 505.35 715 505.35 715 478.35 558 c 128,-1,33
 467.55 498 467.55 498 467.55 448 c 0,0,0
 467.55 367 467.55 367 494.55 313 c 0,34,35
 537.75 225 537.75 225 641.25 225 c 0,36,37
 742.05 225 742.05 225 816.75 314 c 0,38,39
 892.35 404 892.35 404 917.55 550 c 0,40,41
 926.55 603 926.55 603 926.55 647 c 0,0,0
 926.55 729 926.55 729 894.15 777 c 0,42,43
 842.85 854 842.85 854 755.55 865 c 0,44,45
 715.05 870 715.05 870 679.05 880 c 1,29,30
EndSplineSet
EndChar
StartChar: afii10067
Encoding: 1074 1074 206
Width: 1182
Flags: HW
HStem: 0 21G<113.1 573.9> 899 221<309.3 718.8>
VStem: 760.2 300.6<367 390>
Fore
664.8 698 m 2,0,1
 720.6 698 720.6 698 753.9 723 c 0,2,3
 787.2 749 787.2 749 795.3 799 c 128,-1,4
 798 812 798 812 798 824 c 0,0,0
 798 856 798 856 780 874 c 128,-1,5
 755.7 899 755.7 899 699.9 899 c 2,6,-1
 592.8 899 l 1,7,-1
 557.7 698 l 1,8,-1
 664.8 698 l 2,0,1
592.8 224 m 2,9,10
 663.9 224 663.9 224 705.3 256 c 0,11,12
 746.7 287 746.7 287 757.5 350 c 0,13,14
 760.2 365 760.2 365 760.2 378 c 0,0,0
 760.2 418 760.2 418 737.7 442 c 0,15,16
 708 474 708 474 636 474 c 2,17,-1
 518.1 474 l 1,18,-1
 474.9 224 l 1,19,-1
 592.8 224 l 2,9,10
916.8 599 m 1,20,21
 1000.5 572 1000.5 572 1036.5 500 c 0,22,23
 1060.8 451 1060.8 451 1060.8 388 c 0,0,0
 1060.8 357 1060.8 357 1054.5 321 c 0,24,25
 1026.6 159 1026.6 159 907.8 80 c 0,26,27
 788.1 0 788.1 0 573.9 0 c 2,28,-1
 113.1 0 l 1,29,-1
 309.3 1120 l 1,30,-1
 726 1120 l 2,31,32
 950.1 1120 950.1 1120 1037.4 1049 c 0,33,34
 1104.9 995 1104.9 995 1104.9 892 c 0,0,0
 1104.9 860 1104.9 860 1098.6 824 c 0,35,36
 1084.2 742 1084.2 742 1037.4 684 c 0,37,38
 990.6 627 990.6 627 916.8 599 c 1,20,21
EndSplineSet
EndChar
StartChar: afii10068
Encoding: 1075 1075 207
Width: 1022
Flags: HW
HStem: 0 21G<111.35 433.55> 899 221<590.15 1071.65>
Fore
111.35 0 m 1,0,-1
 433.55 0 l 1,1,-1
 591.05 899 l 1,2,-1
 1032.95 899 l 1,3,-1
 1071.65 1120 l 1,4,-1
 307.55 1120 l 1,5,-1
 111.35 0 l 1,0,-1
EndSplineSet
EndChar
StartChar: afii10069
Encoding: 1076 1076 208
Width: 1581
Flags: HW
HStem: 0 221<645.4 1124.2> 899 221<573.4 1004.5>
Fore
190.9 221 m 17,0,1
 313.3 257 313.3 257 380.8 380 c 0,2,3
 473.5 550 473.5 550 536.5 908 c 2,4,-1
 573.4 1120 l 1,5,-1
 1365.4 1120 l 17,6,-1
 1207.9 221 l 1,7,-1
 1485.1 221 l 25,8,-1
 1371.7 -426 l 25,9,-1
 1049.5 -426 l 17,10,-1
 1124.2 0 l 25,11,-1
 335.8 0 l 25,12,-1
 261.1 -426 l 25,13,-1
 -61.0996 -426 l 17,14,-1
 52.2998 221 l 17,15,-1
 190.9 221 l 17,0,1
1004.5 899 m 17,16,-1
 856.9 899 l 1,17,-1
 845.2 833 l 2,18,19
 784 482 784 482 645.4 221 c 9,20,-1
 885.7 221 l 9,21,-1
 1004.5 899 l 17,16,-1
EndSplineSet
EndChar
StartChar: afii10072
Encoding: 1078 1078 210
Width: 1594
Flags: HW
HStem: 0 21G<13.05 278.55 572.85 895.05 1189.35 1455.75> 1100 20G<245.25 510.75 769.05 1091.25 1349.55 1615.95>
Fore
1016.55 694 m 0,0,-1
 1069.65 694 l 9,1,-1
 1349.55 1120 l 17,2,-1
 1615.95 1120 l 1,3,-1
 1272.15 597 l 1,4,-1
 1455.75 0 l 1,5,-1
 1189.35 0 l 9,6,-1
 1043.55 473 l 17,7,-1
 977.85 473 l 0,8,-1
 895.05 0 l 1,9,-1
 572.85 0 l 1,10,-1
 655.65 473 l 0,11,-1
 589.95 473 l 9,12,-1
 278.55 0 l 17,13,-1
 13.0498 0 l 1,14,-1
 405.45 597 l 1,15,-1
 245.25 1120 l 1,16,-1
 510.75 1120 l 9,17,-1
 642.15 694 l 17,18,-1
 694.35 694 l 0,19,-1
 769.05 1120 l 1,20,-1
 1091.25 1120 l 1,21,-1
 1016.55 694 l 0,0,-1
EndSplineSet
EndChar
StartChar: afii10073
Encoding: 1079 1079 211
Width: 1078
Flags: HW
HStem: -29 230<347.25 399.45> 919 228<515.55 616.35>
VStem: 626.25 294.3<357 383>
Fore
741.45 604 m 1,0,1
 845.85 574 845.85 574 889.95 502 c 128,-1,2
 920.55 452 920.55 452 920.55 383 c 0,0,0
 920.55 352 920.55 352 914.25 318 c 0,3,4
 883.65 145 883.65 145 745.95 58 c 128,-1,5
 608.25 -29 608.25 -29 373.35 -29 c 0,6,7
 290.55 -29 290.55 -29 209.55 -15 c 0,8,9
 129.45 -1 129.45 -1 52.9502 27 c 1,10,-1
 97.0498 279 l 1,11,12
 154.65 243 154.65 243 235.65 221 c 0,13,14
 308.55 201 308.55 201 377.85 201 c 0,15,16
 482.25 201 482.25 201 547.95 240 c 0,17,18
 614.55 280 614.55 280 624.45 338 c 0,19,20
 626.25 348 626.25 348 626.25 357 c 0,0,0
 626.25 404 626.25 404 581.25 437 c 0,21,22
 531.75 474 531.75 474 415.65 474 c 2,23,-1
 309.45 474 l 1,24,-1
 349.05 698 l 1,25,-1
 460.65 698 l 2,26,27
 565.95 698 565.95 698 616.35 728 c 0,28,29
 673.05 762 673.05 762 681.15 806 c 0,30,31
 682.05 812 682.05 812 682.05 818 c 0,0,0
 682.05 853 682.05 853 644.25 884 c 0,32,33
 601.05 919 601.05 919 515.55 919 c 0,34,35
 462.45 919 462.45 919 383.25 903 c 128,-1,36
 304.05 887 304.05 887 244.65 860 c 1,37,-1
 286.95 1099 l 1,38,39
 372.45 1123 372.45 1123 456.15 1135 c 0,40,41
 538.05 1147 538.05 1147 616.35 1147 c 0,42,43
 825.15 1147 825.15 1147 916.95 1075 c 0,44,45
 988.05 1020 988.05 1020 988.05 916 c 0,0,0
 988.05 887 988.05 887 982.65 853 c 0,46,47
 965.55 756 965.55 756 904.35 692 c 0,48,49
 843.15 629 843.15 629 741.45 604 c 1,0,1
EndSplineSet
EndChar
StartChar: afii10074
Encoding: 1080 1080 212
Width: 1343
Flags: HW
HStem: 0 21G<122.45 457.25 762.35 1086.35> 1100 20G<318.65 640.85 947.75 1282.55>
Fore
1282.55 1120 m 1,0,-1
 1086.35 0 l 1,1,-1
 762.35 0 l 1,2,-1
 865.85 593 l 1,3,-1
 457.25 0 l 1,4,-1
 122.45 0 l 1,5,-1
 318.65 1120 l 1,6,-1
 640.85 1120 l 1,7,-1
 536.45 524 l 1,8,-1
 947.75 1120 l 1,9,-1
 1282.55 1120 l 1,0,-1
EndSplineSet
EndChar
StartChar: afii10076
Encoding: 1082 1082 214
Width: 1233
Flags: HW
Fore
325.6 1120 m 1,0,-1
 647.8 1120 l 1,1,-1
 591.1 799 l 1,2,-1
 966.4 1120 l 1,3,-1
 1324.6 1120 l 1,4,-1
 714.4 590 l 1,5,-1
 1181.5 0 l 1,6,-1
 799 0 l 1,7,-1
 513.7 353 l 1,8,-1
 451.6 0 l 1,9,-1
 129.4 0 l 1,10,-1
 325.6 1120 l 1,0,-1
EndSplineSet
EndChar
StartChar: afii10077
Encoding: 1083 1083 215
Width: 1339
Flags: HW
HStem: 0 21G<754.55 1076.75> 899 221<480.95 912.05>
Fore
-5.9502 -29 m 9,0,-1
 39.0498 227 l 17,1,2
 223.55 261 223.55 261 288.35 380 c 0,3,4
 381.05 550 381.05 550 444.05 908 c 2,5,-1
 480.95 1120 l 1,6,-1
 1272.95 1120 l 17,7,-1
 1076.75 0 l 17,8,-1
 754.55 0 l 1,9,-1
 912.05 899 l 1,10,-1
 764.45 899 l 1,11,-1
 752.75 833 l 2,12,13
 696.05 507 696.05 507 549.35 231 c 0,14,15
 420.65 -12 420.65 -12 -5.9502 -29 c 9,0,-1
EndSplineSet
EndChar
StartChar: afii10078
Encoding: 1084 1084 216
Width: 1589
Flags: HW
HStem: 0 21G<135.35 457.55 1010.15 1331.45> 1100 20G<331.55 702.35 1155.95 1527.65>
Fore
331.55 1120 m 1,0,-1
 702.35 1120 l 1,1,-1
 831.05 560 l 1,2,-1
 1155.95 1120 l 1,3,-1
 1527.65 1120 l 1,4,-1
 1331.45 0 l 1,5,-1
 1010.15 0 l 1,6,-1
 1121.75 635 l 1,7,-1
 877.85 215 l 1,8,-1
 666.35 215 l 1,9,-1
 569.15 635 l 1,10,-1
 457.55 0 l 1,11,-1
 135.35 0 l 1,12,-1
 331.55 1120 l 1,0,-1
EndSplineSet
EndChar
StartChar: afii10079
Encoding: 1085 1085 217
Width: 1343
Flags: HW
HStem: 0 21G<122.45 444.65 764.15 1086.35> 473 221<566.15 846.95> 1100 20G<318.65 640.85 960.35 1282.55>
Fore
318.65 1120 m 1,0,-1
 640.85 1120 l 1,1,-1
 566.15 694 l 1,2,-1
 885.65 694 l 1,3,-1
 960.35 1120 l 1,4,-1
 1282.55 1120 l 1,5,-1
 1086.35 0 l 1,6,-1
 764.15 0 l 1,7,-1
 846.95 473 l 1,8,-1
 527.45 473 l 1,9,-1
 444.65 0 l 1,10,-1
 122.45 0 l 1,11,-1
 318.65 1120 l 1,0,-1
EndSplineSet
EndChar
StartChar: afii10081
Encoding: 1087 1087 219
Width: 1343
Flags: HW
HStem: 0 21G<122.45 444.65 764.15 1086.35> 899 221<318.65 921.65>
Fore
1282.55 1120 m 17,0,-1
 1086.35 0 l 1,1,-1
 764.15 0 l 1,2,-1
 921.65 899 l 1,3,-1
 602.15 899 l 1,4,-1
 444.65 0 l 1,5,-1
 122.45 0 l 1,6,-1
 318.65 1120 l 9,7,-1
 1282.55 1120 l 17,0,-1
EndSplineSet
EndChar
StartChar: afii10084
Encoding: 1090 1090 222
Width: 1135
Flags: HW
HStem: 0 21G<338.45 659.75> 899 221<167.45 495.95 168.35 1182.65>
Fore
168.35 1120 m 1,0,-1
 1221.35 1120 l 1,1,-1
 1182.65 899 l 1,2,-1
 817.25 899 l 1,3,-1
 659.75 0 l 1,4,-1
 338.45 0 l 1,5,-1
 495.95 899 l 1,6,-1
 129.65 899 l 1,7,-1
 168.35 1120 l 1,0,-1
EndSplineSet
EndChar
StartChar: afii10086
Encoding: 1092 1092 224
Width: 1779
Flags: HW
HStem: -29 244<438.75 555.75 1187.55 1218.15> 907 240<635.85 676.35> 1473 20G<963.45 1226.25>
VStem: 148.95 270.9<347 425> 1444.05 270<697 771>
Fore
433.35 561 m 0,0,1
 419.85 486 419.85 486 419.85 425 c 0,0,0
 419.85 356 419.85 356 437.85 307 c 128,-1,2
 470.25 215 470.25 215 555.75 215 c 128,-1,3
 641.25 215 641.25 215 706.95 307 c 128,-1,4
 772.65 399 772.65 399 800.55 561 c 128,-1,5
 814.05 635 814.05 635 814.05 695 c 0,0,0
 814.05 765 814.05 765 796.05 815 c 128,-1,6
 761.85 907 761.85 907 676.35 907 c 128,-1,7
 590.85 907 590.85 907 526.95 815 c 128,-1,8
 462.15 723 462.15 723 433.35 561 c 0,0,1
890.55 -426 m 9,9,-1
 627.75 -426 l 17,10,-1
 730.35 158 l 1,11,12
 665.55 64 665.55 64 593.55 18 c 0,13,14
 519.75 -29 519.75 -29 438.75 -29 c 0,15,16
 259.65 -29 259.65 -29 190.35 123 c 0,17,18
 148.95 212 148.95 212 148.95 347 c 0,0,0
 148.95 442 148.95 442 169.65 559 c 0,19,20
 218.25 839 218.25 839 340.65 993 c 128,-1,21
 463.05 1147 463.05 1147 635.85 1147 c 0,22,23
 726.75 1147 726.75 1147 786.15 1098 c 0,24,25
 843.75 1049 843.75 1049 868.95 952 c 1,26,-1
 963.45 1493 l 1,27,-1
 1226.25 1493 l 1,28,-1
 1131.75 952 l 1,29,30
 1190.25 1049 1190.25 1049 1266.75 1098 c 128,-1,31
 1342.35 1147 1342.35 1147 1433.25 1147 c 0,32,33
 1606.05 1147 1606.05 1147 1674.45 993 c 128,-1,34
 1714.05 903 1714.05 903 1714.05 771 c 0,0,0
 1714.05 676 1714.05 676 1694.25 559 c 0,35,36
 1644.75 275 1644.75 275 1520.55 123 c 0,37,38
 1397.25 -29 1397.25 -29 1218.15 -29 c 0,39,40
 1137.15 -29 1137.15 -29 1081.35 18 c 0,41,42
 1025.55 64 1025.55 64 993.15 158 c 1,43,-1
 890.55 -426 l 9,9,-1
1430.55 561 m 0,44,45
 1444.05 636 1444.05 636 1444.05 697 c 0,0,0
 1444.05 766 1444.05 766 1426.95 815 c 128,-1,46
 1393.65 907 1393.65 907 1308.15 907 c 128,-1,47
 1222.65 907 1222.65 907 1157.85 815 c 128,-1,48
 1092.15 723 1092.15 723 1063.35 561 c 128,-1,49
 1050.75 487 1050.75 487 1050.75 427 c 0,0,0
 1050.75 357 1050.75 357 1068.75 307 c 128,-1,50
 1102.05 215 1102.05 215 1187.55 215 c 128,-1,51
 1273.05 215 1273.05 215 1337.85 307 c 128,-1,52
 1402.65 399 1402.65 399 1430.55 561 c 0,44,45
EndSplineSet
EndChar
StartChar: afii10088
Encoding: 1094 1094 226
Width: 1566
Flags: HW
HStem: 0 221<492.5 1095.5> 1100 20G<327.8 650 969.5 1291.7>
Fore
1020.8 -426 m 9,0,-1
 1095.5 0 l 25,1,-1
 131.6 0 l 17,2,-1
 327.8 1120 l 1,3,-1
 650 1120 l 1,4,-1
 492.5 221 l 1,5,-1
 812 221 l 1,6,-1
 969.5 1120 l 1,7,-1
 1291.7 1120 l 1,8,-1
 1134.2 221 l 1,9,-1
 1456.4 221 l 1,10,-1
 1343 -426 l 1,11,-1
 1020.8 -426 l 9,0,-1
EndSplineSet
EndChar
StartChar: afii10089
Encoding: 1095 1095 227
Width: 1337
Flags: HW
HStem: 0 21G<704.05 1026.25> 473 221<455.65 786.85> 1100 20G<284.65 606.85 900.25 1222.45>
VStem: 222.55 334.8<714 788>
Fore
704.05 0 m 9,0,-1
 1026.25 0 l 17,1,-1
 1222.45 1120 l 1,2,-1
 900.25 1120 l 1,3,-1
 825.55 694 l 17,4,-1
 652.75 694 l 2,5,6
 620.35 694 620.35 694 596.95 708 c 0,7,8
 572.65 723 572.65 723 561.85 748 c 0,9,10
 557.35 761 557.35 761 557.35 788 c 0,0,0
 557.35 797 557.35 797 557.35 809 c 0,11,12
 560.95 857 560.95 857 578.95 961 c 2,13,-1
 591.55 1036 l 1,14,-1
 606.85 1120 l 1,15,-1
 284.65 1120 l 1,16,-1
 232.45 824 l 2,17,18
 222.55 764 222.55 764 222.55 714 c 0,0,0
 222.55 620 222.55 620 260.35 564 c 0,19,20
 320.65 473 320.65 473 455.65 473 c 2,21,-1
 786.85 473 l 9,22,-1
 704.05 0 l 9,0,-1
EndSplineSet
EndChar
StartChar: afii10090
Encoding: 1096 1096 228
Width: 1868
Flags: HW
HStem: 0 221<508.55 1599.35> 1100 20G<345.65 666.05 1475.15 1795.55>
Fore
1072.85 221 m 9,0,-1
 1317.65 221 l 1,1,-1
 1475.15 1120 l 1,2,-1
 1795.55 1120 l 1,3,-1
 1599.35 0 l 1,4,-1
 149.45 0 l 1,5,-1
 345.65 1120 l 1,6,-1
 666.05 1120 l 1,7,-1
 508.55 221 l 1,8,-1
 753.35 221 l 1,9,-1
 900.05 1061 l 1,10,-1
 1219.55 1061 l 1,11,-1
 1072.85 221 l 9,0,-1
EndSplineSet
EndChar
StartChar: afii10091
Encoding: 1097 1097 229
Width: 2079
Flags: HW
HStem: 0 221<517.75 1608.55> 1100 20G<354.85 675.25 1484.35 1804.75>
Fore
1484.35 1120 m 9,0,-1
 1804.75 1120 l 25,1,-1
 1647.25 221 l 17,2,-1
 1970.35 221 l 1,3,-1
 1856.95 -426 l 1,4,-1
 1533.85 -426 l 9,5,-1
 1608.55 0 l 17,6,-1
 158.65 0 l 1,7,-1
 354.85 1120 l 1,8,-1
 675.25 1120 l 1,9,-1
 517.75 221 l 1,10,-1
 762.55 221 l 1,11,-1
 909.25 1061 l 1,12,-1
 1228.75 1061 l 1,13,-1
 1082.05 221 l 9,14,-1
 1326.85 221 l 1,15,-1
 1484.35 1120 l 9,0,-1
EndSplineSet
EndChar
StartChar: afii10092
Encoding: 1098 1098 230
Width: 1461
Flags: HW
HStem: 0 21G<400 859.9> 899 221<204.7 557.5>
VStem: 1047.1 306<378 433>
Fore
879.7 224 m 2,0,1
 950.8 224 950.8 224 992.2 256 c 0,2,3
 1033.6 287 1033.6 287 1044.4 350 c 0,4,5
 1047.1 365 1047.1 365 1047.1 378 c 0,0,0
 1047.1 417 1047.1 417 1024.6 442 c 0,6,7
 994.9 474 994.9 474 922.9 474 c 2,8,-1
 805 474 l 1,9,-1
 761.8 224 l 1,10,-1
 879.7 224 l 2,0,1
400 0 m 1,11,-1
 557.5 899 l 25,12,-1
 166.9 899 l 17,13,-1
 205.6 1120 l 1,14,-1
 918.4 1120 l 1,15,-1
 843.7 695 l 1,16,-1
 981.4 695 l 2,17,18
 1183.9 695 1183.9 695 1285.6 607 c 0,19,20
 1353.1 548 1353.1 548 1353.1 433 c 0,0,0
 1353.1 393 1353.1 393 1345 346 c 8,21,22
 1314.4 167 1314.4 167 1194.7 88 c 0,23,24
 1062.4 0 1062.4 0 859.9 0 c 2,25,-1
 400 0 l 1,11,-1
EndSplineSet
EndChar
StartChar: afii10094
Encoding: 1100 1100 232
Width: 1179
Flags: HW
HStem: 0 21G<110.95 570.85> 1100 20G<307.15 629.35>
VStem: 758.05 306<378 433>
Fore
590.65 224 m 2,0,1
 661.75 224 661.75 224 703.15 256 c 0,2,3
 744.55 287 744.55 287 755.35 350 c 0,4,5
 758.05 365 758.05 365 758.05 378 c 0,0,0
 758.05 417 758.05 417 735.55 442 c 0,6,7
 705.85 474 705.85 474 633.85 474 c 2,8,-1
 515.95 474 l 1,9,-1
 472.75 224 l 1,10,-1
 590.65 224 l 2,0,1
1055.95 346 m 8,11,12
 1025.35 167 1025.35 167 905.65 88 c 0,13,14
 775.15 0 775.15 0 570.85 0 c 2,15,-1
 110.95 0 l 1,16,-1
 307.15 1120 l 1,17,-1
 629.35 1120 l 1,18,-1
 554.65 695 l 1,19,-1
 692.35 695 l 2,20,21
 894.85 695 894.85 695 996.55 607 c 0,22,23
 1064.05 548 1064.05 548 1064.05 433 c 0,0,0
 1064.05 393 1064.05 393 1055.95 346 c 8,11,12
EndSplineSet
EndChar
StartChar: afii10095
Encoding: 1101 1101 233
Width: 1250
Flags: HW
HStem: -29 238<450.35 495.35> 449 220<273.05 794.15> 909 238<598.85 669.95>
VStem: 834.65 323.1<690 724>
Fore
91.25 40 m 9,0,0
 137.15 303 l 17,0,0
 205.55 265 205.55 265 273.05 242 c 0,18,19
 371.15 209 371.15 209 476.45 209 c 0,16,17
 602.45 209 602.45 209 683.45 272 c 0,14,15
 764.45 335 764.45 335 794.15 449 c 1,12,13
 235.25 450 l 9,11,-1
 273.05 670 l 17,10,-1
 832.85 669 l 1,9,-1
 834.65 685 834.65 685 834.65 700 c 0,0,0
 834.65 791 834.65 791 784.25 846 c 0,7,8
 726.65 909 726.65 909 598.85 909 c 0,5,6
 496.25 909 496.25 909 383.75 876 c 0,3,4
 325.25 858 325.25 858 304.55 848 c 1,1,2
 348.65 1101 l 1,0,-1
 349.55 1103 349.55 1103 436.85 1122 c 0,35,36
 552.95 1147 552.95 1147 669.95 1147 c 0,33,34
 943.55 1147 943.55 1147 1068.65 992 c 0,31,32
 1157.75 881 1157.75 881 1157.75 706 c 0,0,0
 1157.75 638 1157.75 638 1144.25 559 c 8,29,30
 1095.65 280 1095.65 280 917.45 126 c 0,27,28
 737.45 -29 737.45 -29 463.85 -29 c 0,25,26
 346.85 -29 346.85 -29 239.75 -4 c 0,23,24
 147.95 18 147.95 18 91.25 40 c 9,0,0
EndSplineSet
EndChar
StartChar: afii10096
Encoding: 1102 1102 234
Width: 1785
Flags: HW
HStem: -29 256<1043.3 1088.3> 891 256<1204.4 1249.4>
VStem: 577.1 338.4<410 442> 1375.4 337.5<674 709>
Fore
579.8 473 m 1,0,-1
 550.1 473 l 1,1,-1
 467.3 0 l 1,2,-1
 145.1 0 l 1,3,-1
 341.3 1120 l 1,4,-1
 663.5 1120 l 1,5,-1
 588.8 694 l 1,6,-1
 624.8 694 l 1,7,8
 684.2 875 684.2 875 813.8 991 c 0,9,10
 988.4 1147 988.4 1147 1249.4 1147 c 0,11,12
 1509.5 1147 1509.5 1147 1629.2 991 c 0,13,14
 1712.9 880 1712.9 880 1712.9 709 c 0,0,0
 1712.9 639 1712.9 639 1699.4 559 c 128,-1,15
 1650.8 283 1650.8 283 1478 127 c 0,16,17
 1303.4 -29 1303.4 -29 1043.3 -29 c 0,18,19
 782.3 -29 782.3 -29 662.6 127 c 0,20,21
 577.1 238 577.1 238 577.1 410 c 0,0,0
 577.1 441 577.1 441 579.8 473 c 1,0,-1
1204.4 891 m 0,22,23
 1097.3 891 1097.3 891 1026.2 806 c 0,24,25
 955.1 720 955.1 720 927.2 559 c 128,-1,26
 915.5 493 915.5 493 915.5 440 c 0,0,0
 915.5 363 915.5 363 939.8 312 c 0,27,28
 981.2 227 981.2 227 1088.3 227 c 0,29,30
 1193.6 227 1193.6 227 1264.7 312 c 0,31,32
 1334.9 398 1334.9 398 1363.7 559 c 128,-1,33
 1375.4 625 1375.4 625 1375.4 678 c 0,0,0
 1375.4 755 1375.4 755 1351.1 806 c 0,34,35
 1309.7 891 1309.7 891 1204.4 891 c 0,22,23
EndSplineSet
EndChar
StartChar: afii10097
Encoding: 1103 1103 235
Width: 1242
Flags: HW
HStem: 0 21G<-4.94999 321.75 665.55 987.75> 409 221<685.35 737.55> 901 219<728.55 823.05>
VStem: 267.75 304.2<719 743>
Fore
705.15 630 m 2,0,-1
 776.25 630 l 1,1,-1
 823.05 901 l 1,2,-1
 751.95 901 l 2,3,4
 670.05 901 670.05 901 629.55 871 c 0,5,6
 588.15 839 588.15 839 575.55 767 c 0,7,8
 571.95 745 571.95 745 571.95 727 c 0,0,0
 571.95 685 571.95 685 593.55 662 c 0,9,10
 623.25 630 623.25 630 705.15 630 c 2,0,-1
737.55 409 m 1,11,-1
 704.25 409 l 2,12,13
 636.75 409 636.75 409 590.85 378 c 0,14,15
 546.75 349 546.75 349 500.85 278 c 2,16,-1
 321.75 0 l 1,17,-1
 -4.9502 0 l 1,18,-1
 201.15 318 l 2,19,20
 264.15 415 264.15 415 317.25 462 c 0,21,22
 370.35 510 370.35 510 429.75 524 c 1,23,24
 331.65 557 331.65 557 292.95 628 c 0,25,26
 267.75 676 267.75 676 267.75 741 c 0,0,0
 267.75 774 267.75 774 274.05 811 c 0,27,28
 301.95 971 301.95 971 413.55 1046 c 0,29,30
 526.05 1120 526.05 1120 738.45 1120 c 2,31,-1
 1183.95 1120 l 1,32,-1
 987.75 0 l 1,33,-1
 665.55 0 l 1,34,-1
 737.55 409 l 1,11,-1
EndSplineSet
EndChar
StartChar: afii10099
Encoding: 1106 1106 238
Width: 1380
Flags: HW
HStem: 0 21G<120.95 443.15> 794 270<797.75 965.15> 1237 205<233.45 337.85 695.15 953.45> 1237 319<393.65 953.45>
VStem: 917.45 336.6<665 750>
Fore
1137.95 20 m 18,0,1
 1098.35 -205 1098.35 -205 980.45 -324 c 0,2,3
 862.55 -442 862.55 -442 678.05 -442 c 2,4,-1
 516.95 -442 l 1,5,-1
 558.35 -207 l 1,6,-1
 614.15 -207 l 2,7,8
 705.95 -207 705.95 -207 748.25 -161 c 128,-1,9
 790.55 -115 790.55 -115 813.95 20 c 2,10,-1
 830.15 111 l 1,11,-1
 886.85 437 l 2,12,13
 912.95 584 912.95 584 916.55 639 c 0,14,15
 917.45 653 917.45 653 917.45 665 c 0,0,0
 917.45 701 917.45 701 910.25 720 c 0,16,17
 897.65 755 897.65 755 868.85 774 c 0,18,19
 839.15 794 839.15 794 797.75 794 c 0,20,21
 696.95 794 696.95 794 624.95 708 c 0,22,23
 552.05 621 552.05 621 525.05 468 c 2,24,-1
 443.15 0 l 1,25,-1
 120.95 0 l 1,26,-1
 337.85 1237 l 1,27,-1
 199.25 1237 l 1,28,-1
 234.35 1442 l 1,29,-1
 372.95 1442 l 1,30,-1
 393.65 1556 l 1,31,-1
 715.85 1556 l 1,32,-1
 695.15 1442 l 1,33,-1
 988.55 1442 l 1,34,-1
 953.45 1237 l 1,35,-1
 660.05 1237 l 9,36,-1
 596.15 873 l 17,37,38
 686.15 971 686.15 971 776.15 1018 c 0,39,40
 866.15 1064 866.15 1064 965.15 1064 c 0,41,42
 1139.75 1064 1139.75 1064 1209.95 945 c 0,43,44
 1254.05 869 1254.05 869 1254.05 750 c 0,0,0
 1254.05 682 1254.05 682 1239.65 599 c 10,45,-1
 1137.95 20 l 18,0,1
EndSplineSet
EndChar
StartChar: afii10101
Encoding: 1108 1108 240
Width: 1250
Flags: HW
Fore
1013.15 40 m 9,0,0
 1059.05 303 l 17,0,0
 978.05 265 978.05 265 901.55 242 c 0,18,19
 792.65 209 792.65 209 687.35 209 c 0,16,17
 561.35 209 561.35 209 501.95 272 c 0,14,15
 451.55 325 451.55 325 451.55 415 c 0,0,0
 451.55 431 451.55 431 453.35 449 c 1,12,13
 1013.15 450 l 9,11,-1
 1051.85 670 l 17,10,-1
 491.15 669 l 1,9,-1
 520.85 782 520.85 782 602.75 846 c 0,7,8
 681.95 909 681.95 909 809.75 909 c 0,5,6
 911.45 909 911.45 909 1013.15 876 c 0,3,4
 1065.35 858 1065.35 858 1082.45 848 c 1,1,2
 1126.55 1101 l 0,0,0
 1126.55 1103 1126.55 1103 1045.55 1122 c 0,35,36
 939.35 1147 939.35 1147 821.45 1147 c 0,33,34
 547.85 1147 547.85 1147 368.75 992 c 0,31,32
 190.55 838 190.55 838 141.95 559 c 16,29,30
 128.45 481 128.45 481 128.45 412 c 0,0,0
 128.45 237 128.45 237 217.55 126 c 0,27,28
 342.65 -29 342.65 -29 616.25 -29 c 0,25,26
 734.15 -29 734.15 -29 849.35 -4 c 0,23,24
 948.35 18 948.35 18 1013.15 40 c 9,0,0
EndSplineSet
EndChar
StartChar: afii10106
Encoding: 1113 1113 245
Width: 1856
Flags: HW
HStem: 0 21G<778.7 1238.6> 898 222<505.1 936.2>
VStem: 1425.8 306<378 433>
Fore
1258.4 224 m 2,0,1
 1329.5 224 1329.5 224 1370.9 256 c 0,2,3
 1412.3 287 1412.3 287 1423.1 350 c 0,4,5
 1425.8 365 1425.8 365 1425.8 378 c 0,0,0
 1425.8 417 1425.8 417 1403.3 442 c 0,6,7
 1373.6 474 1373.6 474 1301.6 474 c 2,8,-1
 1183.7 474 l 1,9,-1
 1140.5 224 l 1,10,-1
 1258.4 224 l 2,0,1
1238.6 0 m 10,11,-1
 778.7 0 l 17,12,-1
 936.2 898 l 1,13,-1
 788.6 898 l 1,14,-1
 776.9 833 l 2,15,16
 720.2 507 720.2 507 573.5 231 c 0,17,18
 444.8 -12 444.8 -12 18.2002 -29 c 9,19,-1
 63.2002 227 l 17,20,21
 247.7 261 247.7 261 312.5 380 c 0,22,23
 405.2 550 405.2 550 468.2 908 c 2,24,-1
 505.1 1120 l 1,25,-1
 1297.1 1120 l 1,26,-1
 1222.4 695 l 1,27,-1
 1360.1 695 l 2,28,29
 1562.6 695 1562.6 695 1664.3 607 c 0,30,31
 1731.8 548 1731.8 548 1731.8 433 c 0,0,0
 1731.8 393 1731.8 393 1723.7 346 c 8,32,33
 1693.1 167 1693.1 167 1573.4 88 c 0,34,35
 1442.9 0 1442.9 0 1238.6 0 c 10,11,-1
EndSplineSet
EndChar
StartChar: afii10107
Encoding: 1114 1114 246
Width: 1856
Flags: HW
HStem: 473 221<590.3 871.1 1232 1328.3>
VStem: 1435.4 306<378 433>
Fore
1268 224 m 2,0,1
 1339.1 224 1339.1 224 1380.5 256 c 0,2,3
 1421.9 287 1421.9 287 1432.7 350 c 0,4,5
 1435.4 365 1435.4 365 1435.4 378 c 0,0,0
 1435.4 417 1435.4 417 1412.9 442 c 0,6,7
 1383.2 474 1383.2 474 1311.2 474 c 2,8,-1
 1193.3 474 l 1,9,-1
 1150.1 224 l 1,10,-1
 1268 224 l 2,0,1
1248.2 0 m 10,11,-1
 788.3 0 l 17,12,-1
 871.1 473 l 1,13,-1
 551.6 473 l 1,14,-1
 468.8 0 l 1,15,-1
 146.6 0 l 1,16,-1
 342.8 1120 l 1,17,-1
 665 1120 l 1,18,-1
 590.3 694 l 1,19,-1
 909.8 694 l 1,20,-1
 984.5 1120 l 1,21,-1
 1306.7 1120 l 1,22,-1
 1232 695 l 1,23,-1
 1369.7 695 l 2,24,25
 1572.2 695 1572.2 695 1673.9 607 c 0,26,27
 1741.4 548 1741.4 548 1741.4 433 c 0,0,0
 1741.4 393 1741.4 393 1733.3 346 c 8,28,29
 1702.7 167 1702.7 167 1583 88 c 0,30,31
 1452.5 0 1452.5 0 1248.2 0 c 10,11,-1
EndSplineSet
EndChar
StartChar: afii10108
Encoding: 1115 1115 247
Width: 1380
Flags: HW
HStem: 0 21G<120.95 443.15 810.35 1134.35> 794 270<797.75 965.15> 1237 205<233.45 337.85 695.15 953.45> 1237 319<393.65 953.45>
VStem: 917.45 336.6<665 750>
Fore
596.15 873 m 17,0,1
 686.15 971 686.15 971 776.15 1018 c 0,2,3
 866.15 1064 866.15 1064 965.15 1064 c 0,4,5
 1139.75 1064 1139.75 1064 1209.95 945 c 0,6,7
 1254.05 869 1254.05 869 1254.05 750 c 0,0,0
 1254.05 682 1254.05 682 1239.65 599 c 2,8,-1
 1134.35 0 l 1,9,-1
 810.35 0 l 1,10,-1
 830.15 111 l 1,11,-1
 886.85 437 l 2,12,13
 912.95 584 912.95 584 916.55 639 c 0,14,15
 917.45 653 917.45 653 917.45 665 c 0,0,0
 917.45 701 917.45 701 910.25 720 c 0,16,17
 897.65 755 897.65 755 868.85 774 c 0,18,19
 839.15 794 839.15 794 797.75 794 c 0,20,21
 696.95 794 696.95 794 624.95 708 c 0,22,23
 552.05 621 552.05 621 525.05 468 c 2,24,-1
 443.15 0 l 1,25,-1
 120.95 0 l 1,26,-1
 337.85 1237 l 1,27,-1
 199.25 1237 l 1,28,-1
 234.35 1442 l 1,29,-1
 372.95 1442 l 1,30,-1
 393.65 1556 l 1,31,-1
 715.85 1556 l 1,32,-1
 695.15 1442 l 1,33,-1
 988.55 1442 l 1,34,-1
 953.45 1237 l 1,35,-1
 660.05 1237 l 9,36,-1
 596.15 873 l 17,0,1
EndSplineSet
EndChar
StartChar: afii10193
Encoding: 1119 1119 251
Width: 1343
Flags: HW
HStem: 0 221<483.35 1086.35> 1100 20G<318.65 640.85 960.35 1282.55>
Fore
690.35 -426 m 17,0,-1
 368.15 -426 l 9,1,-1
 442.85 0 l 25,2,-1
 122.45 0 l 1,3,-1
 318.65 1120 l 1,4,-1
 640.85 1120 l 1,5,-1
 483.35 221 l 1,6,-1
 802.85 221 l 1,7,-1
 960.35 1120 l 1,8,-1
 1282.55 1120 l 1,9,-1
 1086.35 0 l 1,10,-1
 765.05 0 l 25,11,-1
 690.35 -426 l 17,0,-1
EndSplineSet
EndChar
StartChar: uni2010
Encoding: 8208 8208 237
Width: 804
Flags: HW
Fore
137.5 735 m 1,0,-1
 702.7 735 l 1,1,-1
 651.4 444 l 1,2,-1
 85.2998 444 l 1,3,-1
 137.5 735 l 1,0,-1
EndSplineSet
KernsSLIF: 356 -301 0 0 221 -339 0 0 376 -339 0 0 89 -339 0 0 88 -206 0 0 87 -92 0 0 86 -149 0 0 84 -301 0 0
EndChar
StartChar: figuredash
Encoding: 8210 8210 239
Width: 969
Flags: HW
Fore
38.6504 690 m 1,0,-1
 960.25 690 l 1,1,-1
 914.35 432 l 1,2,-1
 -7.25 432 l 1,3,-1
 38.6504 690 l 1,0,-1
EndSplineSet
EndChar
StartChar: endash
Encoding: 8211 8211 178
Width: 969
Flags: HW
Fore
38.6504 690 m 1,0,-1
 960.25 690 l 1,1,-1
 914.35 432 l 1,2,-1
 -7.25 432 l 1,3,-1
 38.6504 690 l 1,0,-1
EndSplineSet
EndChar
StartChar: emdash
Encoding: 8212 8212 179
Width: 1942
Flags: HW
Fore
89.8496 690 m 1,0,-1
 1933.05 690 l 1,1,-1
 1887.15 432 l 1,2,-1
 43.9502 432 l 1,3,-1
 89.8496 690 l 1,0,-1
EndSplineSet
EndChar
StartChar: afii00208
Encoding: 8213 8213 180
Width: 1942
Flags: HW
Fore
89.8496 690 m 1,0,-1
 1933.05 690 l 1,1,-1
 1887.15 432 l 1,2,-1
 43.9502 432 l 1,3,-1
 89.8496 690 l 1,0,-1
EndSplineSet
EndChar
StartChar: quoteleft
Encoding: 8216 8216 182
Width: 751
Flags: HW
Fore
565.3 856 m 1,0,-1
 259.3 856 l 1,1,-1
 311.5 1141 l 1,2,-1
 577 1493 l 1,3,-1
 768.7 1493 l 1,4,-1
 615.7 1141 l 1,5,-1
 565.3 856 l 1,0,-1
EndSplineSet
KernsSLIF: 221 75 0 0 193 -272 0 0 194 -272 0 0 376 75 0 0 195 -272 0 0 192 -272 0 0 198 -264 0 0 196 -272 0 0 89 75 0 0 86 38 0 0 74 -92 0 0 65 -272 0 0
EndChar
StartChar: quoteright
Encoding: 8217 8217 183
Width: 743
Flags: HW
Fore
380.75 1493 m 1,0,-1
 686.75 1493 l 1,1,-1
 636.35 1208 l 1,2,-1
 369.05 856 l 1,3,-1
 178.25 856 l 1,4,-1
 330.35 1208 l 1,5,-1
 380.75 1493 l 1,0,-1
EndSplineSet
EndChar
StartChar: quotesinglbase
Encoding: 8218 8218 196
Width: 721
Flags: HW
Fore
161.7 387 m 1,0,-1
 467.7 387 l 1,1,-1
 417.3 102 l 1,2,-1
 150 -250 l 1,3,-1
 -41.7002 -250 l 1,4,-1
 111.3 102 l 1,5,-1
 161.7 387 l 1,0,-1
EndSplineSet
KernsSLIF: 356 -452 0 0 221 -415 0 0 376 -415 0 0 89 -415 0 0 87 -225 0 0 86 -339 0 0 84 -452 0 0
EndChar
StartChar: quotedblleft
Encoding: 8220 8220 180
Width: 1265
Flags: HW
Fore
1079.1 856 m 1,0,-1
 773.1 856 l 1,1,-1
 822.6 1141 l 1,2,-1
 1088.1 1493 l 1,3,-1
 1279.8 1493 l 1,4,-1
 1128.6 1141 l 1,5,-1
 1079.1 856 l 1,0,-1
592.2 856 m 1,6,-1
 286.2 856 l 1,7,-1
 338.4 1141 l 1,8,-1
 603.9 1493 l 1,9,-1
 795.6 1493 l 1,10,-1
 642.6 1141 l 1,11,-1
 592.2 856 l 1,6,-1
EndSplineSet
KernsSLIF: 221 38 0 0 193 -264 0 0 194 -264 0 0 376 38 0 0 195 -264 0 0 192 -264 0 0 198 -301 0 0 196 -264 0 0 89 38 0 0 74 -92 0 0 65 -264 0 0
EndChar
StartChar: quotedblright
Encoding: 8221 8221 181
Width: 1257
Flags: HW
Fore
891.85 1493 m 1,0,-1
 1197.85 1493 l 1,1,-1
 1148.35 1208 l 1,2,-1
 882.85 856 l 1,3,-1
 691.15 856 l 1,4,-1
 842.35 1208 l 1,5,-1
 891.85 1493 l 1,0,-1
407.65 1493 m 1,6,-1
 713.65 1493 l 1,7,-1
 663.25 1208 l 1,8,-1
 395.95 856 l 1,9,-1
 205.15 856 l 1,10,-1
 357.25 1208 l 1,11,-1
 407.65 1493 l 1,6,-1
EndSplineSet
EndChar
StartChar: quotedblbase
Encoding: 8222 8222 197
Width: 1235
Flags: HW
Fore
672.8 387 m 1,0,-1
 978.8 387 l 1,1,-1
 929.3 102 l 1,2,-1
 663.8 -250 l 1,3,-1
 472.1 -250 l 1,4,-1
 623.3 102 l 1,5,-1
 672.8 387 l 1,0,-1
188.6 387 m 1,6,-1
 494.6 387 l 1,7,-1
 444.2 102 l 1,8,-1
 176.9 -250 l 1,9,-1
 -14.7998 -250 l 1,10,-1
 138.2 102 l 1,11,-1
 188.6 387 l 1,6,-1
EndSplineSet
KernsSLIF: 356 -452 0 0 221 -415 0 0 376 -415 0 0 89 -415 0 0 87 -225 0 0 86 -339 0 0 84 -452 0 0
EndChar
StartChar: dagger
Encoding: 8224 8224 130
Width: 977
Flags: HW
Fore
493.8 1493 m 1,0,-1
 790.8 1493 l 1,1,-1
 724.2 1112 l 1,2,-1
 984.3 1112 l 1,3,-1
 943.8 874 l 1,4,-1
 683.7 874 l 1,5,-1
 495.6 -197 l 1,6,-1
 199.5 -197 l 1,7,-1
 385.8 874 l 1,8,-1
 125.7 874 l 1,9,-1
 166.2 1112 l 1,10,-1
 428.1 1112 l 1,11,-1
 493.8 1493 l 1,0,-1
EndSplineSet
EndChar
StartChar: daggerdbl
Encoding: 8225 8225 194
Width: 970
Flags: HW
Fore
487.05 1493 m 1,0,-1
 784.05 1493 l 1,1,-1
 717.45 1112 l 1,2,-1
 977.55 1112 l 1,3,-1
 937.05 874 l 1,4,-1
 675.15 874 l 1,5,-1
 595.95 422 l 1,6,-1
 857.85 422 l 1,7,-1
 815.55 184 l 1,8,-1
 555.45 184 l 1,9,-1
 488.85 -197 l 1,10,-1
 190.95 -197 l 1,11,-1
 256.65 184 l 1,12,-1
 -2.5498 184 l 1,13,-1
 39.75 422 l 1,14,-1
 299.85 422 l 1,15,-1
 379.05 874 l 1,16,-1
 118.95 874 l 1,17,-1
 159.45 1112 l 1,18,-1
 419.55 1112 l 1,19,-1
 487.05 1493 l 1,0,-1
EndSplineSet
EndChar
StartChar: bullet
Encoding: 8226 8226 135
Width: 1243
Flags: HW
Fore
330.95 762 m 0,0,1
 330.95 836 330.95 836 354.8 901 c 128,-1,2
 378.65 966 378.65 966 424.55 1016 c 0,3,4
 472.25 1067 472.25 1067 530.75 1093.5 c 128,-1,5
 589.25 1120 589.25 1120 654.95 1120 c 0,6,7
 720.65 1120 720.65 1120 779.6 1093 c 128,-1,8
 838.55 1066 838.55 1066 883.55 1016 c 0,9,10
 930.35 964 930.35 964 954.2 899.5 c 128,-1,11
 978.05 835 978.05 835 978.05 762 c 0,12,13
 978.05 688 978.05 688 953.75 622.5 c 128,-1,14
 929.45 557 929.45 557 883.55 506 c 0,15,16
 837.65 455 837.65 455 778.7 428 c 128,-1,17
 719.75 401 719.75 401 653.15 401 c 0,18,19
 587.45 401 587.45 401 528.95 428 c 128,-1,20
 470.45 455 470.45 455 424.55 506 c 0,21,22
 379.55 557 379.55 557 355.25 622.5 c 128,-1,23
 330.95 688 330.95 688 330.95 762 c 0,0,1
EndSplineSet
EndChar
StartChar: ellipsis
Encoding: 8230 8230 171
Width: 1937
Flags: HW
Fore
819.2 387 m 1,0,-1
 1143.2 387 l 1,1,-1
 1075.7 0 l 1,2,-1
 750.8 0 l 1,3,-1
 819.2 387 l 1,0,-1
247.7 387 m 1,4,-1
 571.7 387 l 1,5,-1
 504.2 0 l 1,6,-1
 179.3 0 l 1,7,-1
 247.7 387 l 1,4,-1
1390.7 387 m 1,8,-1
 1714.7 387 l 1,9,-1
 1646.3 0 l 1,10,-1
 1322.3 0 l 1,11,-1
 1390.7 387 l 1,8,-1
EndSplineSet
Ligature: 0 1 'liga' period period period
EndChar
StartChar: perthousand
Encoding: 8240 8240 198
Width: 2829
Flags: HW
Fore
2419.8 784 m 0,0,1
 2560.2 784 2560.2 784 2645.7 698.5 c 128,-1,2
 2731.2 613 2731.2 613 2731.2 473 c 0,3,4
 2731.2 250 2731.2 250 2611.5 110.5 c 128,-1,5
 2491.8 -29 2491.8 -29 2298.3 -29 c 0,6,7
 2157 -29 2157 -29 2071.95 57.5 c 128,-1,8
 1986.9 144 1986.9 144 1986.9 285 c 0,9,10
 1986.9 507 1986.9 507 2107.05 645.5 c 128,-1,11
 2227.2 784 2227.2 784 2419.8 784 c 0,0,1
2391.9 616 m 0,12,13
 2314.5 616 2314.5 616 2265 532 c 128,-1,14
 2215.5 448 2215.5 448 2215.5 315 c 0,15,16
 2215.5 228 2215.5 228 2242.95 184.5 c 128,-1,17
 2270.4 141 2270.4 141 2326.2 141 c 0,18,19
 2404.5 141 2404.5 141 2453.55 225 c 128,-1,20
 2502.6 309 2502.6 309 2502.6 444 c 0,21,22
 2502.6 529 2502.6 529 2474.7 572.5 c 128,-1,23
 2446.8 616 2446.8 616 2391.9 616 c 0,12,13
1557.6 616 m 0,24,25
 1480.2 616 1480.2 616 1430.25 532 c 128,-1,26
 1380.3 448 1380.3 448 1380.3 315 c 0,27,28
 1380.3 228 1380.3 228 1407.75 184.5 c 128,-1,29
 1435.2 141 1435.2 141 1491 141 c 0,30,31
 1569.3 141 1569.3 141 1618.8 225 c 128,-1,32
 1668.3 309 1668.3 309 1668.3 444 c 0,33,34
 1668.3 529 1668.3 529 1639.95 572.5 c 128,-1,35
 1611.6 616 1611.6 616 1557.6 616 c 0,24,25
1582.8 784 m 0,36,37
 1724.1 784 1724.1 784 1809.15 698.5 c 128,-1,38
 1894.2 613 1894.2 613 1894.2 473 c 0,39,40
 1894.2 249 1894.2 249 1774.95 110 c 128,-1,41
 1655.7 -29 1655.7 -29 1463.1 -29 c 0,42,43
 1321.8 -29 1321.8 -29 1236.75 57.5 c 128,-1,44
 1151.7 144 1151.7 144 1151.7 285 c 0,45,46
 1151.7 507 1151.7 507 1270.95 645.5 c 128,-1,47
 1390.2 784 1390.2 784 1582.8 784 c 0,36,37
627.9 -29 m 1,48,-1
 407.4 -29 l 1,49,-1
 1518.9 1520 l 1,50,-1
 1739.4 1520 l 1,51,-1
 627.9 -29 l 1,48,-1
683.7 1520 m 0,52,53
 824.1 1520 824.1 1520 909.6 1434 c 128,-1,54
 995.1 1348 995.1 1348 995.1 1208 c 0,55,56
 995.1 985 995.1 985 874.95 846 c 128,-1,57
 754.8 707 754.8 707 562.2 707 c 0,58,59
 420.9 707 420.9 707 335.85 792 c 128,-1,60
 250.8 877 250.8 877 250.8 1018 c 0,61,62
 250.8 1240 250.8 1240 370.95 1380 c 128,-1,63
 491.1 1520 491.1 1520 683.7 1520 c 0,52,53
655.8 1352 m 0,64,65
 578.4 1352 578.4 1352 528.9 1267.5 c 128,-1,66
 479.4 1183 479.4 1183 479.4 1051 c 0,67,68
 479.4 963 479.4 963 506.85 918.5 c 128,-1,69
 534.3 874 534.3 874 589.2 874 c 0,70,71
 667.5 874 667.5 874 717 959 c 128,-1,72
 766.5 1044 766.5 1044 766.5 1180 c 0,73,74
 766.5 1264 766.5 1264 738.15 1308 c 128,-1,75
 709.8 1352 709.8 1352 655.8 1352 c 0,64,65
EndSplineSet
EndChar
StartChar: guilsinglleft
Encoding: 8249 8249 190
Width: 802
Flags: HW
Fore
696.9 1063 m 1,0,-1
 652.8 811 l 1,1,-1
 341.4 582 l 1,2,-1
 573.6 360 l 1,3,-1
 534.9 137 l 1,4,-1
 155.1 506 l 1,5,-1
 188.4 692 l 1,6,-1
 696.9 1063 l 1,0,-1
EndSplineSet
EndChar
StartChar: guilsinglright
Encoding: 8250 8250 191
Width: 797
Flags: HW
Fore
108 135 m 1,0,-1
 152.1 389 l 1,1,-1
 461.7 618 l 1,2,-1
 231.3 840 l 1,3,-1
 270 1063 l 1,4,-1
 648 692 l 1,5,-1
 616.5 506 l 1,6,-1
 108 135 l 1,0,-1
EndSplineSet
EndChar
StartChar: Euro
Encoding: 8364 8364 258
Width: 1348
Flags: HW
Fore
1137.15 70 m 1,0,1
 1025.55 21 1025.55 21 922.5 -4 c 128,-1,2
 819.45 -29 819.45 -29 727.65 -29 c 0,3,4
 506.25 -29 506.25 -29 368.1 103 c 128,-1,5
 229.95 235 229.95 235 196.65 477 c 1,6,-1
 -9.4502 477 l 1,7,-1
 69.75 672 l 1,8,-1
 194.85 672 l 1,9,10
 196.65 704 196.65 704 201.6 739 c 128,-1,11
 206.55 774 206.55 774 217.35 821 c 1,12,-1
 58.9502 821 l 1,13,-1
 136.35 1016 l 1,14,-1
 275.85 1016 l 1,15,16
 364.05 1247 364.05 1247 546.75 1383.5 c 128,-1,17
 729.45 1520 729.45 1520 950.85 1520 c 0,18,19
 1045.35 1520 1045.35 1520 1140.3 1492.5 c 128,-1,20
 1235.25 1465 1235.25 1465 1332.45 1409 c 1,21,-1
 1282.95 1100 l 1,22,23
 1209.15 1181 1209.15 1181 1132.2 1219 c 128,-1,24
 1055.25 1257 1055.25 1257 963.45 1257 c 0,25,26
 862.65 1257 862.65 1257 776.25 1195 c 128,-1,27
 689.85 1133 689.85 1133 628.65 1016 c 1,28,-1
 1075.95 1016 l 1,29,-1
 998.55 821 l 1,30,-1
 563.85 821 l 1,31,32
 557.55 787 557.55 787 553.05 751 c 128,-1,33
 548.55 715 548.55 715 545.85 672 c 1,34,-1
 940.05 672 l 1,35,-1
 860.85 477 l 1,36,-1
 556.65 477 l 1,37,38
 578.25 358 578.25 358 648 295.5 c 128,-1,39
 717.75 233 717.75 233 827.55 233 c 0,40,41
 910.35 233 910.35 233 1003.5 276.5 c 128,-1,42
 1096.65 320 1096.65 320 1190.25 401 c 1,43,-1
 1137.15 70 l 1,0,1
EndSplineSet
EndChar
StartChar: trademark
Encoding: 8482 8482 140
Width: 1938
Flags: HW
Fore
1133.35 1493 m 1,0,-1
 1240.45 1266 l 1,1,-1
 1347.55 1493 l 1,2,-1
 1551.85 1493 l 1,3,-1
 1551.85 915 l 1,4,-1
 1398.85 915 l 1,5,-1
 1398.85 1352 l 1,6,-1
 1275.55 1096 l 1,7,-1
 1207.15 1096 l 1,8,-1
 1083.85 1352 l 1,9,-1
 1083.85 915 l 1,10,-1
 929.05 915 l 1,11,-1
 929.05 1493 l 1,12,-1
 1133.35 1493 l 1,0,-1
827.35 1493 m 1,13,-1
 827.35 1350 l 1,14,-1
 670.75 1350 l 1,15,-1
 670.75 915 l 1,16,-1
 515.95 915 l 1,17,-1
 515.95 1350 l 1,18,-1
 361.15 1350 l 1,19,-1
 361.15 1493 l 1,20,-1
 827.35 1493 l 1,13,-1
EndSplineSet
Ligature: 0 1 'liga' T M
EndChar
StartChar: partialdiff
Encoding: 8706 8706 152
Width: 1058
Flags: HW
Fore
745.1 684 m 1,0,1
 764 797 764 797 773.9 890 c 128,-1,2
 783.8 983 783.8 983 783.8 1040 c 0,3,4
 783.8 1127 783.8 1127 757.25 1188 c 128,-1,5
 730.7 1249 730.7 1249 695.6 1249 c 0,6,7
 664.1 1249 664.1 1249 576.8 1156 c 128,-1,8
 489.5 1063 489.5 1063 414.8 1063 c 0,9,10
 371.6 1063 371.6 1063 342.8 1096.5 c 128,-1,11
 314 1130 314 1130 314 1180 c 0,12,13
 314 1249 314 1249 397.7 1305.5 c 128,-1,14
 481.4 1362 481.4 1362 595.7 1362 c 0,15,16
 784.7 1362 784.7 1362 894.95 1201 c 128,-1,17
 1005.2 1040 1005.2 1040 1005.2 760 c 0,18,19
 1005.2 416 1005.2 416 858.95 195.5 c 128,-1,20
 712.7 -25 712.7 -25 483.2 -25 c 0,21,22
 319.4 -25 319.4 -25 214.1 91.5 c 128,-1,23
 108.8 208 108.8 208 108.8 391 c 0,24,25
 108.8 594 108.8 594 216.35 727 c 128,-1,26
 323.9 860 323.9 860 485 860 c 0,27,28
 575.9 860 575.9 860 638.45 817.5 c 128,-1,29
 701 775 701 775 745.1 684 c 1,0,1
683.9 532 m 0,30,31
 683.9 646 683.9 646 651.05 708 c 128,-1,32
 618.2 770 618.2 770 557 770 c 0,33,34
 470.6 770 470.6 770 412.55 633.5 c 128,-1,35
 354.5 497 354.5 497 354.5 287 c 0,36,37
 354.5 171 354.5 171 387.35 111 c 128,-1,38
 420.2 51 420.2 51 483.2 51 c 0,39,40
 570.5 51 570.5 51 627.2 186.5 c 128,-1,41
 683.9 322 683.9 322 683.9 532 c 0,30,31
EndSplineSet
EndChar
StartChar: Delta
Encoding: 8710 8710 168
Width: 1355
Flags: HW
Fore
713.05 1110 m 1,0,-1
 419.65 256 l 1,1,-1
 1007.35 256 l 1,2,-1
 713.05 1110 l 1,0,-1
578.05 1473 m 1,3,-1
 848.95 1473 l 1,4,-1
 1355.65 0 l 1,5,-1
 71.3496 0 l 1,6,-1
 578.05 1473 l 1,3,-1
EndSplineSet
EndChar
StartChar: product
Encoding: 8719 8719 154
Width: 1531
Flags: HW
Fore
215.4 1473 m 1,0,-1
 1392.6 1473 l 1,1,-1
 1392.6 -393 l 1,2,-1
 1083 -393 l 1,3,-1
 1083 1184 l 1,4,-1
 525 1184 l 1,5,-1
 525 -393 l 1,6,-1
 215.4 -393 l 1,7,-1
 215.4 1473 l 1,0,-1
EndSplineSet
EndChar
StartChar: summation
Encoding: 8721 8721 153
Width: 1396
Flags: HW
Fore
132.8 1473 m 1,0,-1
 1310 1473 l 1,1,-1
 1310 1208 l 1,2,-1
 519.8 1208 l 1,3,-1
 1077.8 563 l 1,4,-1
 518 -127 l 1,5,-1
 1357.7 -127 l 1,6,-1
 1357.7 -393 l 1,7,-1
 110.3 -393 l 1,8,-1
 110.3 -221 l 1,9,-1
 738.5 551 l 1,10,-1
 132.8 1241 l 1,11,-1
 132.8 1473 l 1,0,-1
EndSplineSet
EndChar
StartChar: minus
Encoding: 8722 8722 238
Width: 1630
Flags: HW
Fore
281.1 760 m 1,0,-1
 1434.9 760 l 1,1,-1
 1434.9 524 l 1,2,-1
 281.1 524 l 1,3,-1
 281.1 760 l 1,0,-1
EndSplineSet
EndChar
StartChar: fraction
Encoding: 8725 8725 188
Width: 324
Flags: HW
Fore
-274.5 -29 m 1,0,-1
 -495 -29 l 1,1,-1
 616.5 1520 l 1,2,-1
 837 1520 l 1,3,-1
 -274.5 -29 l 1,0,-1
EndSplineSet
EndChar
StartChar: periodcentered
Encoding: 8729 8729 257
Width: 739
Flags: HW
Fore
262.2 905 m 1,0,-1
 586.2 905 l 1,1,-1
 517.8 518 l 1,2,-1
 193.8 518 l 1,3,-1
 262.2 905 l 1,0,-1
EndSplineSet
EndChar
StartChar: radical
Encoding: 8730 8730 165
Width: 1301
Flags: HW
Fore
1111.8 1714 m 1,0,-1
 1305.3 1714 l 1,1,-1
 1305.3 1565 l 1,2,-1
 1218.9 1565 l 1,3,-1
 687.9 -41 l 1,4,-1
 580.8 -41 l 1,5,-1
 304.5 805 l 1,6,-1
 174 750 l 1,7,-1
 140.7 879 l 1,8,-1
 464.7 1006 l 1,9,-1
 665.4 371 l 1,10,-1
 1111.8 1714 l 1,0,-1
EndSplineSet
EndChar
StartChar: infinity
Encoding: 8734 8734 146
Width: 1620
Flags: HW
Fore
945.8 561 m 1,0,1
 984.5 494 984.5 494 1037.6 460 c 128,-1,2
 1090.7 426 1090.7 426 1156.4 426 c 0,3,4
 1237.4 426 1237.4 426 1288.25 476.5 c 128,-1,5
 1339.1 527 1339.1 527 1339.1 606 c 0,6,7
 1339.1 683 1339.1 683 1292.75 733.5 c 128,-1,8
 1246.4 784 1246.4 784 1178 784 c 0,9,10
 1113.2 784 1113.2 784 1059.65 733.5 c 128,-1,11
 1006.1 683 1006.1 683 945.8 561 c 1,0,1
762.2 657 m 1,12,13
 723.5 724 723.5 724 671.3 757.5 c 128,-1,14
 619.1 791 619.1 791 551.6 791 c 0,15,16
 470.6 791 470.6 791 419.75 741 c 128,-1,17
 368.9 691 368.9 691 368.9 612 c 0,18,19
 368.9 535 368.9 535 414.8 484.5 c 128,-1,20
 460.7 434 460.7 434 530 434 c 0,21,22
 593.9 434 593.9 434 648.8 486.5 c 128,-1,23
 703.7 539 703.7 539 762.2 657 c 1,12,13
855.8 442 m 1,24,25
 794.6 312 794.6 312 723.05 249 c 128,-1,26
 651.5 186 651.5 186 564.2 186 c 0,27,28
 439.1 186 439.1 186 350 307.5 c 128,-1,29
 260.9 429 260.9 429 260.9 608 c 0,30,31
 260.9 796 260.9 796 339.65 913 c 128,-1,32
 418.4 1030 418.4 1030 544.4 1030 c 0,33,34
 625.4 1030 625.4 1030 694.25 973.5 c 128,-1,35
 763.1 917 763.1 917 852.2 774 c 1,36,37
 916.1 906 916.1 906 987.2 969 c 128,-1,38
 1058.3 1032 1058.3 1032 1143.8 1032 c 0,39,40
 1269.8 1032 1269.8 1032 1358.45 911 c 128,-1,41
 1447.1 790 1447.1 790 1447.1 610 c 0,42,43
 1447.1 421 1447.1 421 1368.35 303.5 c 128,-1,44
 1289.6 186 1289.6 186 1163.6 186 c 0,45,46
 1081.7 186 1081.7 186 1014.2 241 c 128,-1,47
 946.7 296 946.7 296 855.8 442 c 1,24,25
EndSplineSet
EndChar
StartChar: integral
Encoding: 8747 8747 156
Width: 1186
Flags: HW
Fore
388.35 -248 m 0,0,1
 477.45 -248 477.45 -248 495.45 419 c 0,2,3
 498.15 520 498.15 520 499.05 573 c 0,4,5
 514.35 1096 514.35 1096 616.5 1326 c 128,-1,6
 718.65 1556 718.65 1556 931.05 1556 c 0,7,8
 1025.55 1556 1025.55 1556 1084.05 1503 c 128,-1,9
 1142.55 1450 1142.55 1450 1142.55 1366 c 0,10,11
 1142.55 1302 1142.55 1302 1105.65 1262.5 c 128,-1,12
 1068.75 1223 1068.75 1223 1010.25 1223 c 0,13,14
 952.65 1223 952.65 1223 923.4 1261.5 c 128,-1,15
 894.15 1300 894.15 1300 894.15 1374 c 0,16,17
 894.15 1412 894.15 1412 887.4 1423 c 128,-1,18
 880.65 1434 880.65 1434 864.45 1434 c 0,19,20
 773.55 1434 773.55 1434 752.85 767 c 0,21,22
 751.05 707 751.05 707 750.15 676 c 0,23,24
 740.25 347 740.25 347 722.7 203.5 c 128,-1,25
 705.15 60 705.15 60 670.95 -41 c 0,26,27
 615.15 -207 615.15 -207 527.4 -290 c 128,-1,28
 439.65 -373 439.65 -373 320.85 -373 c 0,29,30
 224.55 -373 224.55 -373 166.5 -321 c 128,-1,31
 108.45 -269 108.45 -269 108.45 -182 c 0,32,33
 108.45 -117 108.45 -117 146.25 -78 c 128,-1,34
 184.05 -39 184.05 -39 247.05 -39 c 0,35,36
 301.05 -39 301.05 -39 330.3 -75 c 128,-1,37
 359.55 -111 359.55 -111 359.55 -178 c 0,38,39
 359.55 -190 359.55 -190 357.75 -202 c 0,40,41
 357.75 -204 357.75 -204 357.75 -205 c 0,42,43
 357.75 -229 357.75 -229 364.95 -238.5 c 128,-1,44
 372.15 -248 372.15 -248 388.35 -248 c 0,0,1
EndSplineSet
EndChar
StartChar: approxequal
Encoding: 8776 8776 167
Width: 1630
Flags: HW
Fore
1434.9 1059 m 1,0,-1
 1434.9 815 l 1,1,2
 1339.5 735 1339.5 735 1258.95 700.5 c 128,-1,3
 1178.4 666 1178.4 666 1092 666 c 0,4,5
 995.7 666 995.7 666 867 724 c 0,6,7
 854.4 730 854.4 730 847.2 733 c 0,8,9
 840.9 736 840.9 736 827.4 742 c 0,10,11
 687.9 803 687.9 803 603.3 803 c 0,12,13
 524.1 803 524.1 803 446.7 764.5 c 128,-1,14
 369.3 726 369.3 726 281.1 643 c 1,15,-1
 281.1 887 l 1,16,17
 375.6 965 375.6 965 456.15 999.5 c 128,-1,18
 536.7 1034 536.7 1034 624 1034 c 0,19,20
 723 1034 723 1034 855.3 975 c 0,21,22
 864.3 971 864.3 971 868.8 969 c 0,23,24
 876 966 876 966 888.6 960 c 0,25,26
 1028.1 899 1028.1 899 1112.7 899 c 0,27,28
 1190.1 899 1190.1 899 1266.15 936.5 c 128,-1,29
 1342.2 974 1342.2 974 1434.9 1059 c 1,0,-1
1434.9 641 m 1,30,-1
 1434.9 397 l 1,31,32
 1339.5 317 1339.5 317 1258.95 282.5 c 128,-1,33
 1178.4 248 1178.4 248 1092 248 c 0,34,35
 995.7 248 995.7 248 867 306 c 0,36,37
 854.4 312 854.4 312 846.3 316 c 0,38,39
 840.9 318 840.9 318 827.4 324 c 0,40,41
 687.9 385 687.9 385 603.3 385 c 0,42,43
 524.1 385 524.1 385 446.7 347 c 128,-1,44
 369.3 309 369.3 309 281.1 225 c 1,45,-1
 281.1 469 l 1,46,47
 377.4 549 377.4 549 457.5 583.5 c 128,-1,48
 537.6 618 537.6 618 624 618 c 0,49,50
 720.3 618 720.3 618 849 560 c 0,51,52
 862.5 554 862.5 554 868.8 551 c 0,53,54
 876 548 876 548 888.6 543 c 0,55,56
 1028.1 481 1028.1 481 1112.7 481 c 0,57,58
 1190.1 481 1190.1 481 1266.15 518.5 c 128,-1,59
 1342.2 556 1342.2 556 1434.9 641 c 1,30,-1
EndSplineSet
EndChar
StartChar: notequal
Encoding: 8800 8800 143
Width: 1630
Flags: HW
Fore
281.1 987 m 1,0,-1
 993 987 l 1,1,-1
 1219.8 1292 l 1,2,-1
 1353.9 1167 l 1,3,-1
 1223.4 987 l 1,4,-1
 1434.9 987 l 1,5,-1
 1434.9 752 l 1,6,-1
 1058.7 752 l 1,7,-1
 902.1 532 l 1,8,-1
 1434.9 532 l 1,9,-1
 1434.9 295 l 1,10,-1
 723.9 295 l 1,11,-1
 497.1 -10 l 1,12,-1
 362.1 117 l 1,13,-1
 493.5 295 l 1,14,-1
 281.1 295 l 1,15,-1
 281.1 532 l 1,16,-1
 662.7 532 l 1,17,-1
 821.1 752 l 1,18,-1
 281.1 752 l 1,19,-1
 281.1 987 l 1,0,-1
EndSplineSet
Ligature: 0 1 'liga' equal uni0338
EndChar
StartChar: lessequal
Encoding: 8804 8804 148
Width: 1630
Flags: HW
Fore
1434.9 238 m 1,0,-1
 1434.9 0 l 1,1,-1
 281.1 0 l 1,2,-1
 281.1 238 l 1,3,-1
 1434.9 238 l 1,0,-1
1434.9 948 m 1,4,-1
 627.6 739 l 1,5,-1
 1434.9 530 l 1,6,-1
 1434.9 287 l 1,7,-1
 281.1 623 l 1,8,-1
 281.1 858 l 1,9,-1
 1434.9 1192 l 1,10,-1
 1434.9 948 l 1,4,-1
EndSplineSet
EndChar
StartChar: greaterequal
Encoding: 8805 8805 149
Width: 1630
Flags: HW
Fore
281.1 238 m 1,0,-1
 1434.9 238 l 1,1,-1
 1434.9 0 l 1,2,-1
 281.1 0 l 1,3,-1
 281.1 238 l 1,0,-1
281.1 948 m 1,4,-1
 281.1 1192 l 1,5,-1
 1434.9 858 l 1,6,-1
 1434.9 623 l 1,7,-1
 281.1 287 l 1,8,-1
 281.1 530 l 1,9,-1
 1088.4 739 l 1,10,-1
 281.1 948 l 1,4,-1
EndSplineSet
EndChar
StartChar: uni2423
Encoding: 9251 9251 150
Width: 1390
Flags: HMW
HStem: -466 237<364.273 1023.07>
Fore
364.273 -229 m 1,0,-1
 1023.08 -229 l 1,1,-1
 1098.47 202 l 1,2,-1
 1309.97 202 l 1,3,-1
 1193.11 -466 l 1,4,-1
 111.311 -466 l 1,5,-1
 228.172 202 l 1,6,-1
 439.672 202 l 1,7,-1
 364.273 -229 l 1,0,-1
EndSplineSet
EndChar
StartChar: lozenge
Encoding: 9674 9674 185
Width: 961
Flags: HW
Fore
506 1409 m 1,0,-1
 159.5 592 l 1,1,-1
 506 -233 l 1,2,-1
 852.5 592 l 1,3,-1
 506 1409 l 1,0,-1
506 1653 m 1,4,-1
 956 592 l 1,5,-1
 506 -477 l 1,6,-1
 56 592 l 1,7,-1
 506 1653 l 1,4,-1
EndSplineSet
EndChar
StartChar: fi
Encoding: 64257 64257 192
Width: 1537
Flags: HW
Fore
1233.4 1556 m 1,0,-1
 1557.4 1556 l 1,1,-1
 1506.1 1264 l 1,2,-1
 1182.1 1264 l 1,3,-1
 1233.4 1556 l 1,0,-1
1157.8 1120 m 1,4,-1
 1481.8 1120 l 1,5,-1
 1284.7 0 l 1,6,-1
 962.5 0 l 1,7,-1
 1157.8 1120 l 1,4,-1
1082.2 1556 m 1,8,-1
 1039.9 1321 l 1,9,-1
 862.6 1321 l 2,10,11
 795.1 1321 795.1 1321 764.05 1293.5 c 128,-1,12
 733 1266 733 1266 721.3 1199 c 1,13,-1
 706 1120 l 1,14,-1
 978.7 1120 l 1,15,-1
 934.6 864 l 1,16,-1
 661.9 864 l 1,17,-1
 510.7 0 l 1,18,-1
 186.7 0 l 1,19,-1
 337.9 864 l 1,20,-1
 178.6 864 l 1,21,-1
 223.6 1120 l 1,22,-1
 382 1120 l 1,23,-1
 396.4 1198 l 1,24,25
 429.7 1384 429.7 1384 535 1470 c 128,-1,26
 640.3 1556 640.3 1556 834.7 1556 c 2,27,-1
 1082.2 1556 l 1,8,-1
EndSplineSet
Ligature: 0 0 'liga' f i
EndChar
